# vtk DataFile Version 3.0
Cartesian Mesh
ASCII
DATASET UNSTRUCTURED_GRID

POINTS 2453 float
0 0 0
0.5 0 0
1 0 0
1.5 0 0
2 0 0
2.5 0 0
3 0 0
3.5 0 0
4 0 0
4.5 0 0
5 0 0
5.5 0 0
6 0 0
6.5 0 0
7 0 0
7.5 0 0
8 0 0
8.5 0 0
9 0 0
9.5 0 0
10 0 0
0 0.4 0
0.5 0.4 0
1 0.4 0
1.5 0.4 0
2 0.4 0
2.5 0.4 0
3 0.4 0
3.5 0.4 0
4 0.4 0
4.5 0.4 0
5 0.4 0
5.5 0.4 0
6 0.4 0
6.5 0.4 0
7 0.4 0
7.5 0.4 0
8 0.4 0
8.5 0.4 0
9 0.4 0
9.5 0.4 0
10 0.4 0
0 0.8 0
0.5 0.8 0
1 0.8 0
1.5 0.8 0
2 0.8 0
2.5 0.8 0
3 0.8 0
3.5 0.8 0
4 0.8 0
4.5 0.8 0
5 0.8 0
5.5 0.8 0
6 0.8 0
6.5 0.8 0
7 0.8 0
7.5 0.8 0
8 0.8 0
8.5 0.8 0
9 0.8 0
9.5 0.8 0
10 0.8 0
0 1.2 0
0.5 1.2 0
1 1.2 0
1.5 1.2 0
2 1.2 0
2.5 1.2 0
3 1.2 0
3.5 1.2 0
4 1.2 0
4.5 1.2 0
5 1.2 0
5.5 1.2 0
6 1.2 0
6.5 1.2 0
7 1.2 0
7.5 1.2 0
8 1.2 0
8.5 1.2 0
9 1.2 0
9.5 1.2 0
10 1.2 0
0 1.6 0
0.5 1.6 0
1 1.6 0
1.5 1.6 0
2 1.6 0
2.5 1.6 0
3 1.6 0
3.5 1.6 0
4 1.6 0
4.5 1.6 0
5 1.6 0
5.5 1.6 0
6 1.6 0
6.5 1.6 0
7 1.6 0
7.5 1.6 0
8 1.6 0
8.5 1.6 0
9 1.6 0
9.5 1.6 0
10 1.6 0
0 2 0
0.5 2 0
1 2 0
1.5 2 0
2 2 0
2.5 2 0
3 2 0
3.5 2 0
4 2 0
4.5 2 0
5 2 0
5.5 2 0
6 2 0
6.5 2 0
7 2 0
7.5 2 0
8 2 0
8.5 2 0
9 2 0
9.5 2 0
10 2 0
0 2.4 0
0.5 2.4 0
1 2.4 0
1.5 2.4 0
2 2.4 0
2.5 2.4 0
3 2.4 0
3.5 2.4 0
4 2.4 0
4.5 2.4 0
5 2.4 0
5.5 2.4 0
6 2.4 0
6.5 2.4 0
7 2.4 0
7.5 2.4 0
8 2.4 0
8.5 2.4 0
9 2.4 0
9.5 2.4 0
10 2.4 0
0 2.8 0
0.5 2.8 0
1 2.8 0
1.5 2.8 0
2 2.8 0
2.5 2.8 0
3 2.8 0
3.5 2.8 0
4 2.8 0
4.5 2.8 0
5 2.8 0
5.5 2.8 0
6 2.8 0
6.5 2.8 0
7 2.8 0
7.5 2.8 0
8 2.8 0
8.5 2.8 0
9 2.8 0
9.5 2.8 0
10 2.8 0
0 3.2 0
0.5 3.2 0
1 3.2 0
1.5 3.2 0
2 3.2 0
2.5 3.2 0
3 3.2 0
3.5 3.2 0
4 3.2 0
4.5 3.2 0
5 3.2 0
5.5 3.2 0
6 3.2 0
6.5 3.2 0
7 3.2 0
7.5 3.2 0
8 3.2 0
8.5 3.2 0
9 3.2 0
9.5 3.2 0
10 3.2 0
0 3.6 0
0.5 3.6 0
1 3.6 0
1.5 3.6 0
2 3.6 0
2.5 3.6 0
3 3.6 0
3.5 3.6 0
4 3.6 0
4.5 3.6 0
5 3.6 0
5.5 3.6 0
6 3.6 0
6.5 3.6 0
7 3.6 0
7.5 3.6 0
8 3.6 0
8.5 3.6 0
9 3.6 0
9.5 3.6 0
10 3.6 0
0 4 0
0.5 4 0
1 4 0
1.5 4 0
2 4 0
2.5 4 0
3 4 0
3.5 4 0
4 4 0
4.5 4 0
5 4 0
5.5 4 0
6 4 0
6.5 4 0
7 4 0
7.5 4 0
8 4 0
8.5 4 0
9 4 0
9.5 4 0
10 4 0
10 -2 0
10.4 -2 0
10.8 -2 0
11.2 -2 0
11.6 -2 0
12 -2 0
12.4 -2 0
12.8 -2 0
13.2 -2 0
13.6 -2 0
14 -2 0
14.4 -2 0
14.8 -2 0
15.2 -2 0
15.6 -2 0
16 -2 0
16.4 -2 0
16.8 -2 0
17.2 -2 0
17.6 -2 0
18 -2 0
18.4 -2 0
18.8 -2 0
19.2 -2 0
19.6 -2 0
20 -2 0
20.4 -2 0
20.8 -2 0
21.2 -2 0
21.6 -2 0
22 -2 0
22.4 -2 0
22.8 -2 0
23.2 -2 0
23.6 -2 0
24 -2 0
24.4 -2 0
24.8 -2 0
25.2 -2 0
25.6 -2 0
26 -2 0
26.4 -2 0
26.8 -2 0
27.2 -2 0
27.6 -2 0
28 -2 0
28.4 -2 0
28.8 -2 0
29.2 -2 0
29.6 -2 0
30 -2 0
30.4 -2 0
30.8 -2 0
31.2 -2 0
31.6 -2 0
32 -2 0
32.4 -2 0
32.8 -2 0
33.2 -2 0
33.6 -2 0
34 -2 0
34.4 -2 0
34.8 -2 0
35.2 -2 0
35.6 -2 0
36 -2 0
36.4 -2 0
36.8 -2 0
37.2 -2 0
37.6 -2 0
38 -2 0
38.4 -2 0
38.8 -2 0
39.2 -2 0
39.6 -2 0
40 -2 0
40.4 -2 0
40.8 -2 0
41.2 -2 0
41.6 -2 0
42 -2 0
42.4 -2 0
42.8 -2 0
43.2 -2 0
43.6 -2 0
44 -2 0
44.4 -2 0
44.8 -2 0
45.2 -2 0
45.6 -2 0
46 -2 0
46.4 -2 0
46.8 -2 0
47.2 -2 0
47.6 -2 0
48 -2 0
48.4 -2 0
48.8 -2 0
49.2 -2 0
49.6 -2 0
50 -2 0
10 -1.4 0
10.4 -1.4 0
10.8 -1.4 0
11.2 -1.4 0
11.6 -1.4 0
12 -1.4 0
12.4 -1.4 0
12.8 -1.4 0
13.2 -1.4 0
13.6 -1.4 0
14 -1.4 0
14.4 -1.4 0
14.8 -1.4 0
15.2 -1.4 0
15.6 -1.4 0
16 -1.4 0
16.4 -1.4 0
16.8 -1.4 0
17.2 -1.4 0
17.6 -1.4 0
18 -1.4 0
18.4 -1.4 0
18.8 -1.4 0
19.2 -1.4 0
19.6 -1.4 0
20 -1.4 0
20.4 -1.4 0
20.8 -1.4 0
21.2 -1.4 0
21.6 -1.4 0
22 -1.4 0
22.4 -1.4 0
22.8 -1.4 0
23.2 -1.4 0
23.6 -1.4 0
24 -1.4 0
24.4 -1.4 0
24.8 -1.4 0
25.2 -1.4 0
25.6 -1.4 0
26 -1.4 0
26.4 -1.4 0
26.8 -1.4 0
27.2 -1.4 0
27.6 -1.4 0
28 -1.4 0
28.4 -1.4 0
28.8 -1.4 0
29.2 -1.4 0
29.6 -1.4 0
30 -1.4 0
30.4 -1.4 0
30.8 -1.4 0
31.2 -1.4 0
31.6 -1.4 0
32 -1.4 0
32.4 -1.4 0
32.8 -1.4 0
33.2 -1.4 0
33.6 -1.4 0
34 -1.4 0
34.4 -1.4 0
34.8 -1.4 0
35.2 -1.4 0
35.6 -1.4 0
36 -1.4 0
36.4 -1.4 0
36.8 -1.4 0
37.2 -1.4 0
37.6 -1.4 0
38 -1.4 0
38.4 -1.4 0
38.8 -1.4 0
39.2 -1.4 0
39.6 -1.4 0
40 -1.4 0
40.4 -1.4 0
40.8 -1.4 0
41.2 -1.4 0
41.6 -1.4 0
42 -1.4 0
42.4 -1.4 0
42.8 -1.4 0
43.2 -1.4 0
43.6 -1.4 0
44 -1.4 0
44.4 -1.4 0
44.8 -1.4 0
45.2 -1.4 0
45.6 -1.4 0
46 -1.4 0
46.4 -1.4 0
46.8 -1.4 0
47.2 -1.4 0
47.6 -1.4 0
48 -1.4 0
48.4 -1.4 0
48.8 -1.4 0
49.2 -1.4 0
49.6 -1.4 0
50 -1.4 0
10 -0.8 0
10.4 -0.8 0
10.8 -0.8 0
11.2 -0.8 0
11.6 -0.8 0
12 -0.8 0
12.4 -0.8 0
12.8 -0.8 0
13.2 -0.8 0
13.6 -0.8 0
14 -0.8 0
14.4 -0.8 0
14.8 -0.8 0
15.2 -0.8 0
15.6 -0.8 0
16 -0.8 0
16.4 -0.8 0
16.8 -0.8 0
17.2 -0.8 0
17.6 -0.8 0
18 -0.8 0
18.4 -0.8 0
18.8 -0.8 0
19.2 -0.8 0
19.6 -0.8 0
20 -0.8 0
20.4 -0.8 0
20.8 -0.8 0
21.2 -0.8 0
21.6 -0.8 0
22 -0.8 0
22.4 -0.8 0
22.8 -0.8 0
23.2 -0.8 0
23.6 -0.8 0
24 -0.8 0
24.4 -0.8 0
24.8 -0.8 0
25.2 -0.8 0
25.6 -0.8 0
26 -0.8 0
26.4 -0.8 0
26.8 -0.8 0
27.2 -0.8 0
27.6 -0.8 0
28 -0.8 0
28.4 -0.8 0
28.8 -0.8 0
29.2 -0.8 0
29.6 -0.8 0
30 -0.8 0
30.4 -0.8 0
30.8 -0.8 0
31.2 -0.8 0
31.6 -0.8 0
32 -0.8 0
32.4 -0.8 0
32.8 -0.8 0
33.2 -0.8 0
33.6 -0.8 0
34 -0.8 0
34.4 -0.8 0
34.8 -0.8 0
35.2 -0.8 0
35.6 -0.8 0
36 -0.8 0
36.4 -0.8 0
36.8 -0.8 0
37.2 -0.8 0
37.6 -0.8 0
38 -0.8 0
38.4 -0.8 0
38.8 -0.8 0
39.2 -0.8 0
39.6 -0.8 0
40 -0.8 0
40.4 -0.8 0
40.8 -0.8 0
41.2 -0.8 0
41.6 -0.8 0
42 -0.8 0
42.4 -0.8 0
42.8 -0.8 0
43.2 -0.8 0
43.6 -0.8 0
44 -0.8 0
44.4 -0.8 0
44.8 -0.8 0
45.2 -0.8 0
45.6 -0.8 0
46 -0.8 0
46.4 -0.8 0
46.8 -0.8 0
47.2 -0.8 0
47.6 -0.8 0
48 -0.8 0
48.4 -0.8 0
48.8 -0.8 0
49.2 -0.8 0
49.6 -0.8 0
50 -0.8 0
10 -0.2 0
10.4 -0.2 0
10.8 -0.2 0
11.2 -0.2 0
11.6 -0.2 0
12 -0.2 0
12.4 -0.2 0
12.8 -0.2 0
13.2 -0.2 0
13.6 -0.2 0
14 -0.2 0
14.4 -0.2 0
14.8 -0.2 0
15.2 -0.2 0
15.6 -0.2 0
16 -0.2 0
16.4 -0.2 0
16.8 -0.2 0
17.2 -0.2 0
17.6 -0.2 0
18 -0.2 0
18.4 -0.2 0
18.8 -0.2 0
19.2 -0.2 0
19.6 -0.2 0
20 -0.2 0
20.4 -0.2 0
20.8 -0.2 0
21.2 -0.2 0
21.6 -0.2 0
22 -0.2 0
22.4 -0.2 0
22.8 -0.2 0
23.2 -0.2 0
23.6 -0.2 0
24 -0.2 0
24.4 -0.2 0
24.8 -0.2 0
25.2 -0.2 0
25.6 -0.2 0
26 -0.2 0
26.4 -0.2 0
26.8 -0.2 0
27.2 -0.2 0
27.6 -0.2 0
28 -0.2 0
28.4 -0.2 0
28.8 -0.2 0
29.2 -0.2 0
29.6 -0.2 0
30 -0.2 0
30.4 -0.2 0
30.8 -0.2 0
31.2 -0.2 0
31.6 -0.2 0
32 -0.2 0
32.4 -0.2 0
32.8 -0.2 0
33.2 -0.2 0
33.6 -0.2 0
34 -0.2 0
34.4 -0.2 0
34.8 -0.2 0
35.2 -0.2 0
35.6 -0.2 0
36 -0.2 0
36.4 -0.2 0
36.8 -0.2 0
37.2 -0.2 0
37.6 -0.2 0
38 -0.2 0
38.4 -0.2 0
38.8 -0.2 0
39.2 -0.2 0
39.6 -0.2 0
40 -0.2 0
40.4 -0.2 0
40.8 -0.2 0
41.2 -0.2 0
41.6 -0.2 0
42 -0.2 0
42.4 -0.2 0
42.8 -0.2 0
43.2 -0.2 0
43.6 -0.2 0
44 -0.2 0
44.4 -0.2 0
44.8 -0.2 0
45.2 -0.2 0
45.6 -0.2 0
46 -0.2 0
46.4 -0.2 0
46.8 -0.2 0
47.2 -0.2 0
47.6 -0.2 0
48 -0.2 0
48.4 -0.2 0
48.8 -0.2 0
49.2 -0.2 0
49.6 -0.2 0
50 -0.2 0
10 0.4 0
10.4 0.4 0
10.8 0.4 0
11.2 0.4 0
11.6 0.4 0
12 0.4 0
12.4 0.4 0
12.8 0.4 0
13.2 0.4 0
13.6 0.4 0
14 0.4 0
14.4 0.4 0
14.8 0.4 0
15.2 0.4 0
15.6 0.4 0
16 0.4 0
16.4 0.4 0
16.8 0.4 0
17.2 0.4 0
17.6 0.4 0
18 0.4 0
18.4 0.4 0
18.8 0.4 0
19.2 0.4 0
19.6 0.4 0
20 0.4 0
20.4 0.4 0
20.8 0.4 0
21.2 0.4 0
21.6 0.4 0
22 0.4 0
22.4 0.4 0
22.8 0.4 0
23.2 0.4 0
23.6 0.4 0
24 0.4 0
24.4 0.4 0
24.8 0.4 0
25.2 0.4 0
25.6 0.4 0
26 0.4 0
26.4 0.4 0
26.8 0.4 0
27.2 0.4 0
27.6 0.4 0
28 0.4 0
28.4 0.4 0
28.8 0.4 0
29.2 0.4 0
29.6 0.4 0
30 0.4 0
30.4 0.4 0
30.8 0.4 0
31.2 0.4 0
31.6 0.4 0
32 0.4 0
32.4 0.4 0
32.8 0.4 0
33.2 0.4 0
33.6 0.4 0
34 0.4 0
34.4 0.4 0
34.8 0.4 0
35.2 0.4 0
35.6 0.4 0
36 0.4 0
36.4 0.4 0
36.8 0.4 0
37.2 0.4 0
37.6 0.4 0
38 0.4 0
38.4 0.4 0
38.8 0.4 0
39.2 0.4 0
39.6 0.4 0
40 0.4 0
40.4 0.4 0
40.8 0.4 0
41.2 0.4 0
41.6 0.4 0
42 0.4 0
42.4 0.4 0
42.8 0.4 0
43.2 0.4 0
43.6 0.4 0
44 0.4 0
44.4 0.4 0
44.8 0.4 0
45.2 0.4 0
45.6 0.4 0
46 0.4 0
46.4 0.4 0
46.8 0.4 0
47.2 0.4 0
47.6 0.4 0
48 0.4 0
48.4 0.4 0
48.8 0.4 0
49.2 0.4 0
49.6 0.4 0
50 0.4 0
10 1 0
10.4 1 0
10.8 1 0
11.2 1 0
11.6 1 0
12 1 0
12.4 1 0
12.8 1 0
13.2 1 0
13.6 1 0
14 1 0
14.4 1 0
14.8 1 0
15.2 1 0
15.6 1 0
16 1 0
16.4 1 0
16.8 1 0
17.2 1 0
17.6 1 0
18 1 0
18.4 1 0
18.8 1 0
19.2 1 0
19.6 1 0
20 1 0
20.4 1 0
20.8 1 0
21.2 1 0
21.6 1 0
22 1 0
22.4 1 0
22.8 1 0
23.2 1 0
23.6 1 0
24 1 0
24.4 1 0
24.8 1 0
25.2 1 0
25.6 1 0
26 1 0
26.4 1 0
26.8 1 0
27.2 1 0
27.6 1 0
28 1 0
28.4 1 0
28.8 1 0
29.2 1 0
29.6 1 0
30 1 0
30.4 1 0
30.8 1 0
31.2 1 0
31.6 1 0
32 1 0
32.4 1 0
32.8 1 0
33.2 1 0
33.6 1 0
34 1 0
34.4 1 0
34.8 1 0
35.2 1 0
35.6 1 0
36 1 0
36.4 1 0
36.8 1 0
37.2 1 0
37.6 1 0
38 1 0
38.4 1 0
38.8 1 0
39.2 1 0
39.6 1 0
40 1 0
40.4 1 0
40.8 1 0
41.2 1 0
41.6 1 0
42 1 0
42.4 1 0
42.8 1 0
43.2 1 0
43.6 1 0
44 1 0
44.4 1 0
44.8 1 0
45.2 1 0
45.6 1 0
46 1 0
46.4 1 0
46.8 1 0
47.2 1 0
47.6 1 0
48 1 0
48.4 1 0
48.8 1 0
49.2 1 0
49.6 1 0
50 1 0
10 1.6 0
10.4 1.6 0
10.8 1.6 0
11.2 1.6 0
11.6 1.6 0
12 1.6 0
12.4 1.6 0
12.8 1.6 0
13.2 1.6 0
13.6 1.6 0
14 1.6 0
14.4 1.6 0
14.8 1.6 0
15.2 1.6 0
15.6 1.6 0
16 1.6 0
16.4 1.6 0
16.8 1.6 0
17.2 1.6 0
17.6 1.6 0
18 1.6 0
18.4 1.6 0
18.8 1.6 0
19.2 1.6 0
19.6 1.6 0
20 1.6 0
20.4 1.6 0
20.8 1.6 0
21.2 1.6 0
21.6 1.6 0
22 1.6 0
22.4 1.6 0
22.8 1.6 0
23.2 1.6 0
23.6 1.6 0
24 1.6 0
24.4 1.6 0
24.8 1.6 0
25.2 1.6 0
25.6 1.6 0
26 1.6 0
26.4 1.6 0
26.8 1.6 0
27.2 1.6 0
27.6 1.6 0
28 1.6 0
28.4 1.6 0
28.8 1.6 0
29.2 1.6 0
29.6 1.6 0
30 1.6 0
30.4 1.6 0
30.8 1.6 0
31.2 1.6 0
31.6 1.6 0
32 1.6 0
32.4 1.6 0
32.8 1.6 0
33.2 1.6 0
33.6 1.6 0
34 1.6 0
34.4 1.6 0
34.8 1.6 0
35.2 1.6 0
35.6 1.6 0
36 1.6 0
36.4 1.6 0
36.8 1.6 0
37.2 1.6 0
37.6 1.6 0
38 1.6 0
38.4 1.6 0
38.8 1.6 0
39.2 1.6 0
39.6 1.6 0
40 1.6 0
40.4 1.6 0
40.8 1.6 0
41.2 1.6 0
41.6 1.6 0
42 1.6 0
42.4 1.6 0
42.8 1.6 0
43.2 1.6 0
43.6 1.6 0
44 1.6 0
44.4 1.6 0
44.8 1.6 0
45.2 1.6 0
45.6 1.6 0
46 1.6 0
46.4 1.6 0
46.8 1.6 0
47.2 1.6 0
47.6 1.6 0
48 1.6 0
48.4 1.6 0
48.8 1.6 0
49.2 1.6 0
49.6 1.6 0
50 1.6 0
10 2.2 0
10.4 2.2 0
10.8 2.2 0
11.2 2.2 0
11.6 2.2 0
12 2.2 0
12.4 2.2 0
12.8 2.2 0
13.2 2.2 0
13.6 2.2 0
14 2.2 0
14.4 2.2 0
14.8 2.2 0
15.2 2.2 0
15.6 2.2 0
16 2.2 0
16.4 2.2 0
16.8 2.2 0
17.2 2.2 0
17.6 2.2 0
18 2.2 0
18.4 2.2 0
18.8 2.2 0
19.2 2.2 0
19.6 2.2 0
20 2.2 0
20.4 2.2 0
20.8 2.2 0
21.2 2.2 0
21.6 2.2 0
22 2.2 0
22.4 2.2 0
22.8 2.2 0
23.2 2.2 0
23.6 2.2 0
24 2.2 0
24.4 2.2 0
24.8 2.2 0
25.2 2.2 0
25.6 2.2 0
26 2.2 0
26.4 2.2 0
26.8 2.2 0
27.2 2.2 0
27.6 2.2 0
28 2.2 0
28.4 2.2 0
28.8 2.2 0
29.2 2.2 0
29.6 2.2 0
30 2.2 0
30.4 2.2 0
30.8 2.2 0
31.2 2.2 0
31.6 2.2 0
32 2.2 0
32.4 2.2 0
32.8 2.2 0
33.2 2.2 0
33.6 2.2 0
34 2.2 0
34.4 2.2 0
34.8 2.2 0
35.2 2.2 0
35.6 2.2 0
36 2.2 0
36.4 2.2 0
36.8 2.2 0
37.2 2.2 0
37.6 2.2 0
38 2.2 0
38.4 2.2 0
38.8 2.2 0
39.2 2.2 0
39.6 2.2 0
40 2.2 0
40.4 2.2 0
40.8 2.2 0
41.2 2.2 0
41.6 2.2 0
42 2.2 0
42.4 2.2 0
42.8 2.2 0
43.2 2.2 0
43.6 2.2 0
44 2.2 0
44.4 2.2 0
44.8 2.2 0
45.2 2.2 0
45.6 2.2 0
46 2.2 0
46.4 2.2 0
46.8 2.2 0
47.2 2.2 0
47.6 2.2 0
48 2.2 0
48.4 2.2 0
48.8 2.2 0
49.2 2.2 0
49.6 2.2 0
50 2.2 0
10 2.8 0
10.4 2.8 0
10.8 2.8 0
11.2 2.8 0
11.6 2.8 0
12 2.8 0
12.4 2.8 0
12.8 2.8 0
13.2 2.8 0
13.6 2.8 0
14 2.8 0
14.4 2.8 0
14.8 2.8 0
15.2 2.8 0
15.6 2.8 0
16 2.8 0
16.4 2.8 0
16.8 2.8 0
17.2 2.8 0
17.6 2.8 0
18 2.8 0
18.4 2.8 0
18.8 2.8 0
19.2 2.8 0
19.6 2.8 0
20 2.8 0
20.4 2.8 0
20.8 2.8 0
21.2 2.8 0
21.6 2.8 0
22 2.8 0
22.4 2.8 0
22.8 2.8 0
23.2 2.8 0
23.6 2.8 0
24 2.8 0
24.4 2.8 0
24.8 2.8 0
25.2 2.8 0
25.6 2.8 0
26 2.8 0
26.4 2.8 0
26.8 2.8 0
27.2 2.8 0
27.6 2.8 0
28 2.8 0
28.4 2.8 0
28.8 2.8 0
29.2 2.8 0
29.6 2.8 0
30 2.8 0
30.4 2.8 0
30.8 2.8 0
31.2 2.8 0
31.6 2.8 0
32 2.8 0
32.4 2.8 0
32.8 2.8 0
33.2 2.8 0
33.6 2.8 0
34 2.8 0
34.4 2.8 0
34.8 2.8 0
35.2 2.8 0
35.6 2.8 0
36 2.8 0
36.4 2.8 0
36.8 2.8 0
37.2 2.8 0
37.6 2.8 0
38 2.8 0
38.4 2.8 0
38.8 2.8 0
39.2 2.8 0
39.6 2.8 0
40 2.8 0
40.4 2.8 0
40.8 2.8 0
41.2 2.8 0
41.6 2.8 0
42 2.8 0
42.4 2.8 0
42.8 2.8 0
43.2 2.8 0
43.6 2.8 0
44 2.8 0
44.4 2.8 0
44.8 2.8 0
45.2 2.8 0
45.6 2.8 0
46 2.8 0
46.4 2.8 0
46.8 2.8 0
47.2 2.8 0
47.6 2.8 0
48 2.8 0
48.4 2.8 0
48.8 2.8 0
49.2 2.8 0
49.6 2.8 0
50 2.8 0
10 3.4 0
10.4 3.4 0
10.8 3.4 0
11.2 3.4 0
11.6 3.4 0
12 3.4 0
12.4 3.4 0
12.8 3.4 0
13.2 3.4 0
13.6 3.4 0
14 3.4 0
14.4 3.4 0
14.8 3.4 0
15.2 3.4 0
15.6 3.4 0
16 3.4 0
16.4 3.4 0
16.8 3.4 0
17.2 3.4 0
17.6 3.4 0
18 3.4 0
18.4 3.4 0
18.8 3.4 0
19.2 3.4 0
19.6 3.4 0
20 3.4 0
20.4 3.4 0
20.8 3.4 0
21.2 3.4 0
21.6 3.4 0
22 3.4 0
22.4 3.4 0
22.8 3.4 0
23.2 3.4 0
23.6 3.4 0
24 3.4 0
24.4 3.4 0
24.8 3.4 0
25.2 3.4 0
25.6 3.4 0
26 3.4 0
26.4 3.4 0
26.8 3.4 0
27.2 3.4 0
27.6 3.4 0
28 3.4 0
28.4 3.4 0
28.8 3.4 0
29.2 3.4 0
29.6 3.4 0
30 3.4 0
30.4 3.4 0
30.8 3.4 0
31.2 3.4 0
31.6 3.4 0
32 3.4 0
32.4 3.4 0
32.8 3.4 0
33.2 3.4 0
33.6 3.4 0
34 3.4 0
34.4 3.4 0
34.8 3.4 0
35.2 3.4 0
35.6 3.4 0
36 3.4 0
36.4 3.4 0
36.8 3.4 0
37.2 3.4 0
37.6 3.4 0
38 3.4 0
38.4 3.4 0
38.8 3.4 0
39.2 3.4 0
39.6 3.4 0
40 3.4 0
40.4 3.4 0
40.8 3.4 0
41.2 3.4 0
41.6 3.4 0
42 3.4 0
42.4 3.4 0
42.8 3.4 0
43.2 3.4 0
43.6 3.4 0
44 3.4 0
44.4 3.4 0
44.8 3.4 0
45.2 3.4 0
45.6 3.4 0
46 3.4 0
46.4 3.4 0
46.8 3.4 0
47.2 3.4 0
47.6 3.4 0
48 3.4 0
48.4 3.4 0
48.8 3.4 0
49.2 3.4 0
49.6 3.4 0
50 3.4 0
10 4 0
10.4 4 0
10.8 4 0
11.2 4 0
11.6 4 0
12 4 0
12.4 4 0
12.8 4 0
13.2 4 0
13.6 4 0
14 4 0
14.4 4 0
14.8 4 0
15.2 4 0
15.6 4 0
16 4 0
16.4 4 0
16.8 4 0
17.2 4 0
17.6 4 0
18 4 0
18.4 4 0
18.8 4 0
19.2 4 0
19.6 4 0
20 4 0
20.4 4 0
20.8 4 0
21.2 4 0
21.6 4 0
22 4 0
22.4 4 0
22.8 4 0
23.2 4 0
23.6 4 0
24 4 0
24.4 4 0
24.8 4 0
25.2 4 0
25.6 4 0
26 4 0
26.4 4 0
26.8 4 0
27.2 4 0
27.6 4 0
28 4 0
28.4 4 0
28.8 4 0
29.2 4 0
29.6 4 0
30 4 0
30.4 4 0
30.8 4 0
31.2 4 0
31.6 4 0
32 4 0
32.4 4 0
32.8 4 0
33.2 4 0
33.6 4 0
34 4 0
34.4 4 0
34.8 4 0
35.2 4 0
35.6 4 0
36 4 0
36.4 4 0
36.8 4 0
37.2 4 0
37.6 4 0
38 4 0
38.4 4 0
38.8 4 0
39.2 4 0
39.6 4 0
40 4 0
40.4 4 0
40.8 4 0
41.2 4 0
41.6 4 0
42 4 0
42.4 4 0
42.8 4 0
43.2 4 0
43.6 4 0
44 4 0
44.4 4 0
44.8 4 0
45.2 4 0
45.6 4 0
46 4 0
46.4 4 0
46.8 4 0
47.2 4 0
47.6 4 0
48 4 0
48.4 4 0
48.8 4 0
49.2 4 0
49.6 4 0
50 4 0
10 -2 0
10.4 -2 0
10.8 -2 0
11.2 -2 0
11.6 -2 0
12 -2 0
12.4 -2 0
12.8 -2 0
13.2 -2 0
13.6 -2 0
14 -2 0
14.4 -2 0
14.8 -2 0
15.2 -2 0
15.6 -2 0
16 -2 0
16.4 -2 0
16.8 -2 0
17.2 -2 0
17.6 -2 0
18 -2 0
18.4 -2 0
18.8 -2 0
19.2 -2 0
19.6 -2 0
20 -2 0
20.4 -2 0
20.8 -2 0
21.2 -2 0
21.6 -2 0
22 -2 0
22.4 -2 0
22.8 -2 0
23.2 -2 0
23.6 -2 0
24 -2 0
24.4 -2 0
24.8 -2 0
25.2 -2 0
25.6 -2 0
26 -2 0
26.4 -2 0
26.8 -2 0
27.2 -2 0
27.6 -2 0
28 -2 0
28.4 -2 0
28.8 -2 0
29.2 -2 0
29.6 -2 0
30 -2 0
30.4 -2 0
30.8 -2 0
31.2 -2 0
31.6 -2 0
32 -2 0
32.4 -2 0
32.8 -2 0
33.2 -2 0
33.6 -2 0
34 -2 0
34.4 -2 0
34.8 -2 0
35.2 -2 0
35.6 -2 0
36 -2 0
36.4 -2 0
36.8 -2 0
37.2 -2 0
37.6 -2 0
38 -2 0
38.4 -2 0
38.8 -2 0
39.2 -2 0
39.6 -2 0
40 -2 0
40.4 -2 0
40.8 -2 0
41.2 -2 0
41.6 -2 0
42 -2 0
42.4 -2 0
42.8 -2 0
43.2 -2 0
43.6 -2 0
44 -2 0
44.4 -2 0
44.8 -2 0
45.2 -2 0
45.6 -2 0
46 -2 0
46.4 -2 0
46.8 -2 0
47.2 -2 0
47.6 -2 0
48 -2 0
48.4 -2 0
48.8 -2 0
49.2 -2 0
49.6 -2 0
50 -2 0
10 -1.4 0
10.4 -1.4 0
10.8 -1.4 0
11.2 -1.4 0
11.6 -1.4 0
12 -1.4 0
12.4 -1.4 0
12.8 -1.4 0
13.2 -1.4 0
13.6 -1.4 0
14 -1.4 0
14.4 -1.4 0
14.8 -1.4 0
15.2 -1.4 0
15.6 -1.4 0
16 -1.4 0
16.4 -1.4 0
16.8 -1.4 0
17.2 -1.4 0
17.6 -1.4 0
18 -1.4 0
18.4 -1.4 0
18.8 -1.4 0
19.2 -1.4 0
19.6 -1.4 0
20 -1.4 0
20.4 -1.4 0
20.8 -1.4 0
21.2 -1.4 0
21.6 -1.4 0
22 -1.4 0
22.4 -1.4 0
22.8 -1.4 0
23.2 -1.4 0
23.6 -1.4 0
24 -1.4 0
24.4 -1.4 0
24.8 -1.4 0
25.2 -1.4 0
25.6 -1.4 0
26 -1.4 0
26.4 -1.4 0
26.8 -1.4 0
27.2 -1.4 0
27.6 -1.4 0
28 -1.4 0
28.4 -1.4 0
28.8 -1.4 0
29.2 -1.4 0
29.6 -1.4 0
30 -1.4 0
30.4 -1.4 0
30.8 -1.4 0
31.2 -1.4 0
31.6 -1.4 0
32 -1.4 0
32.4 -1.4 0
32.8 -1.4 0
33.2 -1.4 0
33.6 -1.4 0
34 -1.4 0
34.4 -1.4 0
34.8 -1.4 0
35.2 -1.4 0
35.6 -1.4 0
36 -1.4 0
36.4 -1.4 0
36.8 -1.4 0
37.2 -1.4 0
37.6 -1.4 0
38 -1.4 0
38.4 -1.4 0
38.8 -1.4 0
39.2 -1.4 0
39.6 -1.4 0
40 -1.4 0
40.4 -1.4 0
40.8 -1.4 0
41.2 -1.4 0
41.6 -1.4 0
42 -1.4 0
42.4 -1.4 0
42.8 -1.4 0
43.2 -1.4 0
43.6 -1.4 0
44 -1.4 0
44.4 -1.4 0
44.8 -1.4 0
45.2 -1.4 0
45.6 -1.4 0
46 -1.4 0
46.4 -1.4 0
46.8 -1.4 0
47.2 -1.4 0
47.6 -1.4 0
48 -1.4 0
48.4 -1.4 0
48.8 -1.4 0
49.2 -1.4 0
49.6 -1.4 0
50 -1.4 0
10 -0.8 0
10.4 -0.8 0
10.8 -0.8 0
11.2 -0.8 0
11.6 -0.8 0
12 -0.8 0
12.4 -0.8 0
12.8 -0.8 0
13.2 -0.8 0
13.6 -0.8 0
14 -0.8 0
14.4 -0.8 0
14.8 -0.8 0
15.2 -0.8 0
15.6 -0.8 0
16 -0.8 0
16.4 -0.8 0
16.8 -0.8 0
17.2 -0.8 0
17.6 -0.8 0
18 -0.8 0
18.4 -0.8 0
18.8 -0.8 0
19.2 -0.8 0
19.6 -0.8 0
20 -0.8 0
20.4 -0.8 0
20.8 -0.8 0
21.2 -0.8 0
21.6 -0.8 0
22 -0.8 0
22.4 -0.8 0
22.8 -0.8 0
23.2 -0.8 0
23.6 -0.8 0
24 -0.8 0
24.4 -0.8 0
24.8 -0.8 0
25.2 -0.8 0
25.6 -0.8 0
26 -0.8 0
26.4 -0.8 0
26.8 -0.8 0
27.2 -0.8 0
27.6 -0.8 0
28 -0.8 0
28.4 -0.8 0
28.8 -0.8 0
29.2 -0.8 0
29.6 -0.8 0
30 -0.8 0
30.4 -0.8 0
30.8 -0.8 0
31.2 -0.8 0
31.6 -0.8 0
32 -0.8 0
32.4 -0.8 0
32.8 -0.8 0
33.2 -0.8 0
33.6 -0.8 0
34 -0.8 0
34.4 -0.8 0
34.8 -0.8 0
35.2 -0.8 0
35.6 -0.8 0
36 -0.8 0
36.4 -0.8 0
36.8 -0.8 0
37.2 -0.8 0
37.6 -0.8 0
38 -0.8 0
38.4 -0.8 0
38.8 -0.8 0
39.2 -0.8 0
39.6 -0.8 0
40 -0.8 0
40.4 -0.8 0
40.8 -0.8 0
41.2 -0.8 0
41.6 -0.8 0
42 -0.8 0
42.4 -0.8 0
42.8 -0.8 0
43.2 -0.8 0
43.6 -0.8 0
44 -0.8 0
44.4 -0.8 0
44.8 -0.8 0
45.2 -0.8 0
45.6 -0.8 0
46 -0.8 0
46.4 -0.8 0
46.8 -0.8 0
47.2 -0.8 0
47.6 -0.8 0
48 -0.8 0
48.4 -0.8 0
48.8 -0.8 0
49.2 -0.8 0
49.6 -0.8 0
50 -0.8 0
10 -0.2 0
10.4 -0.2 0
10.8 -0.2 0
11.2 -0.2 0
11.6 -0.2 0
12 -0.2 0
12.4 -0.2 0
12.8 -0.2 0
13.2 -0.2 0
13.6 -0.2 0
14 -0.2 0
14.4 -0.2 0
14.8 -0.2 0
15.2 -0.2 0
15.6 -0.2 0
16 -0.2 0
16.4 -0.2 0
16.8 -0.2 0
17.2 -0.2 0
17.6 -0.2 0
18 -0.2 0
18.4 -0.2 0
18.8 -0.2 0
19.2 -0.2 0
19.6 -0.2 0
20 -0.2 0
20.4 -0.2 0
20.8 -0.2 0
21.2 -0.2 0
21.6 -0.2 0
22 -0.2 0
22.4 -0.2 0
22.8 -0.2 0
23.2 -0.2 0
23.6 -0.2 0
24 -0.2 0
24.4 -0.2 0
24.8 -0.2 0
25.2 -0.2 0
25.6 -0.2 0
26 -0.2 0
26.4 -0.2 0
26.8 -0.2 0
27.2 -0.2 0
27.6 -0.2 0
28 -0.2 0
28.4 -0.2 0
28.8 -0.2 0
29.2 -0.2 0
29.6 -0.2 0
30 -0.2 0
30.4 -0.2 0
30.8 -0.2 0
31.2 -0.2 0
31.6 -0.2 0
32 -0.2 0
32.4 -0.2 0
32.8 -0.2 0
33.2 -0.2 0
33.6 -0.2 0
34 -0.2 0
34.4 -0.2 0
34.8 -0.2 0
35.2 -0.2 0
35.6 -0.2 0
36 -0.2 0
36.4 -0.2 0
36.8 -0.2 0
37.2 -0.2 0
37.6 -0.2 0
38 -0.2 0
38.4 -0.2 0
38.8 -0.2 0
39.2 -0.2 0
39.6 -0.2 0
40 -0.2 0
40.4 -0.2 0
40.8 -0.2 0
41.2 -0.2 0
41.6 -0.2 0
42 -0.2 0
42.4 -0.2 0
42.8 -0.2 0
43.2 -0.2 0
43.6 -0.2 0
44 -0.2 0
44.4 -0.2 0
44.8 -0.2 0
45.2 -0.2 0
45.6 -0.2 0
46 -0.2 0
46.4 -0.2 0
46.8 -0.2 0
47.2 -0.2 0
47.6 -0.2 0
48 -0.2 0
48.4 -0.2 0
48.8 -0.2 0
49.2 -0.2 0
49.6 -0.2 0
50 -0.2 0
10 0.4 0
10.4 0.4 0
10.8 0.4 0
11.2 0.4 0
11.6 0.4 0
12 0.4 0
12.4 0.4 0
12.8 0.4 0
13.2 0.4 0
13.6 0.4 0
14 0.4 0
14.4 0.4 0
14.8 0.4 0
15.2 0.4 0
15.6 0.4 0
16 0.4 0
16.4 0.4 0
16.8 0.4 0
17.2 0.4 0
17.6 0.4 0
18 0.4 0
18.4 0.4 0
18.8 0.4 0
19.2 0.4 0
19.6 0.4 0
20 0.4 0
20.4 0.4 0
20.8 0.4 0
21.2 0.4 0
21.6 0.4 0
22 0.4 0
22.4 0.4 0
22.8 0.4 0
23.2 0.4 0
23.6 0.4 0
24 0.4 0
24.4 0.4 0
24.8 0.4 0
25.2 0.4 0
25.6 0.4 0
26 0.4 0
26.4 0.4 0
26.8 0.4 0
27.2 0.4 0
27.6 0.4 0
28 0.4 0
28.4 0.4 0
28.8 0.4 0
29.2 0.4 0
29.6 0.4 0
30 0.4 0
30.4 0.4 0
30.8 0.4 0
31.2 0.4 0
31.6 0.4 0
32 0.4 0
32.4 0.4 0
32.8 0.4 0
33.2 0.4 0
33.6 0.4 0
34 0.4 0
34.4 0.4 0
34.8 0.4 0
35.2 0.4 0
35.6 0.4 0
36 0.4 0
36.4 0.4 0
36.8 0.4 0
37.2 0.4 0
37.6 0.4 0
38 0.4 0
38.4 0.4 0
38.8 0.4 0
39.2 0.4 0
39.6 0.4 0
40 0.4 0
40.4 0.4 0
40.8 0.4 0
41.2 0.4 0
41.6 0.4 0
42 0.4 0
42.4 0.4 0
42.8 0.4 0
43.2 0.4 0
43.6 0.4 0
44 0.4 0
44.4 0.4 0
44.8 0.4 0
45.2 0.4 0
45.6 0.4 0
46 0.4 0
46.4 0.4 0
46.8 0.4 0
47.2 0.4 0
47.6 0.4 0
48 0.4 0
48.4 0.4 0
48.8 0.4 0
49.2 0.4 0
49.6 0.4 0
50 0.4 0
10 1 0
10.4 1 0
10.8 1 0
11.2 1 0
11.6 1 0
12 1 0
12.4 1 0
12.8 1 0
13.2 1 0
13.6 1 0
14 1 0
14.4 1 0
14.8 1 0
15.2 1 0
15.6 1 0
16 1 0
16.4 1 0
16.8 1 0
17.2 1 0
17.6 1 0
18 1 0
18.4 1 0
18.8 1 0
19.2 1 0
19.6 1 0
20 1 0
20.4 1 0
20.8 1 0
21.2 1 0
21.6 1 0
22 1 0
22.4 1 0
22.8 1 0
23.2 1 0
23.6 1 0
24 1 0
24.4 1 0
24.8 1 0
25.2 1 0
25.6 1 0
26 1 0
26.4 1 0
26.8 1 0
27.2 1 0
27.6 1 0
28 1 0
28.4 1 0
28.8 1 0
29.2 1 0
29.6 1 0
30 1 0
30.4 1 0
30.8 1 0
31.2 1 0
31.6 1 0
32 1 0
32.4 1 0
32.8 1 0
33.2 1 0
33.6 1 0
34 1 0
34.4 1 0
34.8 1 0
35.2 1 0
35.6 1 0
36 1 0
36.4 1 0
36.8 1 0
37.2 1 0
37.6 1 0
38 1 0
38.4 1 0
38.8 1 0
39.2 1 0
39.6 1 0
40 1 0
40.4 1 0
40.8 1 0
41.2 1 0
41.6 1 0
42 1 0
42.4 1 0
42.8 1 0
43.2 1 0
43.6 1 0
44 1 0
44.4 1 0
44.8 1 0
45.2 1 0
45.6 1 0
46 1 0
46.4 1 0
46.8 1 0
47.2 1 0
47.6 1 0
48 1 0
48.4 1 0
48.8 1 0
49.2 1 0
49.6 1 0
50 1 0
10 1.6 0
10.4 1.6 0
10.8 1.6 0
11.2 1.6 0
11.6 1.6 0
12 1.6 0
12.4 1.6 0
12.8 1.6 0
13.2 1.6 0
13.6 1.6 0
14 1.6 0
14.4 1.6 0
14.8 1.6 0
15.2 1.6 0
15.6 1.6 0
16 1.6 0
16.4 1.6 0
16.8 1.6 0
17.2 1.6 0
17.6 1.6 0
18 1.6 0
18.4 1.6 0
18.8 1.6 0
19.2 1.6 0
19.6 1.6 0
20 1.6 0
20.4 1.6 0
20.8 1.6 0
21.2 1.6 0
21.6 1.6 0
22 1.6 0
22.4 1.6 0
22.8 1.6 0
23.2 1.6 0
23.6 1.6 0
24 1.6 0
24.4 1.6 0
24.8 1.6 0
25.2 1.6 0
25.6 1.6 0
26 1.6 0
26.4 1.6 0
26.8 1.6 0
27.2 1.6 0
27.6 1.6 0
28 1.6 0
28.4 1.6 0
28.8 1.6 0
29.2 1.6 0
29.6 1.6 0
30 1.6 0
30.4 1.6 0
30.8 1.6 0
31.2 1.6 0
31.6 1.6 0
32 1.6 0
32.4 1.6 0
32.8 1.6 0
33.2 1.6 0
33.6 1.6 0
34 1.6 0
34.4 1.6 0
34.8 1.6 0
35.2 1.6 0
35.6 1.6 0
36 1.6 0
36.4 1.6 0
36.8 1.6 0
37.2 1.6 0
37.6 1.6 0
38 1.6 0
38.4 1.6 0
38.8 1.6 0
39.2 1.6 0
39.6 1.6 0
40 1.6 0
40.4 1.6 0
40.8 1.6 0
41.2 1.6 0
41.6 1.6 0
42 1.6 0
42.4 1.6 0
42.8 1.6 0
43.2 1.6 0
43.6 1.6 0
44 1.6 0
44.4 1.6 0
44.8 1.6 0
45.2 1.6 0
45.6 1.6 0
46 1.6 0
46.4 1.6 0
46.8 1.6 0
47.2 1.6 0
47.6 1.6 0
48 1.6 0
48.4 1.6 0
48.8 1.6 0
49.2 1.6 0
49.6 1.6 0
50 1.6 0
10 2.2 0
10.4 2.2 0
10.8 2.2 0
11.2 2.2 0
11.6 2.2 0
12 2.2 0
12.4 2.2 0
12.8 2.2 0
13.2 2.2 0
13.6 2.2 0
14 2.2 0
14.4 2.2 0
14.8 2.2 0
15.2 2.2 0
15.6 2.2 0
16 2.2 0
16.4 2.2 0
16.8 2.2 0
17.2 2.2 0
17.6 2.2 0
18 2.2 0
18.4 2.2 0
18.8 2.2 0
19.2 2.2 0
19.6 2.2 0
20 2.2 0
20.4 2.2 0
20.8 2.2 0
21.2 2.2 0
21.6 2.2 0
22 2.2 0
22.4 2.2 0
22.8 2.2 0
23.2 2.2 0
23.6 2.2 0
24 2.2 0
24.4 2.2 0
24.8 2.2 0
25.2 2.2 0
25.6 2.2 0
26 2.2 0
26.4 2.2 0
26.8 2.2 0
27.2 2.2 0
27.6 2.2 0
28 2.2 0
28.4 2.2 0
28.8 2.2 0
29.2 2.2 0
29.6 2.2 0
30 2.2 0
30.4 2.2 0
30.8 2.2 0
31.2 2.2 0
31.6 2.2 0
32 2.2 0
32.4 2.2 0
32.8 2.2 0
33.2 2.2 0
33.6 2.2 0
34 2.2 0
34.4 2.2 0
34.8 2.2 0
35.2 2.2 0
35.6 2.2 0
36 2.2 0
36.4 2.2 0
36.8 2.2 0
37.2 2.2 0
37.6 2.2 0
38 2.2 0
38.4 2.2 0
38.8 2.2 0
39.2 2.2 0
39.6 2.2 0
40 2.2 0
40.4 2.2 0
40.8 2.2 0
41.2 2.2 0
41.6 2.2 0
42 2.2 0
42.4 2.2 0
42.8 2.2 0
43.2 2.2 0
43.6 2.2 0
44 2.2 0
44.4 2.2 0
44.8 2.2 0
45.2 2.2 0
45.6 2.2 0
46 2.2 0
46.4 2.2 0
46.8 2.2 0
47.2 2.2 0
47.6 2.2 0
48 2.2 0
48.4 2.2 0
48.8 2.2 0
49.2 2.2 0
49.6 2.2 0
50 2.2 0
10 2.8 0
10.4 2.8 0
10.8 2.8 0
11.2 2.8 0
11.6 2.8 0
12 2.8 0
12.4 2.8 0
12.8 2.8 0
13.2 2.8 0
13.6 2.8 0
14 2.8 0
14.4 2.8 0
14.8 2.8 0
15.2 2.8 0
15.6 2.8 0
16 2.8 0
16.4 2.8 0
16.8 2.8 0
17.2 2.8 0
17.6 2.8 0
18 2.8 0
18.4 2.8 0
18.8 2.8 0
19.2 2.8 0
19.6 2.8 0
20 2.8 0
20.4 2.8 0
20.8 2.8 0
21.2 2.8 0
21.6 2.8 0
22 2.8 0
22.4 2.8 0
22.8 2.8 0
23.2 2.8 0
23.6 2.8 0
24 2.8 0
24.4 2.8 0
24.8 2.8 0
25.2 2.8 0
25.6 2.8 0
26 2.8 0
26.4 2.8 0
26.8 2.8 0
27.2 2.8 0
27.6 2.8 0
28 2.8 0
28.4 2.8 0
28.8 2.8 0
29.2 2.8 0
29.6 2.8 0
30 2.8 0
30.4 2.8 0
30.8 2.8 0
31.2 2.8 0
31.6 2.8 0
32 2.8 0
32.4 2.8 0
32.8 2.8 0
33.2 2.8 0
33.6 2.8 0
34 2.8 0
34.4 2.8 0
34.8 2.8 0
35.2 2.8 0
35.6 2.8 0
36 2.8 0
36.4 2.8 0
36.8 2.8 0
37.2 2.8 0
37.6 2.8 0
38 2.8 0
38.4 2.8 0
38.8 2.8 0
39.2 2.8 0
39.6 2.8 0
40 2.8 0
40.4 2.8 0
40.8 2.8 0
41.2 2.8 0
41.6 2.8 0
42 2.8 0
42.4 2.8 0
42.8 2.8 0
43.2 2.8 0
43.6 2.8 0
44 2.8 0
44.4 2.8 0
44.8 2.8 0
45.2 2.8 0
45.6 2.8 0
46 2.8 0
46.4 2.8 0
46.8 2.8 0
47.2 2.8 0
47.6 2.8 0
48 2.8 0
48.4 2.8 0
48.8 2.8 0
49.2 2.8 0
49.6 2.8 0
50 2.8 0
10 3.4 0
10.4 3.4 0
10.8 3.4 0
11.2 3.4 0
11.6 3.4 0
12 3.4 0
12.4 3.4 0
12.8 3.4 0
13.2 3.4 0
13.6 3.4 0
14 3.4 0
14.4 3.4 0
14.8 3.4 0
15.2 3.4 0
15.6 3.4 0
16 3.4 0
16.4 3.4 0
16.8 3.4 0
17.2 3.4 0
17.6 3.4 0
18 3.4 0
18.4 3.4 0
18.8 3.4 0
19.2 3.4 0
19.6 3.4 0
20 3.4 0
20.4 3.4 0
20.8 3.4 0
21.2 3.4 0
21.6 3.4 0
22 3.4 0
22.4 3.4 0
22.8 3.4 0
23.2 3.4 0
23.6 3.4 0
24 3.4 0
24.4 3.4 0
24.8 3.4 0
25.2 3.4 0
25.6 3.4 0
26 3.4 0
26.4 3.4 0
26.8 3.4 0
27.2 3.4 0
27.6 3.4 0
28 3.4 0
28.4 3.4 0
28.8 3.4 0
29.2 3.4 0
29.6 3.4 0
30 3.4 0
30.4 3.4 0
30.8 3.4 0
31.2 3.4 0
31.6 3.4 0
32 3.4 0
32.4 3.4 0
32.8 3.4 0
33.2 3.4 0
33.6 3.4 0
34 3.4 0
34.4 3.4 0
34.8 3.4 0
35.2 3.4 0
35.6 3.4 0
36 3.4 0
36.4 3.4 0
36.8 3.4 0
37.2 3.4 0
37.6 3.4 0
38 3.4 0
38.4 3.4 0
38.8 3.4 0
39.2 3.4 0
39.6 3.4 0
40 3.4 0
40.4 3.4 0
40.8 3.4 0
41.2 3.4 0
41.6 3.4 0
42 3.4 0
42.4 3.4 0
42.8 3.4 0
43.2 3.4 0
43.6 3.4 0
44 3.4 0
44.4 3.4 0
44.8 3.4 0
45.2 3.4 0
45.6 3.4 0
46 3.4 0
46.4 3.4 0
46.8 3.4 0
47.2 3.4 0
47.6 3.4 0
48 3.4 0
48.4 3.4 0
48.8 3.4 0
49.2 3.4 0
49.6 3.4 0
50 3.4 0
10 4 0
10.4 4 0
10.8 4 0
11.2 4 0
11.6 4 0
12 4 0
12.4 4 0
12.8 4 0
13.2 4 0
13.6 4 0
14 4 0
14.4 4 0
14.8 4 0
15.2 4 0
15.6 4 0
16 4 0
16.4 4 0
16.8 4 0
17.2 4 0
17.6 4 0
18 4 0
18.4 4 0
18.8 4 0
19.2 4 0
19.6 4 0
20 4 0
20.4 4 0
20.8 4 0
21.2 4 0
21.6 4 0
22 4 0
22.4 4 0
22.8 4 0
23.2 4 0
23.6 4 0
24 4 0
24.4 4 0
24.8 4 0
25.2 4 0
25.6 4 0
26 4 0
26.4 4 0
26.8 4 0
27.2 4 0
27.6 4 0
28 4 0
28.4 4 0
28.8 4 0
29.2 4 0
29.6 4 0
30 4 0
30.4 4 0
30.8 4 0
31.2 4 0
31.6 4 0
32 4 0
32.4 4 0
32.8 4 0
33.2 4 0
33.6 4 0
34 4 0
34.4 4 0
34.8 4 0
35.2 4 0
35.6 4 0
36 4 0
36.4 4 0
36.8 4 0
37.2 4 0
37.6 4 0
38 4 0
38.4 4 0
38.8 4 0
39.2 4 0
39.6 4 0
40 4 0
40.4 4 0
40.8 4 0
41.2 4 0
41.6 4 0
42 4 0
42.4 4 0
42.8 4 0
43.2 4 0
43.6 4 0
44 4 0
44.4 4 0
44.8 4 0
45.2 4 0
45.6 4 0
46 4 0
46.4 4 0
46.8 4 0
47.2 4 0
47.6 4 0
48 4 0
48.4 4 0
48.8 4 0
49.2 4 0
49.6 4 0
50 4 0

CELLS 2200 11000
4 0 1 22 21 
4 1 2 23 22 
4 2 3 24 23 
4 3 4 25 24 
4 4 5 26 25 
4 5 6 27 26 
4 6 7 28 27 
4 7 8 29 28 
4 8 9 30 29 
4 9 10 31 30 
4 10 11 32 31 
4 11 12 33 32 
4 12 13 34 33 
4 13 14 35 34 
4 14 15 36 35 
4 15 16 37 36 
4 16 17 38 37 
4 17 18 39 38 
4 18 19 40 39 
4 19 20 41 40 
4 21 22 43 42 
4 22 23 44 43 
4 23 24 45 44 
4 24 25 46 45 
4 25 26 47 46 
4 26 27 48 47 
4 27 28 49 48 
4 28 29 50 49 
4 29 30 51 50 
4 30 31 52 51 
4 31 32 53 52 
4 32 33 54 53 
4 33 34 55 54 
4 34 35 56 55 
4 35 36 57 56 
4 36 37 58 57 
4 37 38 59 58 
4 38 39 60 59 
4 39 40 61 60 
4 40 41 62 61 
4 42 43 64 63 
4 43 44 65 64 
4 44 45 66 65 
4 45 46 67 66 
4 46 47 68 67 
4 47 48 69 68 
4 48 49 70 69 
4 49 50 71 70 
4 50 51 72 71 
4 51 52 73 72 
4 52 53 74 73 
4 53 54 75 74 
4 54 55 76 75 
4 55 56 77 76 
4 56 57 78 77 
4 57 58 79 78 
4 58 59 80 79 
4 59 60 81 80 
4 60 61 82 81 
4 61 62 83 82 
4 63 64 85 84 
4 64 65 86 85 
4 65 66 87 86 
4 66 67 88 87 
4 67 68 89 88 
4 68 69 90 89 
4 69 70 91 90 
4 70 71 92 91 
4 71 72 93 92 
4 72 73 94 93 
4 73 74 95 94 
4 74 75 96 95 
4 75 76 97 96 
4 76 77 98 97 
4 77 78 99 98 
4 78 79 100 99 
4 79 80 101 100 
4 80 81 102 101 
4 81 82 103 102 
4 82 83 104 103 
4 84 85 106 105 
4 85 86 107 106 
4 86 87 108 107 
4 87 88 109 108 
4 88 89 110 109 
4 89 90 111 110 
4 90 91 112 111 
4 91 92 113 112 
4 92 93 114 113 
4 93 94 115 114 
4 94 95 116 115 
4 95 96 117 116 
4 96 97 118 117 
4 97 98 119 118 
4 98 99 120 119 
4 99 100 121 120 
4 100 101 122 121 
4 101 102 123 122 
4 102 103 124 123 
4 103 104 125 124 
4 105 106 127 126 
4 106 107 128 127 
4 107 108 129 128 
4 108 109 130 129 
4 109 110 131 130 
4 110 111 132 131 
4 111 112 133 132 
4 112 113 134 133 
4 113 114 135 134 
4 114 115 136 135 
4 115 116 137 136 
4 116 117 138 137 
4 117 118 139 138 
4 118 119 140 139 
4 119 120 141 140 
4 120 121 142 141 
4 121 122 143 142 
4 122 123 144 143 
4 123 124 145 144 
4 124 125 146 145 
4 126 127 148 147 
4 127 128 149 148 
4 128 129 150 149 
4 129 130 151 150 
4 130 131 152 151 
4 131 132 153 152 
4 132 133 154 153 
4 133 134 155 154 
4 134 135 156 155 
4 135 136 157 156 
4 136 137 158 157 
4 137 138 159 158 
4 138 139 160 159 
4 139 140 161 160 
4 140 141 162 161 
4 141 142 163 162 
4 142 143 164 163 
4 143 144 165 164 
4 144 145 166 165 
4 145 146 167 166 
4 147 148 169 168 
4 148 149 170 169 
4 149 150 171 170 
4 150 151 172 171 
4 151 152 173 172 
4 152 153 174 173 
4 153 154 175 174 
4 154 155 176 175 
4 155 156 177 176 
4 156 157 178 177 
4 157 158 179 178 
4 158 159 180 179 
4 159 160 181 180 
4 160 161 182 181 
4 161 162 183 182 
4 162 163 184 183 
4 163 164 185 184 
4 164 165 186 185 
4 165 166 187 186 
4 166 167 188 187 
4 168 169 190 189 
4 169 170 191 190 
4 170 171 192 191 
4 171 172 193 192 
4 172 173 194 193 
4 173 174 195 194 
4 174 175 196 195 
4 175 176 197 196 
4 176 177 198 197 
4 177 178 199 198 
4 178 179 200 199 
4 179 180 201 200 
4 180 181 202 201 
4 181 182 203 202 
4 182 183 204 203 
4 183 184 205 204 
4 184 185 206 205 
4 185 186 207 206 
4 186 187 208 207 
4 187 188 209 208 
4 189 190 211 210 
4 190 191 212 211 
4 191 192 213 212 
4 192 193 214 213 
4 193 194 215 214 
4 194 195 216 215 
4 195 196 217 216 
4 196 197 218 217 
4 197 198 219 218 
4 198 199 220 219 
4 199 200 221 220 
4 200 201 222 221 
4 201 202 223 222 
4 202 203 224 223 
4 203 204 225 224 
4 204 205 226 225 
4 205 206 227 226 
4 206 207 228 227 
4 207 208 229 228 
4 208 209 230 229 
4 231 232 333 332 
4 232 233 334 333 
4 233 234 335 334 
4 234 235 336 335 
4 235 236 337 336 
4 236 237 338 337 
4 237 238 339 338 
4 238 239 340 339 
4 239 240 341 340 
4 240 241 342 341 
4 241 242 343 342 
4 242 243 344 343 
4 243 244 345 344 
4 244 245 346 345 
4 245 246 347 346 
4 246 247 348 347 
4 247 248 349 348 
4 248 249 350 349 
4 249 250 351 350 
4 250 251 352 351 
4 251 252 353 352 
4 252 253 354 353 
4 253 254 355 354 
4 254 255 356 355 
4 255 256 357 356 
4 256 257 358 357 
4 257 258 359 358 
4 258 259 360 359 
4 259 260 361 360 
4 260 261 362 361 
4 261 262 363 362 
4 262 263 364 363 
4 263 264 365 364 
4 264 265 366 365 
4 265 266 367 366 
4 266 267 368 367 
4 267 268 369 368 
4 268 269 370 369 
4 269 270 371 370 
4 270 271 372 371 
4 271 272 373 372 
4 272 273 374 373 
4 273 274 375 374 
4 274 275 376 375 
4 275 276 377 376 
4 276 277 378 377 
4 277 278 379 378 
4 278 279 380 379 
4 279 280 381 380 
4 280 281 382 381 
4 281 282 383 382 
4 282 283 384 383 
4 283 284 385 384 
4 284 285 386 385 
4 285 286 387 386 
4 286 287 388 387 
4 287 288 389 388 
4 288 289 390 389 
4 289 290 391 390 
4 290 291 392 391 
4 291 292 393 392 
4 292 293 394 393 
4 293 294 395 394 
4 294 295 396 395 
4 295 296 397 396 
4 296 297 398 397 
4 297 298 399 398 
4 298 299 400 399 
4 299 300 401 400 
4 300 301 402 401 
4 301 302 403 402 
4 302 303 404 403 
4 303 304 405 404 
4 304 305 406 405 
4 305 306 407 406 
4 306 307 408 407 
4 307 308 409 408 
4 308 309 410 409 
4 309 310 411 410 
4 310 311 412 411 
4 311 312 413 412 
4 312 313 414 413 
4 313 314 415 414 
4 314 315 416 415 
4 315 316 417 416 
4 316 317 418 417 
4 317 318 419 418 
4 318 319 420 419 
4 319 320 421 420 
4 320 321 422 421 
4 321 322 423 422 
4 322 323 424 423 
4 323 324 425 424 
4 324 325 426 425 
4 325 326 427 426 
4 326 327 428 427 
4 327 328 429 428 
4 328 329 430 429 
4 329 330 431 430 
4 330 331 432 431 
4 332 333 434 433 
4 333 334 435 434 
4 334 335 436 435 
4 335 336 437 436 
4 336 337 438 437 
4 337 338 439 438 
4 338 339 440 439 
4 339 340 441 440 
4 340 341 442 441 
4 341 342 443 442 
4 342 343 444 443 
4 343 344 445 444 
4 344 345 446 445 
4 345 346 447 446 
4 346 347 448 447 
4 347 348 449 448 
4 348 349 450 449 
4 349 350 451 450 
4 350 351 452 451 
4 351 352 453 452 
4 352 353 454 453 
4 353 354 455 454 
4 354 355 456 455 
4 355 356 457 456 
4 356 357 458 457 
4 357 358 459 458 
4 358 359 460 459 
4 359 360 461 460 
4 360 361 462 461 
4 361 362 463 462 
4 362 363 464 463 
4 363 364 465 464 
4 364 365 466 465 
4 365 366 467 466 
4 366 367 468 467 
4 367 368 469 468 
4 368 369 470 469 
4 369 370 471 470 
4 370 371 472 471 
4 371 372 473 472 
4 372 373 474 473 
4 373 374 475 474 
4 374 375 476 475 
4 375 376 477 476 
4 376 377 478 477 
4 377 378 479 478 
4 378 379 480 479 
4 379 380 481 480 
4 380 381 482 481 
4 381 382 483 482 
4 382 383 484 483 
4 383 384 485 484 
4 384 385 486 485 
4 385 386 487 486 
4 386 387 488 487 
4 387 388 489 488 
4 388 389 490 489 
4 389 390 491 490 
4 390 391 492 491 
4 391 392 493 492 
4 392 393 494 493 
4 393 394 495 494 
4 394 395 496 495 
4 395 396 497 496 
4 396 397 498 497 
4 397 398 499 498 
4 398 399 500 499 
4 399 400 501 500 
4 400 401 502 501 
4 401 402 503 502 
4 402 403 504 503 
4 403 404 505 504 
4 404 405 506 505 
4 405 406 507 506 
4 406 407 508 507 
4 407 408 509 508 
4 408 409 510 509 
4 409 410 511 510 
4 410 411 512 511 
4 411 412 513 512 
4 412 413 514 513 
4 413 414 515 514 
4 414 415 516 515 
4 415 416 517 516 
4 416 417 518 517 
4 417 418 519 518 
4 418 419 520 519 
4 419 420 521 520 
4 420 421 522 521 
4 421 422 523 522 
4 422 423 524 523 
4 423 424 525 524 
4 424 425 526 525 
4 425 426 527 526 
4 426 427 528 527 
4 427 428 529 528 
4 428 429 530 529 
4 429 430 531 530 
4 430 431 532 531 
4 431 432 533 532 
4 433 434 535 534 
4 434 435 536 535 
4 435 436 537 536 
4 436 437 538 537 
4 437 438 539 538 
4 438 439 540 539 
4 439 440 541 540 
4 440 441 542 541 
4 441 442 543 542 
4 442 443 544 543 
4 443 444 545 544 
4 444 445 546 545 
4 445 446 547 546 
4 446 447 548 547 
4 447 448 549 548 
4 448 449 550 549 
4 449 450 551 550 
4 450 451 552 551 
4 451 452 553 552 
4 452 453 554 553 
4 453 454 555 554 
4 454 455 556 555 
4 455 456 557 556 
4 456 457 558 557 
4 457 458 559 558 
4 458 459 560 559 
4 459 460 561 560 
4 460 461 562 561 
4 461 462 563 562 
4 462 463 564 563 
4 463 464 565 564 
4 464 465 566 565 
4 465 466 567 566 
4 466 467 568 567 
4 467 468 569 568 
4 468 469 570 569 
4 469 470 571 570 
4 470 471 572 571 
4 471 472 573 572 
4 472 473 574 573 
4 473 474 575 574 
4 474 475 576 575 
4 475 476 577 576 
4 476 477 578 577 
4 477 478 579 578 
4 478 479 580 579 
4 479 480 581 580 
4 480 481 582 581 
4 481 482 583 582 
4 482 483 584 583 
4 483 484 585 584 
4 484 485 586 585 
4 485 486 587 586 
4 486 487 588 587 
4 487 488 589 588 
4 488 489 590 589 
4 489 490 591 590 
4 490 491 592 591 
4 491 492 593 592 
4 492 493 594 593 
4 493 494 595 594 
4 494 495 596 595 
4 495 496 597 596 
4 496 497 598 597 
4 497 498 599 598 
4 498 499 600 599 
4 499 500 601 600 
4 500 501 602 601 
4 501 502 603 602 
4 502 503 604 603 
4 503 504 605 604 
4 504 505 606 605 
4 505 506 607 606 
4 506 507 608 607 
4 507 508 609 608 
4 508 509 610 609 
4 509 510 611 610 
4 510 511 612 611 
4 511 512 613 612 
4 512 513 614 613 
4 513 514 615 614 
4 514 515 616 615 
4 515 516 617 616 
4 516 517 618 617 
4 517 518 619 618 
4 518 519 620 619 
4 519 520 621 620 
4 520 521 622 621 
4 521 522 623 622 
4 522 523 624 623 
4 523 524 625 624 
4 524 525 626 625 
4 525 526 627 626 
4 526 527 628 627 
4 527 528 629 628 
4 528 529 630 629 
4 529 530 631 630 
4 530 531 632 631 
4 531 532 633 632 
4 532 533 634 633 
4 534 535 636 635 
4 535 536 637 636 
4 536 537 638 637 
4 537 538 639 638 
4 538 539 640 639 
4 539 540 641 640 
4 540 541 642 641 
4 541 542 643 642 
4 542 543 644 643 
4 543 544 645 644 
4 544 545 646 645 
4 545 546 647 646 
4 546 547 648 647 
4 547 548 649 648 
4 548 549 650 649 
4 549 550 651 650 
4 550 551 652 651 
4 551 552 653 652 
4 552 553 654 653 
4 553 554 655 654 
4 554 555 656 655 
4 555 556 657 656 
4 556 557 658 657 
4 557 558 659 658 
4 558 559 660 659 
4 559 560 661 660 
4 560 561 662 661 
4 561 562 663 662 
4 562 563 664 663 
4 563 564 665 664 
4 564 565 666 665 
4 565 566 667 666 
4 566 567 668 667 
4 567 568 669 668 
4 568 569 670 669 
4 569 570 671 670 
4 570 571 672 671 
4 571 572 673 672 
4 572 573 674 673 
4 573 574 675 674 
4 574 575 676 675 
4 575 576 677 676 
4 576 577 678 677 
4 577 578 679 678 
4 578 579 680 679 
4 579 580 681 680 
4 580 581 682 681 
4 581 582 683 682 
4 582 583 684 683 
4 583 584 685 684 
4 584 585 686 685 
4 585 586 687 686 
4 586 587 688 687 
4 587 588 689 688 
4 588 589 690 689 
4 589 590 691 690 
4 590 591 692 691 
4 591 592 693 692 
4 592 593 694 693 
4 593 594 695 694 
4 594 595 696 695 
4 595 596 697 696 
4 596 597 698 697 
4 597 598 699 698 
4 598 599 700 699 
4 599 600 701 700 
4 600 601 702 701 
4 601 602 703 702 
4 602 603 704 703 
4 603 604 705 704 
4 604 605 706 705 
4 605 606 707 706 
4 606 607 708 707 
4 607 608 709 708 
4 608 609 710 709 
4 609 610 711 710 
4 610 611 712 711 
4 611 612 713 712 
4 612 613 714 713 
4 613 614 715 714 
4 614 615 716 715 
4 615 616 717 716 
4 616 617 718 717 
4 617 618 719 718 
4 618 619 720 719 
4 619 620 721 720 
4 620 621 722 721 
4 621 622 723 722 
4 622 623 724 723 
4 623 624 725 724 
4 624 625 726 725 
4 625 626 727 726 
4 626 627 728 727 
4 627 628 729 728 
4 628 629 730 729 
4 629 630 731 730 
4 630 631 732 731 
4 631 632 733 732 
4 632 633 734 733 
4 633 634 735 734 
4 635 636 737 736 
4 636 637 738 737 
4 637 638 739 738 
4 638 639 740 739 
4 639 640 741 740 
4 640 641 742 741 
4 641 642 743 742 
4 642 643 744 743 
4 643 644 745 744 
4 644 645 746 745 
4 645 646 747 746 
4 646 647 748 747 
4 647 648 749 748 
4 648 649 750 749 
4 649 650 751 750 
4 650 651 752 751 
4 651 652 753 752 
4 652 653 754 753 
4 653 654 755 754 
4 654 655 756 755 
4 655 656 757 756 
4 656 657 758 757 
4 657 658 759 758 
4 658 659 760 759 
4 659 660 761 760 
4 660 661 762 761 
4 661 662 763 762 
4 662 663 764 763 
4 663 664 765 764 
4 664 665 766 765 
4 665 666 767 766 
4 666 667 768 767 
4 667 668 769 768 
4 668 669 770 769 
4 669 670 771 770 
4 670 671 772 771 
4 671 672 773 772 
4 672 673 774 773 
4 673 674 775 774 
4 674 675 776 775 
4 675 676 777 776 
4 676 677 778 777 
4 677 678 779 778 
4 678 679 780 779 
4 679 680 781 780 
4 680 681 782 781 
4 681 682 783 782 
4 682 683 784 783 
4 683 684 785 784 
4 684 685 786 785 
4 685 686 787 786 
4 686 687 788 787 
4 687 688 789 788 
4 688 689 790 789 
4 689 690 791 790 
4 690 691 792 791 
4 691 692 793 792 
4 692 693 794 793 
4 693 694 795 794 
4 694 695 796 795 
4 695 696 797 796 
4 696 697 798 797 
4 697 698 799 798 
4 698 699 800 799 
4 699 700 801 800 
4 700 701 802 801 
4 701 702 803 802 
4 702 703 804 803 
4 703 704 805 804 
4 704 705 806 805 
4 705 706 807 806 
4 706 707 808 807 
4 707 708 809 808 
4 708 709 810 809 
4 709 710 811 810 
4 710 711 812 811 
4 711 712 813 812 
4 712 713 814 813 
4 713 714 815 814 
4 714 715 816 815 
4 715 716 817 816 
4 716 717 818 817 
4 717 718 819 818 
4 718 719 820 819 
4 719 720 821 820 
4 720 721 822 821 
4 721 722 823 822 
4 722 723 824 823 
4 723 724 825 824 
4 724 725 826 825 
4 725 726 827 826 
4 726 727 828 827 
4 727 728 829 828 
4 728 729 830 829 
4 729 730 831 830 
4 730 731 832 831 
4 731 732 833 832 
4 732 733 834 833 
4 733 734 835 834 
4 734 735 836 835 
4 736 737 838 837 
4 737 738 839 838 
4 738 739 840 839 
4 739 740 841 840 
4 740 741 842 841 
4 741 742 843 842 
4 742 743 844 843 
4 743 744 845 844 
4 744 745 846 845 
4 745 746 847 846 
4 746 747 848 847 
4 747 748 849 848 
4 748 749 850 849 
4 749 750 851 850 
4 750 751 852 851 
4 751 752 853 852 
4 752 753 854 853 
4 753 754 855 854 
4 754 755 856 855 
4 755 756 857 856 
4 756 757 858 857 
4 757 758 859 858 
4 758 759 860 859 
4 759 760 861 860 
4 760 761 862 861 
4 761 762 863 862 
4 762 763 864 863 
4 763 764 865 864 
4 764 765 866 865 
4 765 766 867 866 
4 766 767 868 867 
4 767 768 869 868 
4 768 769 870 869 
4 769 770 871 870 
4 770 771 872 871 
4 771 772 873 872 
4 772 773 874 873 
4 773 774 875 874 
4 774 775 876 875 
4 775 776 877 876 
4 776 777 878 877 
4 777 778 879 878 
4 778 779 880 879 
4 779 780 881 880 
4 780 781 882 881 
4 781 782 883 882 
4 782 783 884 883 
4 783 784 885 884 
4 784 785 886 885 
4 785 786 887 886 
4 786 787 888 887 
4 787 788 889 888 
4 788 789 890 889 
4 789 790 891 890 
4 790 791 892 891 
4 791 792 893 892 
4 792 793 894 893 
4 793 794 895 894 
4 794 795 896 895 
4 795 796 897 896 
4 796 797 898 897 
4 797 798 899 898 
4 798 799 900 899 
4 799 800 901 900 
4 800 801 902 901 
4 801 802 903 902 
4 802 803 904 903 
4 803 804 905 904 
4 804 805 906 905 
4 805 806 907 906 
4 806 807 908 907 
4 807 808 909 908 
4 808 809 910 909 
4 809 810 911 910 
4 810 811 912 911 
4 811 812 913 912 
4 812 813 914 913 
4 813 814 915 914 
4 814 815 916 915 
4 815 816 917 916 
4 816 817 918 917 
4 817 818 919 918 
4 818 819 920 919 
4 819 820 921 920 
4 820 821 922 921 
4 821 822 923 922 
4 822 823 924 923 
4 823 824 925 924 
4 824 825 926 925 
4 825 826 927 926 
4 826 827 928 927 
4 827 828 929 928 
4 828 829 930 929 
4 829 830 931 930 
4 830 831 932 931 
4 831 832 933 932 
4 832 833 934 933 
4 833 834 935 934 
4 834 835 936 935 
4 835 836 937 936 
4 837 838 939 938 
4 838 839 940 939 
4 839 840 941 940 
4 840 841 942 941 
4 841 842 943 942 
4 842 843 944 943 
4 843 844 945 944 
4 844 845 946 945 
4 845 846 947 946 
4 846 847 948 947 
4 847 848 949 948 
4 848 849 950 949 
4 849 850 951 950 
4 850 851 952 951 
4 851 852 953 952 
4 852 853 954 953 
4 853 854 955 954 
4 854 855 956 955 
4 855 856 957 956 
4 856 857 958 957 
4 857 858 959 958 
4 858 859 960 959 
4 859 860 961 960 
4 860 861 962 961 
4 861 862 963 962 
4 862 863 964 963 
4 863 864 965 964 
4 864 865 966 965 
4 865 866 967 966 
4 866 867 968 967 
4 867 868 969 968 
4 868 869 970 969 
4 869 870 971 970 
4 870 871 972 971 
4 871 872 973 972 
4 872 873 974 973 
4 873 874 975 974 
4 874 875 976 975 
4 875 876 977 976 
4 876 877 978 977 
4 877 878 979 978 
4 878 879 980 979 
4 879 880 981 980 
4 880 881 982 981 
4 881 882 983 982 
4 882 883 984 983 
4 883 884 985 984 
4 884 885 986 985 
4 885 886 987 986 
4 886 887 988 987 
4 887 888 989 988 
4 888 889 990 989 
4 889 890 991 990 
4 890 891 992 991 
4 891 892 993 992 
4 892 893 994 993 
4 893 894 995 994 
4 894 895 996 995 
4 895 896 997 996 
4 896 897 998 997 
4 897 898 999 998 
4 898 899 1000 999 
4 899 900 1001 1000 
4 900 901 1002 1001 
4 901 902 1003 1002 
4 902 903 1004 1003 
4 903 904 1005 1004 
4 904 905 1006 1005 
4 905 906 1007 1006 
4 906 907 1008 1007 
4 907 908 1009 1008 
4 908 909 1010 1009 
4 909 910 1011 1010 
4 910 911 1012 1011 
4 911 912 1013 1012 
4 912 913 1014 1013 
4 913 914 1015 1014 
4 914 915 1016 1015 
4 915 916 1017 1016 
4 916 917 1018 1017 
4 917 918 1019 1018 
4 918 919 1020 1019 
4 919 920 1021 1020 
4 920 921 1022 1021 
4 921 922 1023 1022 
4 922 923 1024 1023 
4 923 924 1025 1024 
4 924 925 1026 1025 
4 925 926 1027 1026 
4 926 927 1028 1027 
4 927 928 1029 1028 
4 928 929 1030 1029 
4 929 930 1031 1030 
4 930 931 1032 1031 
4 931 932 1033 1032 
4 932 933 1034 1033 
4 933 934 1035 1034 
4 934 935 1036 1035 
4 935 936 1037 1036 
4 936 937 1038 1037 
4 938 939 1040 1039 
4 939 940 1041 1040 
4 940 941 1042 1041 
4 941 942 1043 1042 
4 942 943 1044 1043 
4 943 944 1045 1044 
4 944 945 1046 1045 
4 945 946 1047 1046 
4 946 947 1048 1047 
4 947 948 1049 1048 
4 948 949 1050 1049 
4 949 950 1051 1050 
4 950 951 1052 1051 
4 951 952 1053 1052 
4 952 953 1054 1053 
4 953 954 1055 1054 
4 954 955 1056 1055 
4 955 956 1057 1056 
4 956 957 1058 1057 
4 957 958 1059 1058 
4 958 959 1060 1059 
4 959 960 1061 1060 
4 960 961 1062 1061 
4 961 962 1063 1062 
4 962 963 1064 1063 
4 963 964 1065 1064 
4 964 965 1066 1065 
4 965 966 1067 1066 
4 966 967 1068 1067 
4 967 968 1069 1068 
4 968 969 1070 1069 
4 969 970 1071 1070 
4 970 971 1072 1071 
4 971 972 1073 1072 
4 972 973 1074 1073 
4 973 974 1075 1074 
4 974 975 1076 1075 
4 975 976 1077 1076 
4 976 977 1078 1077 
4 977 978 1079 1078 
4 978 979 1080 1079 
4 979 980 1081 1080 
4 980 981 1082 1081 
4 981 982 1083 1082 
4 982 983 1084 1083 
4 983 984 1085 1084 
4 984 985 1086 1085 
4 985 986 1087 1086 
4 986 987 1088 1087 
4 987 988 1089 1088 
4 988 989 1090 1089 
4 989 990 1091 1090 
4 990 991 1092 1091 
4 991 992 1093 1092 
4 992 993 1094 1093 
4 993 994 1095 1094 
4 994 995 1096 1095 
4 995 996 1097 1096 
4 996 997 1098 1097 
4 997 998 1099 1098 
4 998 999 1100 1099 
4 999 1000 1101 1100 
4 1000 1001 1102 1101 
4 1001 1002 1103 1102 
4 1002 1003 1104 1103 
4 1003 1004 1105 1104 
4 1004 1005 1106 1105 
4 1005 1006 1107 1106 
4 1006 1007 1108 1107 
4 1007 1008 1109 1108 
4 1008 1009 1110 1109 
4 1009 1010 1111 1110 
4 1010 1011 1112 1111 
4 1011 1012 1113 1112 
4 1012 1013 1114 1113 
4 1013 1014 1115 1114 
4 1014 1015 1116 1115 
4 1015 1016 1117 1116 
4 1016 1017 1118 1117 
4 1017 1018 1119 1118 
4 1018 1019 1120 1119 
4 1019 1020 1121 1120 
4 1020 1021 1122 1121 
4 1021 1022 1123 1122 
4 1022 1023 1124 1123 
4 1023 1024 1125 1124 
4 1024 1025 1126 1125 
4 1025 1026 1127 1126 
4 1026 1027 1128 1127 
4 1027 1028 1129 1128 
4 1028 1029 1130 1129 
4 1029 1030 1131 1130 
4 1030 1031 1132 1131 
4 1031 1032 1133 1132 
4 1032 1033 1134 1133 
4 1033 1034 1135 1134 
4 1034 1035 1136 1135 
4 1035 1036 1137 1136 
4 1036 1037 1138 1137 
4 1037 1038 1139 1138 
4 1039 1040 1141 1140 
4 1040 1041 1142 1141 
4 1041 1042 1143 1142 
4 1042 1043 1144 1143 
4 1043 1044 1145 1144 
4 1044 1045 1146 1145 
4 1045 1046 1147 1146 
4 1046 1047 1148 1147 
4 1047 1048 1149 1148 
4 1048 1049 1150 1149 
4 1049 1050 1151 1150 
4 1050 1051 1152 1151 
4 1051 1052 1153 1152 
4 1052 1053 1154 1153 
4 1053 1054 1155 1154 
4 1054 1055 1156 1155 
4 1055 1056 1157 1156 
4 1056 1057 1158 1157 
4 1057 1058 1159 1158 
4 1058 1059 1160 1159 
4 1059 1060 1161 1160 
4 1060 1061 1162 1161 
4 1061 1062 1163 1162 
4 1062 1063 1164 1163 
4 1063 1064 1165 1164 
4 1064 1065 1166 1165 
4 1065 1066 1167 1166 
4 1066 1067 1168 1167 
4 1067 1068 1169 1168 
4 1068 1069 1170 1169 
4 1069 1070 1171 1170 
4 1070 1071 1172 1171 
4 1071 1072 1173 1172 
4 1072 1073 1174 1173 
4 1073 1074 1175 1174 
4 1074 1075 1176 1175 
4 1075 1076 1177 1176 
4 1076 1077 1178 1177 
4 1077 1078 1179 1178 
4 1078 1079 1180 1179 
4 1079 1080 1181 1180 
4 1080 1081 1182 1181 
4 1081 1082 1183 1182 
4 1082 1083 1184 1183 
4 1083 1084 1185 1184 
4 1084 1085 1186 1185 
4 1085 1086 1187 1186 
4 1086 1087 1188 1187 
4 1087 1088 1189 1188 
4 1088 1089 1190 1189 
4 1089 1090 1191 1190 
4 1090 1091 1192 1191 
4 1091 1092 1193 1192 
4 1092 1093 1194 1193 
4 1093 1094 1195 1194 
4 1094 1095 1196 1195 
4 1095 1096 1197 1196 
4 1096 1097 1198 1197 
4 1097 1098 1199 1198 
4 1098 1099 1200 1199 
4 1099 1100 1201 1200 
4 1100 1101 1202 1201 
4 1101 1102 1203 1202 
4 1102 1103 1204 1203 
4 1103 1104 1205 1204 
4 1104 1105 1206 1205 
4 1105 1106 1207 1206 
4 1106 1107 1208 1207 
4 1107 1108 1209 1208 
4 1108 1109 1210 1209 
4 1109 1110 1211 1210 
4 1110 1111 1212 1211 
4 1111 1112 1213 1212 
4 1112 1113 1214 1213 
4 1113 1114 1215 1214 
4 1114 1115 1216 1215 
4 1115 1116 1217 1216 
4 1116 1117 1218 1217 
4 1117 1118 1219 1218 
4 1118 1119 1220 1219 
4 1119 1120 1221 1220 
4 1120 1121 1222 1221 
4 1121 1122 1223 1222 
4 1122 1123 1224 1223 
4 1123 1124 1225 1224 
4 1124 1125 1226 1225 
4 1125 1126 1227 1226 
4 1126 1127 1228 1227 
4 1127 1128 1229 1228 
4 1128 1129 1230 1229 
4 1129 1130 1231 1230 
4 1130 1131 1232 1231 
4 1131 1132 1233 1232 
4 1132 1133 1234 1233 
4 1133 1134 1235 1234 
4 1134 1135 1236 1235 
4 1135 1136 1237 1236 
4 1136 1137 1238 1237 
4 1137 1138 1239 1238 
4 1138 1139 1240 1239 
4 1140 1141 1242 1241 
4 1141 1142 1243 1242 
4 1142 1143 1244 1243 
4 1143 1144 1245 1244 
4 1144 1145 1246 1245 
4 1145 1146 1247 1246 
4 1146 1147 1248 1247 
4 1147 1148 1249 1248 
4 1148 1149 1250 1249 
4 1149 1150 1251 1250 
4 1150 1151 1252 1251 
4 1151 1152 1253 1252 
4 1152 1153 1254 1253 
4 1153 1154 1255 1254 
4 1154 1155 1256 1255 
4 1155 1156 1257 1256 
4 1156 1157 1258 1257 
4 1157 1158 1259 1258 
4 1158 1159 1260 1259 
4 1159 1160 1261 1260 
4 1160 1161 1262 1261 
4 1161 1162 1263 1262 
4 1162 1163 1264 1263 
4 1163 1164 1265 1264 
4 1164 1165 1266 1265 
4 1165 1166 1267 1266 
4 1166 1167 1268 1267 
4 1167 1168 1269 1268 
4 1168 1169 1270 1269 
4 1169 1170 1271 1270 
4 1170 1171 1272 1271 
4 1171 1172 1273 1272 
4 1172 1173 1274 1273 
4 1173 1174 1275 1274 
4 1174 1175 1276 1275 
4 1175 1176 1277 1276 
4 1176 1177 1278 1277 
4 1177 1178 1279 1278 
4 1178 1179 1280 1279 
4 1179 1180 1281 1280 
4 1180 1181 1282 1281 
4 1181 1182 1283 1282 
4 1182 1183 1284 1283 
4 1183 1184 1285 1284 
4 1184 1185 1286 1285 
4 1185 1186 1287 1286 
4 1186 1187 1288 1287 
4 1187 1188 1289 1288 
4 1188 1189 1290 1289 
4 1189 1190 1291 1290 
4 1190 1191 1292 1291 
4 1191 1192 1293 1292 
4 1192 1193 1294 1293 
4 1193 1194 1295 1294 
4 1194 1195 1296 1295 
4 1195 1196 1297 1296 
4 1196 1197 1298 1297 
4 1197 1198 1299 1298 
4 1198 1199 1300 1299 
4 1199 1200 1301 1300 
4 1200 1201 1302 1301 
4 1201 1202 1303 1302 
4 1202 1203 1304 1303 
4 1203 1204 1305 1304 
4 1204 1205 1306 1305 
4 1205 1206 1307 1306 
4 1206 1207 1308 1307 
4 1207 1208 1309 1308 
4 1208 1209 1310 1309 
4 1209 1210 1311 1310 
4 1210 1211 1312 1311 
4 1211 1212 1313 1312 
4 1212 1213 1314 1313 
4 1213 1214 1315 1314 
4 1214 1215 1316 1315 
4 1215 1216 1317 1316 
4 1216 1217 1318 1317 
4 1217 1218 1319 1318 
4 1218 1219 1320 1319 
4 1219 1220 1321 1320 
4 1220 1221 1322 1321 
4 1221 1222 1323 1322 
4 1222 1223 1324 1323 
4 1223 1224 1325 1324 
4 1224 1225 1326 1325 
4 1225 1226 1327 1326 
4 1226 1227 1328 1327 
4 1227 1228 1329 1328 
4 1228 1229 1330 1329 
4 1229 1230 1331 1330 
4 1230 1231 1332 1331 
4 1231 1232 1333 1332 
4 1232 1233 1334 1333 
4 1233 1234 1335 1334 
4 1234 1235 1336 1335 
4 1235 1236 1337 1336 
4 1236 1237 1338 1337 
4 1237 1238 1339 1338 
4 1238 1239 1340 1339 
4 1239 1240 1341 1340 
4 1342 1343 1444 1443 
4 1343 1344 1445 1444 
4 1344 1345 1446 1445 
4 1345 1346 1447 1446 
4 1346 1347 1448 1447 
4 1347 1348 1449 1448 
4 1348 1349 1450 1449 
4 1349 1350 1451 1450 
4 1350 1351 1452 1451 
4 1351 1352 1453 1452 
4 1352 1353 1454 1453 
4 1353 1354 1455 1454 
4 1354 1355 1456 1455 
4 1355 1356 1457 1456 
4 1356 1357 1458 1457 
4 1357 1358 1459 1458 
4 1358 1359 1460 1459 
4 1359 1360 1461 1460 
4 1360 1361 1462 1461 
4 1361 1362 1463 1462 
4 1362 1363 1464 1463 
4 1363 1364 1465 1464 
4 1364 1365 1466 1465 
4 1365 1366 1467 1466 
4 1366 1367 1468 1467 
4 1367 1368 1469 1468 
4 1368 1369 1470 1469 
4 1369 1370 1471 1470 
4 1370 1371 1472 1471 
4 1371 1372 1473 1472 
4 1372 1373 1474 1473 
4 1373 1374 1475 1474 
4 1374 1375 1476 1475 
4 1375 1376 1477 1476 
4 1376 1377 1478 1477 
4 1377 1378 1479 1478 
4 1378 1379 1480 1479 
4 1379 1380 1481 1480 
4 1380 1381 1482 1481 
4 1381 1382 1483 1482 
4 1382 1383 1484 1483 
4 1383 1384 1485 1484 
4 1384 1385 1486 1485 
4 1385 1386 1487 1486 
4 1386 1387 1488 1487 
4 1387 1388 1489 1488 
4 1388 1389 1490 1489 
4 1389 1390 1491 1490 
4 1390 1391 1492 1491 
4 1391 1392 1493 1492 
4 1392 1393 1494 1493 
4 1393 1394 1495 1494 
4 1394 1395 1496 1495 
4 1395 1396 1497 1496 
4 1396 1397 1498 1497 
4 1397 1398 1499 1498 
4 1398 1399 1500 1499 
4 1399 1400 1501 1500 
4 1400 1401 1502 1501 
4 1401 1402 1503 1502 
4 1402 1403 1504 1503 
4 1403 1404 1505 1504 
4 1404 1405 1506 1505 
4 1405 1406 1507 1506 
4 1406 1407 1508 1507 
4 1407 1408 1509 1508 
4 1408 1409 1510 1509 
4 1409 1410 1511 1510 
4 1410 1411 1512 1511 
4 1411 1412 1513 1512 
4 1412 1413 1514 1513 
4 1413 1414 1515 1514 
4 1414 1415 1516 1515 
4 1415 1416 1517 1516 
4 1416 1417 1518 1517 
4 1417 1418 1519 1518 
4 1418 1419 1520 1519 
4 1419 1420 1521 1520 
4 1420 1421 1522 1521 
4 1421 1422 1523 1522 
4 1422 1423 1524 1523 
4 1423 1424 1525 1524 
4 1424 1425 1526 1525 
4 1425 1426 1527 1526 
4 1426 1427 1528 1527 
4 1427 1428 1529 1528 
4 1428 1429 1530 1529 
4 1429 1430 1531 1530 
4 1430 1431 1532 1531 
4 1431 1432 1533 1532 
4 1432 1433 1534 1533 
4 1433 1434 1535 1534 
4 1434 1435 1536 1535 
4 1435 1436 1537 1536 
4 1436 1437 1538 1537 
4 1437 1438 1539 1538 
4 1438 1439 1540 1539 
4 1439 1440 1541 1540 
4 1440 1441 1542 1541 
4 1441 1442 1543 1542 
4 1443 1444 1545 1544 
4 1444 1445 1546 1545 
4 1445 1446 1547 1546 
4 1446 1447 1548 1547 
4 1447 1448 1549 1548 
4 1448 1449 1550 1549 
4 1449 1450 1551 1550 
4 1450 1451 1552 1551 
4 1451 1452 1553 1552 
4 1452 1453 1554 1553 
4 1453 1454 1555 1554 
4 1454 1455 1556 1555 
4 1455 1456 1557 1556 
4 1456 1457 1558 1557 
4 1457 1458 1559 1558 
4 1458 1459 1560 1559 
4 1459 1460 1561 1560 
4 1460 1461 1562 1561 
4 1461 1462 1563 1562 
4 1462 1463 1564 1563 
4 1463 1464 1565 1564 
4 1464 1465 1566 1565 
4 1465 1466 1567 1566 
4 1466 1467 1568 1567 
4 1467 1468 1569 1568 
4 1468 1469 1570 1569 
4 1469 1470 1571 1570 
4 1470 1471 1572 1571 
4 1471 1472 1573 1572 
4 1472 1473 1574 1573 
4 1473 1474 1575 1574 
4 1474 1475 1576 1575 
4 1475 1476 1577 1576 
4 1476 1477 1578 1577 
4 1477 1478 1579 1578 
4 1478 1479 1580 1579 
4 1479 1480 1581 1580 
4 1480 1481 1582 1581 
4 1481 1482 1583 1582 
4 1482 1483 1584 1583 
4 1483 1484 1585 1584 
4 1484 1485 1586 1585 
4 1485 1486 1587 1586 
4 1486 1487 1588 1587 
4 1487 1488 1589 1588 
4 1488 1489 1590 1589 
4 1489 1490 1591 1590 
4 1490 1491 1592 1591 
4 1491 1492 1593 1592 
4 1492 1493 1594 1593 
4 1493 1494 1595 1594 
4 1494 1495 1596 1595 
4 1495 1496 1597 1596 
4 1496 1497 1598 1597 
4 1497 1498 1599 1598 
4 1498 1499 1600 1599 
4 1499 1500 1601 1600 
4 1500 1501 1602 1601 
4 1501 1502 1603 1602 
4 1502 1503 1604 1603 
4 1503 1504 1605 1604 
4 1504 1505 1606 1605 
4 1505 1506 1607 1606 
4 1506 1507 1608 1607 
4 1507 1508 1609 1608 
4 1508 1509 1610 1609 
4 1509 1510 1611 1610 
4 1510 1511 1612 1611 
4 1511 1512 1613 1612 
4 1512 1513 1614 1613 
4 1513 1514 1615 1614 
4 1514 1515 1616 1615 
4 1515 1516 1617 1616 
4 1516 1517 1618 1617 
4 1517 1518 1619 1618 
4 1518 1519 1620 1619 
4 1519 1520 1621 1620 
4 1520 1521 1622 1621 
4 1521 1522 1623 1622 
4 1522 1523 1624 1623 
4 1523 1524 1625 1624 
4 1524 1525 1626 1625 
4 1525 1526 1627 1626 
4 1526 1527 1628 1627 
4 1527 1528 1629 1628 
4 1528 1529 1630 1629 
4 1529 1530 1631 1630 
4 1530 1531 1632 1631 
4 1531 1532 1633 1632 
4 1532 1533 1634 1633 
4 1533 1534 1635 1634 
4 1534 1535 1636 1635 
4 1535 1536 1637 1636 
4 1536 1537 1638 1637 
4 1537 1538 1639 1638 
4 1538 1539 1640 1639 
4 1539 1540 1641 1640 
4 1540 1541 1642 1641 
4 1541 1542 1643 1642 
4 1542 1543 1644 1643 
4 1544 1545 1646 1645 
4 1545 1546 1647 1646 
4 1546 1547 1648 1647 
4 1547 1548 1649 1648 
4 1548 1549 1650 1649 
4 1549 1550 1651 1650 
4 1550 1551 1652 1651 
4 1551 1552 1653 1652 
4 1552 1553 1654 1653 
4 1553 1554 1655 1654 
4 1554 1555 1656 1655 
4 1555 1556 1657 1656 
4 1556 1557 1658 1657 
4 1557 1558 1659 1658 
4 1558 1559 1660 1659 
4 1559 1560 1661 1660 
4 1560 1561 1662 1661 
4 1561 1562 1663 1662 
4 1562 1563 1664 1663 
4 1563 1564 1665 1664 
4 1564 1565 1666 1665 
4 1565 1566 1667 1666 
4 1566 1567 1668 1667 
4 1567 1568 1669 1668 
4 1568 1569 1670 1669 
4 1569 1570 1671 1670 
4 1570 1571 1672 1671 
4 1571 1572 1673 1672 
4 1572 1573 1674 1673 
4 1573 1574 1675 1674 
4 1574 1575 1676 1675 
4 1575 1576 1677 1676 
4 1576 1577 1678 1677 
4 1577 1578 1679 1678 
4 1578 1579 1680 1679 
4 1579 1580 1681 1680 
4 1580 1581 1682 1681 
4 1581 1582 1683 1682 
4 1582 1583 1684 1683 
4 1583 1584 1685 1684 
4 1584 1585 1686 1685 
4 1585 1586 1687 1686 
4 1586 1587 1688 1687 
4 1587 1588 1689 1688 
4 1588 1589 1690 1689 
4 1589 1590 1691 1690 
4 1590 1591 1692 1691 
4 1591 1592 1693 1692 
4 1592 1593 1694 1693 
4 1593 1594 1695 1694 
4 1594 1595 1696 1695 
4 1595 1596 1697 1696 
4 1596 1597 1698 1697 
4 1597 1598 1699 1698 
4 1598 1599 1700 1699 
4 1599 1600 1701 1700 
4 1600 1601 1702 1701 
4 1601 1602 1703 1702 
4 1602 1603 1704 1703 
4 1603 1604 1705 1704 
4 1604 1605 1706 1705 
4 1605 1606 1707 1706 
4 1606 1607 1708 1707 
4 1607 1608 1709 1708 
4 1608 1609 1710 1709 
4 1609 1610 1711 1710 
4 1610 1611 1712 1711 
4 1611 1612 1713 1712 
4 1612 1613 1714 1713 
4 1613 1614 1715 1714 
4 1614 1615 1716 1715 
4 1615 1616 1717 1716 
4 1616 1617 1718 1717 
4 1617 1618 1719 1718 
4 1618 1619 1720 1719 
4 1619 1620 1721 1720 
4 1620 1621 1722 1721 
4 1621 1622 1723 1722 
4 1622 1623 1724 1723 
4 1623 1624 1725 1724 
4 1624 1625 1726 1725 
4 1625 1626 1727 1726 
4 1626 1627 1728 1727 
4 1627 1628 1729 1728 
4 1628 1629 1730 1729 
4 1629 1630 1731 1730 
4 1630 1631 1732 1731 
4 1631 1632 1733 1732 
4 1632 1633 1734 1733 
4 1633 1634 1735 1734 
4 1634 1635 1736 1735 
4 1635 1636 1737 1736 
4 1636 1637 1738 1737 
4 1637 1638 1739 1738 
4 1638 1639 1740 1739 
4 1639 1640 1741 1740 
4 1640 1641 1742 1741 
4 1641 1642 1743 1742 
4 1642 1643 1744 1743 
4 1643 1644 1745 1744 
4 1645 1646 1747 1746 
4 1646 1647 1748 1747 
4 1647 1648 1749 1748 
4 1648 1649 1750 1749 
4 1649 1650 1751 1750 
4 1650 1651 1752 1751 
4 1651 1652 1753 1752 
4 1652 1653 1754 1753 
4 1653 1654 1755 1754 
4 1654 1655 1756 1755 
4 1655 1656 1757 1756 
4 1656 1657 1758 1757 
4 1657 1658 1759 1758 
4 1658 1659 1760 1759 
4 1659 1660 1761 1760 
4 1660 1661 1762 1761 
4 1661 1662 1763 1762 
4 1662 1663 1764 1763 
4 1663 1664 1765 1764 
4 1664 1665 1766 1765 
4 1665 1666 1767 1766 
4 1666 1667 1768 1767 
4 1667 1668 1769 1768 
4 1668 1669 1770 1769 
4 1669 1670 1771 1770 
4 1670 1671 1772 1771 
4 1671 1672 1773 1772 
4 1672 1673 1774 1773 
4 1673 1674 1775 1774 
4 1674 1675 1776 1775 
4 1675 1676 1777 1776 
4 1676 1677 1778 1777 
4 1677 1678 1779 1778 
4 1678 1679 1780 1779 
4 1679 1680 1781 1780 
4 1680 1681 1782 1781 
4 1681 1682 1783 1782 
4 1682 1683 1784 1783 
4 1683 1684 1785 1784 
4 1684 1685 1786 1785 
4 1685 1686 1787 1786 
4 1686 1687 1788 1787 
4 1687 1688 1789 1788 
4 1688 1689 1790 1789 
4 1689 1690 1791 1790 
4 1690 1691 1792 1791 
4 1691 1692 1793 1792 
4 1692 1693 1794 1793 
4 1693 1694 1795 1794 
4 1694 1695 1796 1795 
4 1695 1696 1797 1796 
4 1696 1697 1798 1797 
4 1697 1698 1799 1798 
4 1698 1699 1800 1799 
4 1699 1700 1801 1800 
4 1700 1701 1802 1801 
4 1701 1702 1803 1802 
4 1702 1703 1804 1803 
4 1703 1704 1805 1804 
4 1704 1705 1806 1805 
4 1705 1706 1807 1806 
4 1706 1707 1808 1807 
4 1707 1708 1809 1808 
4 1708 1709 1810 1809 
4 1709 1710 1811 1810 
4 1710 1711 1812 1811 
4 1711 1712 1813 1812 
4 1712 1713 1814 1813 
4 1713 1714 1815 1814 
4 1714 1715 1816 1815 
4 1715 1716 1817 1816 
4 1716 1717 1818 1817 
4 1717 1718 1819 1818 
4 1718 1719 1820 1819 
4 1719 1720 1821 1820 
4 1720 1721 1822 1821 
4 1721 1722 1823 1822 
4 1722 1723 1824 1823 
4 1723 1724 1825 1824 
4 1724 1725 1826 1825 
4 1725 1726 1827 1826 
4 1726 1727 1828 1827 
4 1727 1728 1829 1828 
4 1728 1729 1830 1829 
4 1729 1730 1831 1830 
4 1730 1731 1832 1831 
4 1731 1732 1833 1832 
4 1732 1733 1834 1833 
4 1733 1734 1835 1834 
4 1734 1735 1836 1835 
4 1735 1736 1837 1836 
4 1736 1737 1838 1837 
4 1737 1738 1839 1838 
4 1738 1739 1840 1839 
4 1739 1740 1841 1840 
4 1740 1741 1842 1841 
4 1741 1742 1843 1842 
4 1742 1743 1844 1843 
4 1743 1744 1845 1844 
4 1744 1745 1846 1845 
4 1746 1747 1848 1847 
4 1747 1748 1849 1848 
4 1748 1749 1850 1849 
4 1749 1750 1851 1850 
4 1750 1751 1852 1851 
4 1751 1752 1853 1852 
4 1752 1753 1854 1853 
4 1753 1754 1855 1854 
4 1754 1755 1856 1855 
4 1755 1756 1857 1856 
4 1756 1757 1858 1857 
4 1757 1758 1859 1858 
4 1758 1759 1860 1859 
4 1759 1760 1861 1860 
4 1760 1761 1862 1861 
4 1761 1762 1863 1862 
4 1762 1763 1864 1863 
4 1763 1764 1865 1864 
4 1764 1765 1866 1865 
4 1765 1766 1867 1866 
4 1766 1767 1868 1867 
4 1767 1768 1869 1868 
4 1768 1769 1870 1869 
4 1769 1770 1871 1870 
4 1770 1771 1872 1871 
4 1771 1772 1873 1872 
4 1772 1773 1874 1873 
4 1773 1774 1875 1874 
4 1774 1775 1876 1875 
4 1775 1776 1877 1876 
4 1776 1777 1878 1877 
4 1777 1778 1879 1878 
4 1778 1779 1880 1879 
4 1779 1780 1881 1880 
4 1780 1781 1882 1881 
4 1781 1782 1883 1882 
4 1782 1783 1884 1883 
4 1783 1784 1885 1884 
4 1784 1785 1886 1885 
4 1785 1786 1887 1886 
4 1786 1787 1888 1887 
4 1787 1788 1889 1888 
4 1788 1789 1890 1889 
4 1789 1790 1891 1890 
4 1790 1791 1892 1891 
4 1791 1792 1893 1892 
4 1792 1793 1894 1893 
4 1793 1794 1895 1894 
4 1794 1795 1896 1895 
4 1795 1796 1897 1896 
4 1796 1797 1898 1897 
4 1797 1798 1899 1898 
4 1798 1799 1900 1899 
4 1799 1800 1901 1900 
4 1800 1801 1902 1901 
4 1801 1802 1903 1902 
4 1802 1803 1904 1903 
4 1803 1804 1905 1904 
4 1804 1805 1906 1905 
4 1805 1806 1907 1906 
4 1806 1807 1908 1907 
4 1807 1808 1909 1908 
4 1808 1809 1910 1909 
4 1809 1810 1911 1910 
4 1810 1811 1912 1911 
4 1811 1812 1913 1912 
4 1812 1813 1914 1913 
4 1813 1814 1915 1914 
4 1814 1815 1916 1915 
4 1815 1816 1917 1916 
4 1816 1817 1918 1917 
4 1817 1818 1919 1918 
4 1818 1819 1920 1919 
4 1819 1820 1921 1920 
4 1820 1821 1922 1921 
4 1821 1822 1923 1922 
4 1822 1823 1924 1923 
4 1823 1824 1925 1924 
4 1824 1825 1926 1925 
4 1825 1826 1927 1926 
4 1826 1827 1928 1927 
4 1827 1828 1929 1928 
4 1828 1829 1930 1929 
4 1829 1830 1931 1930 
4 1830 1831 1932 1931 
4 1831 1832 1933 1932 
4 1832 1833 1934 1933 
4 1833 1834 1935 1934 
4 1834 1835 1936 1935 
4 1835 1836 1937 1936 
4 1836 1837 1938 1937 
4 1837 1838 1939 1938 
4 1838 1839 1940 1939 
4 1839 1840 1941 1940 
4 1840 1841 1942 1941 
4 1841 1842 1943 1942 
4 1842 1843 1944 1943 
4 1843 1844 1945 1944 
4 1844 1845 1946 1945 
4 1845 1846 1947 1946 
4 1847 1848 1949 1948 
4 1848 1849 1950 1949 
4 1849 1850 1951 1950 
4 1850 1851 1952 1951 
4 1851 1852 1953 1952 
4 1852 1853 1954 1953 
4 1853 1854 1955 1954 
4 1854 1855 1956 1955 
4 1855 1856 1957 1956 
4 1856 1857 1958 1957 
4 1857 1858 1959 1958 
4 1858 1859 1960 1959 
4 1859 1860 1961 1960 
4 1860 1861 1962 1961 
4 1861 1862 1963 1962 
4 1862 1863 1964 1963 
4 1863 1864 1965 1964 
4 1864 1865 1966 1965 
4 1865 1866 1967 1966 
4 1866 1867 1968 1967 
4 1867 1868 1969 1968 
4 1868 1869 1970 1969 
4 1869 1870 1971 1970 
4 1870 1871 1972 1971 
4 1871 1872 1973 1972 
4 1872 1873 1974 1973 
4 1873 1874 1975 1974 
4 1874 1875 1976 1975 
4 1875 1876 1977 1976 
4 1876 1877 1978 1977 
4 1877 1878 1979 1978 
4 1878 1879 1980 1979 
4 1879 1880 1981 1980 
4 1880 1881 1982 1981 
4 1881 1882 1983 1982 
4 1882 1883 1984 1983 
4 1883 1884 1985 1984 
4 1884 1885 1986 1985 
4 1885 1886 1987 1986 
4 1886 1887 1988 1987 
4 1887 1888 1989 1988 
4 1888 1889 1990 1989 
4 1889 1890 1991 1990 
4 1890 1891 1992 1991 
4 1891 1892 1993 1992 
4 1892 1893 1994 1993 
4 1893 1894 1995 1994 
4 1894 1895 1996 1995 
4 1895 1896 1997 1996 
4 1896 1897 1998 1997 
4 1897 1898 1999 1998 
4 1898 1899 2000 1999 
4 1899 1900 2001 2000 
4 1900 1901 2002 2001 
4 1901 1902 2003 2002 
4 1902 1903 2004 2003 
4 1903 1904 2005 2004 
4 1904 1905 2006 2005 
4 1905 1906 2007 2006 
4 1906 1907 2008 2007 
4 1907 1908 2009 2008 
4 1908 1909 2010 2009 
4 1909 1910 2011 2010 
4 1910 1911 2012 2011 
4 1911 1912 2013 2012 
4 1912 1913 2014 2013 
4 1913 1914 2015 2014 
4 1914 1915 2016 2015 
4 1915 1916 2017 2016 
4 1916 1917 2018 2017 
4 1917 1918 2019 2018 
4 1918 1919 2020 2019 
4 1919 1920 2021 2020 
4 1920 1921 2022 2021 
4 1921 1922 2023 2022 
4 1922 1923 2024 2023 
4 1923 1924 2025 2024 
4 1924 1925 2026 2025 
4 1925 1926 2027 2026 
4 1926 1927 2028 2027 
4 1927 1928 2029 2028 
4 1928 1929 2030 2029 
4 1929 1930 2031 2030 
4 1930 1931 2032 2031 
4 1931 1932 2033 2032 
4 1932 1933 2034 2033 
4 1933 1934 2035 2034 
4 1934 1935 2036 2035 
4 1935 1936 2037 2036 
4 1936 1937 2038 2037 
4 1937 1938 2039 2038 
4 1938 1939 2040 2039 
4 1939 1940 2041 2040 
4 1940 1941 2042 2041 
4 1941 1942 2043 2042 
4 1942 1943 2044 2043 
4 1943 1944 2045 2044 
4 1944 1945 2046 2045 
4 1945 1946 2047 2046 
4 1946 1947 2048 2047 
4 1948 1949 2050 2049 
4 1949 1950 2051 2050 
4 1950 1951 2052 2051 
4 1951 1952 2053 2052 
4 1952 1953 2054 2053 
4 1953 1954 2055 2054 
4 1954 1955 2056 2055 
4 1955 1956 2057 2056 
4 1956 1957 2058 2057 
4 1957 1958 2059 2058 
4 1958 1959 2060 2059 
4 1959 1960 2061 2060 
4 1960 1961 2062 2061 
4 1961 1962 2063 2062 
4 1962 1963 2064 2063 
4 1963 1964 2065 2064 
4 1964 1965 2066 2065 
4 1965 1966 2067 2066 
4 1966 1967 2068 2067 
4 1967 1968 2069 2068 
4 1968 1969 2070 2069 
4 1969 1970 2071 2070 
4 1970 1971 2072 2071 
4 1971 1972 2073 2072 
4 1972 1973 2074 2073 
4 1973 1974 2075 2074 
4 1974 1975 2076 2075 
4 1975 1976 2077 2076 
4 1976 1977 2078 2077 
4 1977 1978 2079 2078 
4 1978 1979 2080 2079 
4 1979 1980 2081 2080 
4 1980 1981 2082 2081 
4 1981 1982 2083 2082 
4 1982 1983 2084 2083 
4 1983 1984 2085 2084 
4 1984 1985 2086 2085 
4 1985 1986 2087 2086 
4 1986 1987 2088 2087 
4 1987 1988 2089 2088 
4 1988 1989 2090 2089 
4 1989 1990 2091 2090 
4 1990 1991 2092 2091 
4 1991 1992 2093 2092 
4 1992 1993 2094 2093 
4 1993 1994 2095 2094 
4 1994 1995 2096 2095 
4 1995 1996 2097 2096 
4 1996 1997 2098 2097 
4 1997 1998 2099 2098 
4 1998 1999 2100 2099 
4 1999 2000 2101 2100 
4 2000 2001 2102 2101 
4 2001 2002 2103 2102 
4 2002 2003 2104 2103 
4 2003 2004 2105 2104 
4 2004 2005 2106 2105 
4 2005 2006 2107 2106 
4 2006 2007 2108 2107 
4 2007 2008 2109 2108 
4 2008 2009 2110 2109 
4 2009 2010 2111 2110 
4 2010 2011 2112 2111 
4 2011 2012 2113 2112 
4 2012 2013 2114 2113 
4 2013 2014 2115 2114 
4 2014 2015 2116 2115 
4 2015 2016 2117 2116 
4 2016 2017 2118 2117 
4 2017 2018 2119 2118 
4 2018 2019 2120 2119 
4 2019 2020 2121 2120 
4 2020 2021 2122 2121 
4 2021 2022 2123 2122 
4 2022 2023 2124 2123 
4 2023 2024 2125 2124 
4 2024 2025 2126 2125 
4 2025 2026 2127 2126 
4 2026 2027 2128 2127 
4 2027 2028 2129 2128 
4 2028 2029 2130 2129 
4 2029 2030 2131 2130 
4 2030 2031 2132 2131 
4 2031 2032 2133 2132 
4 2032 2033 2134 2133 
4 2033 2034 2135 2134 
4 2034 2035 2136 2135 
4 2035 2036 2137 2136 
4 2036 2037 2138 2137 
4 2037 2038 2139 2138 
4 2038 2039 2140 2139 
4 2039 2040 2141 2140 
4 2040 2041 2142 2141 
4 2041 2042 2143 2142 
4 2042 2043 2144 2143 
4 2043 2044 2145 2144 
4 2044 2045 2146 2145 
4 2045 2046 2147 2146 
4 2046 2047 2148 2147 
4 2047 2048 2149 2148 
4 2049 2050 2151 2150 
4 2050 2051 2152 2151 
4 2051 2052 2153 2152 
4 2052 2053 2154 2153 
4 2053 2054 2155 2154 
4 2054 2055 2156 2155 
4 2055 2056 2157 2156 
4 2056 2057 2158 2157 
4 2057 2058 2159 2158 
4 2058 2059 2160 2159 
4 2059 2060 2161 2160 
4 2060 2061 2162 2161 
4 2061 2062 2163 2162 
4 2062 2063 2164 2163 
4 2063 2064 2165 2164 
4 2064 2065 2166 2165 
4 2065 2066 2167 2166 
4 2066 2067 2168 2167 
4 2067 2068 2169 2168 
4 2068 2069 2170 2169 
4 2069 2070 2171 2170 
4 2070 2071 2172 2171 
4 2071 2072 2173 2172 
4 2072 2073 2174 2173 
4 2073 2074 2175 2174 
4 2074 2075 2176 2175 
4 2075 2076 2177 2176 
4 2076 2077 2178 2177 
4 2077 2078 2179 2178 
4 2078 2079 2180 2179 
4 2079 2080 2181 2180 
4 2080 2081 2182 2181 
4 2081 2082 2183 2182 
4 2082 2083 2184 2183 
4 2083 2084 2185 2184 
4 2084 2085 2186 2185 
4 2085 2086 2187 2186 
4 2086 2087 2188 2187 
4 2087 2088 2189 2188 
4 2088 2089 2190 2189 
4 2089 2090 2191 2190 
4 2090 2091 2192 2191 
4 2091 2092 2193 2192 
4 2092 2093 2194 2193 
4 2093 2094 2195 2194 
4 2094 2095 2196 2195 
4 2095 2096 2197 2196 
4 2096 2097 2198 2197 
4 2097 2098 2199 2198 
4 2098 2099 2200 2199 
4 2099 2100 2201 2200 
4 2100 2101 2202 2201 
4 2101 2102 2203 2202 
4 2102 2103 2204 2203 
4 2103 2104 2205 2204 
4 2104 2105 2206 2205 
4 2105 2106 2207 2206 
4 2106 2107 2208 2207 
4 2107 2108 2209 2208 
4 2108 2109 2210 2209 
4 2109 2110 2211 2210 
4 2110 2111 2212 2211 
4 2111 2112 2213 2212 
4 2112 2113 2214 2213 
4 2113 2114 2215 2214 
4 2114 2115 2216 2215 
4 2115 2116 2217 2216 
4 2116 2117 2218 2217 
4 2117 2118 2219 2218 
4 2118 2119 2220 2219 
4 2119 2120 2221 2220 
4 2120 2121 2222 2221 
4 2121 2122 2223 2222 
4 2122 2123 2224 2223 
4 2123 2124 2225 2224 
4 2124 2125 2226 2225 
4 2125 2126 2227 2226 
4 2126 2127 2228 2227 
4 2127 2128 2229 2228 
4 2128 2129 2230 2229 
4 2129 2130 2231 2230 
4 2130 2131 2232 2231 
4 2131 2132 2233 2232 
4 2132 2133 2234 2233 
4 2133 2134 2235 2234 
4 2134 2135 2236 2235 
4 2135 2136 2237 2236 
4 2136 2137 2238 2237 
4 2137 2138 2239 2238 
4 2138 2139 2240 2239 
4 2139 2140 2241 2240 
4 2140 2141 2242 2241 
4 2141 2142 2243 2242 
4 2142 2143 2244 2243 
4 2143 2144 2245 2244 
4 2144 2145 2246 2245 
4 2145 2146 2247 2246 
4 2146 2147 2248 2247 
4 2147 2148 2249 2248 
4 2148 2149 2250 2249 
4 2150 2151 2252 2251 
4 2151 2152 2253 2252 
4 2152 2153 2254 2253 
4 2153 2154 2255 2254 
4 2154 2155 2256 2255 
4 2155 2156 2257 2256 
4 2156 2157 2258 2257 
4 2157 2158 2259 2258 
4 2158 2159 2260 2259 
4 2159 2160 2261 2260 
4 2160 2161 2262 2261 
4 2161 2162 2263 2262 
4 2162 2163 2264 2263 
4 2163 2164 2265 2264 
4 2164 2165 2266 2265 
4 2165 2166 2267 2266 
4 2166 2167 2268 2267 
4 2167 2168 2269 2268 
4 2168 2169 2270 2269 
4 2169 2170 2271 2270 
4 2170 2171 2272 2271 
4 2171 2172 2273 2272 
4 2172 2173 2274 2273 
4 2173 2174 2275 2274 
4 2174 2175 2276 2275 
4 2175 2176 2277 2276 
4 2176 2177 2278 2277 
4 2177 2178 2279 2278 
4 2178 2179 2280 2279 
4 2179 2180 2281 2280 
4 2180 2181 2282 2281 
4 2181 2182 2283 2282 
4 2182 2183 2284 2283 
4 2183 2184 2285 2284 
4 2184 2185 2286 2285 
4 2185 2186 2287 2286 
4 2186 2187 2288 2287 
4 2187 2188 2289 2288 
4 2188 2189 2290 2289 
4 2189 2190 2291 2290 
4 2190 2191 2292 2291 
4 2191 2192 2293 2292 
4 2192 2193 2294 2293 
4 2193 2194 2295 2294 
4 2194 2195 2296 2295 
4 2195 2196 2297 2296 
4 2196 2197 2298 2297 
4 2197 2198 2299 2298 
4 2198 2199 2300 2299 
4 2199 2200 2301 2300 
4 2200 2201 2302 2301 
4 2201 2202 2303 2302 
4 2202 2203 2304 2303 
4 2203 2204 2305 2304 
4 2204 2205 2306 2305 
4 2205 2206 2307 2306 
4 2206 2207 2308 2307 
4 2207 2208 2309 2308 
4 2208 2209 2310 2309 
4 2209 2210 2311 2310 
4 2210 2211 2312 2311 
4 2211 2212 2313 2312 
4 2212 2213 2314 2313 
4 2213 2214 2315 2314 
4 2214 2215 2316 2315 
4 2215 2216 2317 2316 
4 2216 2217 2318 2317 
4 2217 2218 2319 2318 
4 2218 2219 2320 2319 
4 2219 2220 2321 2320 
4 2220 2221 2322 2321 
4 2221 2222 2323 2322 
4 2222 2223 2324 2323 
4 2223 2224 2325 2324 
4 2224 2225 2326 2325 
4 2225 2226 2327 2326 
4 2226 2227 2328 2327 
4 2227 2228 2329 2328 
4 2228 2229 2330 2329 
4 2229 2230 2331 2330 
4 2230 2231 2332 2331 
4 2231 2232 2333 2332 
4 2232 2233 2334 2333 
4 2233 2234 2335 2334 
4 2234 2235 2336 2335 
4 2235 2236 2337 2336 
4 2236 2237 2338 2337 
4 2237 2238 2339 2338 
4 2238 2239 2340 2339 
4 2239 2240 2341 2340 
4 2240 2241 2342 2341 
4 2241 2242 2343 2342 
4 2242 2243 2344 2343 
4 2243 2244 2345 2344 
4 2244 2245 2346 2345 
4 2245 2246 2347 2346 
4 2246 2247 2348 2347 
4 2247 2248 2349 2348 
4 2248 2249 2350 2349 
4 2249 2250 2351 2350 
4 2251 2252 2353 2352 
4 2252 2253 2354 2353 
4 2253 2254 2355 2354 
4 2254 2255 2356 2355 
4 2255 2256 2357 2356 
4 2256 2257 2358 2357 
4 2257 2258 2359 2358 
4 2258 2259 2360 2359 
4 2259 2260 2361 2360 
4 2260 2261 2362 2361 
4 2261 2262 2363 2362 
4 2262 2263 2364 2363 
4 2263 2264 2365 2364 
4 2264 2265 2366 2365 
4 2265 2266 2367 2366 
4 2266 2267 2368 2367 
4 2267 2268 2369 2368 
4 2268 2269 2370 2369 
4 2269 2270 2371 2370 
4 2270 2271 2372 2371 
4 2271 2272 2373 2372 
4 2272 2273 2374 2373 
4 2273 2274 2375 2374 
4 2274 2275 2376 2375 
4 2275 2276 2377 2376 
4 2276 2277 2378 2377 
4 2277 2278 2379 2378 
4 2278 2279 2380 2379 
4 2279 2280 2381 2380 
4 2280 2281 2382 2381 
4 2281 2282 2383 2382 
4 2282 2283 2384 2383 
4 2283 2284 2385 2384 
4 2284 2285 2386 2385 
4 2285 2286 2387 2386 
4 2286 2287 2388 2387 
4 2287 2288 2389 2388 
4 2288 2289 2390 2389 
4 2289 2290 2391 2390 
4 2290 2291 2392 2391 
4 2291 2292 2393 2392 
4 2292 2293 2394 2393 
4 2293 2294 2395 2394 
4 2294 2295 2396 2395 
4 2295 2296 2397 2396 
4 2296 2297 2398 2397 
4 2297 2298 2399 2398 
4 2298 2299 2400 2399 
4 2299 2300 2401 2400 
4 2300 2301 2402 2401 
4 2301 2302 2403 2402 
4 2302 2303 2404 2403 
4 2303 2304 2405 2404 
4 2304 2305 2406 2405 
4 2305 2306 2407 2406 
4 2306 2307 2408 2407 
4 2307 2308 2409 2408 
4 2308 2309 2410 2409 
4 2309 2310 2411 2410 
4 2310 2311 2412 2411 
4 2311 2312 2413 2412 
4 2312 2313 2414 2413 
4 2313 2314 2415 2414 
4 2314 2315 2416 2415 
4 2315 2316 2417 2416 
4 2316 2317 2418 2417 
4 2317 2318 2419 2418 
4 2318 2319 2420 2419 
4 2319 2320 2421 2420 
4 2320 2321 2422 2421 
4 2321 2322 2423 2422 
4 2322 2323 2424 2423 
4 2323 2324 2425 2424 
4 2324 2325 2426 2425 
4 2325 2326 2427 2426 
4 2326 2327 2428 2427 
4 2327 2328 2429 2428 
4 2328 2329 2430 2429 
4 2329 2330 2431 2430 
4 2330 2331 2432 2431 
4 2331 2332 2433 2432 
4 2332 2333 2434 2433 
4 2333 2334 2435 2434 
4 2334 2335 2436 2435 
4 2335 2336 2437 2436 
4 2336 2337 2438 2437 
4 2337 2338 2439 2438 
4 2338 2339 2440 2439 
4 2339 2340 2441 2440 
4 2340 2341 2442 2441 
4 2341 2342 2443 2442 
4 2342 2343 2444 2443 
4 2343 2344 2445 2444 
4 2344 2345 2446 2445 
4 2345 2346 2447 2446 
4 2346 2347 2448 2447 
4 2347 2348 2449 2448 
4 2348 2349 2450 2449 
4 2349 2350 2451 2450 
4 2350 2351 2452 2451 

CELL_TYPES 2200
9
9
9
9
9
9
9
9
9
9
9
9
9
9
9
9
9
9
9
9
9
9
9
9
9
9
9
9
9
9
9
9
9
9
9
9
9
9
9
9
9
9
9
9
9
9
9
9
9
9
9
9
9
9
9
9
9
9
9
9
9
9
9
9
9
9
9
9
9
9
9
9
9
9
9
9
9
9
9
9
9
9
9
9
9
9
9
9
9
9
9
9
9
9
9
9
9
9
9
9
9
9
9
9
9
9
9
9
9
9
9
9
9
9
9
9
9
9
9
9
9
9
9
9
9
9
9
9
9
9
9
9
9
9
9
9
9
9
9
9
9
9
9
9
9
9
9
9
9
9
9
9
9
9
9
9
9
9
9
9
9
9
9
9
9
9
9
9
9
9
9
9
9
9
9
9
9
9
9
9
9
9
9
9
9
9
9
9
9
9
9
9
9
9
9
9
9
9
9
9
9
9
9
9
9
9
9
9
9
9
9
9
9
9
9
9
9
9
9
9
9
9
9
9
9
9
9
9
9
9
9
9
9
9
9
9
9
9
9
9
9
9
9
9
9
9
9
9
9
9
9
9
9
9
9
9
9
9
9
9
9
9
9
9
9
9
9
9
9
9
9
9
9
9
9
9
9
9
9
9
9
9
9
9
9
9
9
9
9
9
9
9
9
9
9
9
9
9
9
9
9
9
9
9
9
9
9
9
9
9
9
9
9
9
9
9
9
9
9
9
9
9
9
9
9
9
9
9
9
9
9
9
9
9
9
9
9
9
9
9
9
9
9
9
9
9
9
9
9
9
9
9
9
9
9
9
9
9
9
9
9
9
9
9
9
9
9
9
9
9
9
9
9
9
9
9
9
9
9
9
9
9
9
9
9
9
9
9
9
9
9
9
9
9
9
9
9
9
9
9
9
9
9
9
9
9
9
9
9
9
9
9
9
9
9
9
9
9
9
9
9
9
9
9
9
9
9
9
9
9
9
9
9
9
9
9
9
9
9
9
9
9
9
9
9
9
9
9
9
9
9
9
9
9
9
9
9
9
9
9
9
9
9
9
9
9
9
9
9
9
9
9
9
9
9
9
9
9
9
9
9
9
9
9
9
9
9
9
9
9
9
9
9
9
9
9
9
9
9
9
9
9
9
9
9
9
9
9
9
9
9
9
9
9
9
9
9
9
9
9
9
9
9
9
9
9
9
9
9
9
9
9
9
9
9
9
9
9
9
9
9
9
9
9
9
9
9
9
9
9
9
9
9
9
9
9
9
9
9
9
9
9
9
9
9
9
9
9
9
9
9
9
9
9
9
9
9
9
9
9
9
9
9
9
9
9
9
9
9
9
9
9
9
9
9
9
9
9
9
9
9
9
9
9
9
9
9
9
9
9
9
9
9
9
9
9
9
9
9
9
9
9
9
9
9
9
9
9
9
9
9
9
9
9
9
9
9
9
9
9
9
9
9
9
9
9
9
9
9
9
9
9
9
9
9
9
9
9
9
9
9
9
9
9
9
9
9
9
9
9
9
9
9
9
9
9
9
9
9
9
9
9
9
9
9
9
9
9
9
9
9
9
9
9
9
9
9
9
9
9
9
9
9
9
9
9
9
9
9
9
9
9
9
9
9
9
9
9
9
9
9
9
9
9
9
9
9
9
9
9
9
9
9
9
9
9
9
9
9
9
9
9
9
9
9
9
9
9
9
9
9
9
9
9
9
9
9
9
9
9
9
9
9
9
9
9
9
9
9
9
9
9
9
9
9
9
9
9
9
9
9
9
9
9
9
9
9
9
9
9
9
9
9
9
9
9
9
9
9
9
9
9
9
9
9
9
9
9
9
9
9
9
9
9
9
9
9
9
9
9
9
9
9
9
9
9
9
9
9
9
9
9
9
9
9
9
9
9
9
9
9
9
9
9
9
9
9
9
9
9
9
9
9
9
9
9
9
9
9
9
9
9
9
9
9
9
9
9
9
9
9
9
9
9
9
9
9
9
9
9
9
9
9
9
9
9
9
9
9
9
9
9
9
9
9
9
9
9
9
9
9
9
9
9
9
9
9
9
9
9
9
9
9
9
9
9
9
9
9
9
9
9
9
9
9
9
9
9
9
9
9
9
9
9
9
9
9
9
9
9
9
9
9
9
9
9
9
9
9
9
9
9
9
9
9
9
9
9
9
9
9
9
9
9
9
9
9
9
9
9
9
9
9
9
9
9
9
9
9
9
9
9
9
9
9
9
9
9
9
9
9
9
9
9
9
9
9
9
9
9
9
9
9
9
9
9
9
9
9
9
9
9
9
9
9
9
9
9
9
9
9
9
9
9
9
9
9
9
9
9
9
9
9
9
9
9
9
9
9
9
9
9
9
9
9
9
9
9
9
9
9
9
9
9
9
9
9
9
9
9
9
9
9
9
9
9
9
9
9
9
9
9
9
9
9
9
9
9
9
9
9
9
9
9
9
9
9
9
9
9
9
9
9
9
9
9
9
9
9
9
9
9
9
9
9
9
9
9
9
9
9
9
9
9
9
9
9
9
9
9
9
9
9
9
9
9
9
9
9
9
9
9
9
9
9
9
9
9
9
9
9
9
9
9
9
9
9
9
9
9
9
9
9
9
9
9
9
9
9
9
9
9
9
9
9
9
9
9
9
9
9
9
9
9
9
9
9
9
9
9
9
9
9
9
9
9
9
9
9
9
9
9
9
9
9
9
9
9
9
9
9
9
9
9
9
9
9
9
9
9
9
9
9
9
9
9
9
9
9
9
9
9
9
9
9
9
9
9
9
9
9
9
9
9
9
9
9
9
9
9
9
9
9
9
9
9
9
9
9
9
9
9
9
9
9
9
9
9
9
9
9
9
9
9
9
9
9
9
9
9
9
9
9
9
9
9
9
9
9
9
9
9
9
9
9
9
9
9
9
9
9
9
9
9
9
9
9
9
9
9
9
9
9
9
9
9
9
9
9
9
9
9
9
9
9
9
9
9
9
9
9
9
9
9
9
9
9
9
9
9
9
9
9
9
9
9
9
9
9
9
9
9
9
9
9
9
9
9
9
9
9
9
9
9
9
9
9
9
9
9
9
9
9
9
9
9
9
9
9
9
9
9
9
9
9
9
9
9
9
9
9
9
9
9
9
9
9
9
9
9
9
9
9
9
9
9
9
9
9
9
9
9
9
9
9
9
9
9
9
9
9
9
9
9
9
9
9
9
9
9
9
9
9
9
9
9
9
9
9
9
9
9
9
9
9
9
9
9
9
9
9
9
9
9
9
9
9
9
9
9
9
9
9
9
9
9
9
9
9
9
9
9
9
9
9
9
9
9
9
9
9
9
9
9
9
9
9
9
9
9
9
9
9
9
9
9
9
9
9
9
9
9
9
9
9
9
9
9
9
9
9
9
9
9
9
9
9
9
9
9
9
9
9
9
9
9
9
9
9
9
9
9
9
9
9
9
9
9
9
9
9
9
9
9
9
9
9
9
9
9
9
9
9
9
9
9
9
9
9
9
9
9
9
9
9
9
9
9
9
9
9
9
9
9
9
9
9
9
9
9
9
9
9
9
9
9
9
9
9
9
9
9
9
9
9
9
9
9
9
9
9
9
9
9
9
9
9
9
9
9
9
9
9
9
9
9
9
9
9
9
9
9
9
9
9
9
9
9
9
9
9
9
9
9
9
9
9
9
9
9
9
9
9
9
9
9
9
9
9
9
9
9
9
9
9
9
9
9
9
9
9
9
9
9
9
9
9
9
9
9
9
9
9
9
9
9
9
9
9
9
9
9
9
9
9
9
9
9
9
9
9
9
9
9
9
9
9
9
9
9
9
9
9
9
9
9
9
9
9
9
9
9
9
9
9
9
9
9
9
9
9
9
9
9
9
9
9
9
9
9
9
9
9
9
9
9
9
9
9
9
9
9
9
9
9
9
9
9
9
9
9
9
9
9
9
9
9
9
9
9
9
9
9
9
9
9
9
9
9
9
9
9
9
9
9
9
9
9
9
9
9
9
9
9
9
9
9
9
9
9
9
9
9
9
9
9
9
9
9
9
9
9
9
9
9
9
9
9
9
9
9
9
9
9
9
9
9
9
9
9
9
9
9
9
9
9
9
9
9
9
9
9
9
9
9
9
9
9
9
9
9
9
9
9
9
9
9
9
9
9
9
9
9
9
9
9
9
9
9
9
9
9
9
9
9
9
9
9
9
9
9
9
9
9
9
9
9
9
9
9
9
9
9
9
9
9
9
9
9
9
9
9
9
9
9
9
9
9
9
9
9
9
9
9
9
9
9
9
9
9
9
9
9
9
9
9
9
9
9
9
9
9
9
9
9
9
9
9
9
9
9
9
9
9
9
9
9
9
9
9
9
9
9
9
9
9
9
9
9
9
9
9
9
9
9
9
9
9
9
9
9
9
9
9
9
9
9
9
9
9
9
9
9
9
9
9
9
9
9
9
9
9
9
9
9
9
9
9
9
9
9
9
9
9
9
9
9
9
9
9
9
9
9
9
9
9
9
9
9
9
9
9
9
9
9
9
9
9
9
9
9
9
9
9
9
9
9
9
9
9
9
9
9
9
9
9
9
9
9
9
9
9
9
9
9
9
9
9
9
9
9
9
9
9
9
9
9
9
9
9
9
9
9
9
9
9
9
9
9
9
9
9
9
9
9
9
9
9
9
9
9
9
9
9
9
9
9
9
9
9
9
9
9
9
9
9
9
9
9
9
9
9
9
9
9
9
9
9
9
9
9
9
9
9
9
9
9
9
9
9
9
9
9
9
9
9
9
9
9
9
9
9
9
9
9
9
9
9
9
9
9
9
9
9
9
9
9
9
9
9
9
9
9
9
9
9
9
9
9
9
9
9
9
9
9
9
9
9
9
9
9
9
9
9
9
9
9
9
9
9
9
9
9
9
9
9
9
9
9
9
9
9
9
9
9
9
9
9
9
9
9
9
9
9
9
9
9
9
9
9
