# vtk DataFile Version 3.0
Cartesian Mesh
ASCII
DATASET UNSTRUCTURED_GRID

POINTS 861 float
0 0 0
0.125 0 0
0.25 0 0
0.375 0 0
0.5 0 0
0.625 0 0
0.75 0 0
0.875 0 0
1 0 0
1.125 0 0
1.25 0 0
1.375 0 0
1.5 0 0
1.625 0 0
1.75 0 0
1.875 0 0
2 0 0
2.125 0 0
2.25 0 0
2.375 0 0
2.5 0 0
2.625 0 0
2.75 0 0
2.875 0 0
3 0 0
3.125 0 0
3.25 0 0
3.375 0 0
3.5 0 0
3.625 0 0
3.75 0 0
3.875 0 0
4 0 0
4.125 0 0
4.25 0 0
4.375 0 0
4.5 0 0
4.625 0 0
4.75 0 0
4.875 0 0
5 0 0
0.03 0.1 0
0.155 0.1 0
0.28 0.1 0
0.405 0.1 0
0.53 0.1 0
0.655 0.1 0
0.78 0.1 0
0.905 0.1 0
1.03 0.1 0
1.155 0.1 0
1.28 0.1 0
1.405 0.1 0
1.53 0.1 0
1.655 0.1 0
1.78 0.1 0
1.905 0.1 0
2.03 0.1 0
2.155 0.1 0
2.28 0.1 0
2.405 0.1 0
2.53 0.1 0
2.655 0.1 0
2.78 0.1 0
2.905 0.1 0
3.03 0.1 0
3.155 0.1 0
3.28 0.1 0
3.405 0.1 0
3.53 0.1 0
3.655 0.1 0
3.78 0.1 0
3.905 0.1 0
4.03 0.1 0
4.155 0.1 0
4.28 0.1 0
4.405 0.1 0
4.53 0.1 0
4.655 0.1 0
4.78 0.1 0
4.905 0.1 0
5.03 0.1 0
0.06 0.2 0
0.185 0.2 0
0.31 0.2 0
0.435 0.2 0
0.56 0.2 0
0.685 0.2 0
0.81 0.2 0
0.935 0.2 0
1.06 0.2 0
1.185 0.2 0
1.31 0.2 0
1.435 0.2 0
1.56 0.2 0
1.685 0.2 0
1.81 0.2 0
1.935 0.2 0
2.06 0.2 0
2.185 0.2 0
2.31 0.2 0
2.435 0.2 0
2.56 0.2 0
2.685 0.2 0
2.81 0.2 0
2.935 0.2 0
3.06 0.2 0
3.185 0.2 0
3.31 0.2 0
3.435 0.2 0
3.56 0.2 0
3.685 0.2 0
3.81 0.2 0
3.935 0.2 0
4.06 0.2 0
4.185 0.2 0
4.31 0.2 0
4.435 0.2 0
4.56 0.2 0
4.685 0.2 0
4.81 0.2 0
4.935 0.2 0
5.06 0.2 0
0.09 0.3 0
0.215 0.3 0
0.34 0.3 0
0.465 0.3 0
0.59 0.3 0
0.715 0.3 0
0.84 0.3 0
0.965 0.3 0
1.09 0.3 0
1.215 0.3 0
1.34 0.3 0
1.465 0.3 0
1.59 0.3 0
1.715 0.3 0
1.84 0.3 0
1.965 0.3 0
2.09 0.3 0
2.215 0.3 0
2.34 0.3 0
2.465 0.3 0
2.59 0.3 0
2.715 0.3 0
2.84 0.3 0
2.965 0.3 0
3.09 0.3 0
3.215 0.3 0
3.34 0.3 0
3.465 0.3 0
3.59 0.3 0
3.715 0.3 0
3.84 0.3 0
3.965 0.3 0
4.09 0.3 0
4.215 0.3 0
4.34 0.3 0
4.465 0.3 0
4.59 0.3 0
4.715 0.3 0
4.84 0.3 0
4.965 0.3 0
5.09 0.3 0
0.12 0.4 0
0.245 0.4 0
0.37 0.4 0
0.495 0.4 0
0.62 0.4 0
0.745 0.4 0
0.87 0.4 0
0.995 0.4 0
1.12 0.4 0
1.245 0.4 0
1.37 0.4 0
1.495 0.4 0
1.62 0.4 0
1.745 0.4 0
1.87 0.4 0
1.995 0.4 0
2.12 0.4 0
2.245 0.4 0
2.37 0.4 0
2.495 0.4 0
2.62 0.4 0
2.745 0.4 0
2.87 0.4 0
2.995 0.4 0
3.12 0.4 0
3.245 0.4 0
3.37 0.4 0
3.495 0.4 0
3.62 0.4 0
3.745 0.4 0
3.87 0.4 0
3.995 0.4 0
4.12 0.4 0
4.245 0.4 0
4.37 0.4 0
4.495 0.4 0
4.62 0.4 0
4.745 0.4 0
4.87 0.4 0
4.995 0.4 0
5.12 0.4 0
0.15 0.5 0
0.275 0.5 0
0.4 0.5 0
0.525 0.5 0
0.65 0.5 0
0.775 0.5 0
0.9 0.5 0
1.025 0.5 0
1.15 0.5 0
1.275 0.5 0
1.4 0.5 0
1.525 0.5 0
1.65 0.5 0
1.775 0.5 0
1.9 0.5 0
2.025 0.5 0
2.15 0.5 0
2.275 0.5 0
2.4 0.5 0
2.525 0.5 0
2.65 0.5 0
2.775 0.5 0
2.9 0.5 0
3.025 0.5 0
3.15 0.5 0
3.275 0.5 0
3.4 0.5 0
3.525 0.5 0
3.65 0.5 0
3.775 0.5 0
3.9 0.5 0
4.025 0.5 0
4.15 0.5 0
4.275 0.5 0
4.4 0.5 0
4.525 0.5 0
4.65 0.5 0
4.775 0.5 0
4.9 0.5 0
5.025 0.5 0
5.15 0.5 0
0.18 0.6 0
0.305 0.6 0
0.43 0.6 0
0.555 0.6 0
0.68 0.6 0
0.805 0.6 0
0.93 0.6 0
1.055 0.6 0
1.18 0.6 0
1.305 0.6 0
1.43 0.6 0
1.555 0.6 0
1.68 0.6 0
1.805 0.6 0
1.93 0.6 0
2.055 0.6 0
2.18 0.6 0
2.305 0.6 0
2.43 0.6 0
2.555 0.6 0
2.68 0.6 0
2.805 0.6 0
2.93 0.6 0
3.055 0.6 0
3.18 0.6 0
3.305 0.6 0
3.43 0.6 0
3.555 0.6 0
3.68 0.6 0
3.805 0.6 0
3.93 0.6 0
4.055 0.6 0
4.18 0.6 0
4.305 0.6 0
4.43 0.6 0
4.555 0.6 0
4.68 0.6 0
4.805 0.6 0
4.93 0.6 0
5.055 0.6 0
5.18 0.6 0
0.21 0.7 0
0.335 0.7 0
0.46 0.7 0
0.585 0.7 0
0.71 0.7 0
0.835 0.7 0
0.96 0.7 0
1.085 0.7 0
1.21 0.7 0
1.335 0.7 0
1.46 0.7 0
1.585 0.7 0
1.71 0.7 0
1.835 0.7 0
1.96 0.7 0
2.085 0.7 0
2.21 0.7 0
2.335 0.7 0
2.46 0.7 0
2.585 0.7 0
2.71 0.7 0
2.835 0.7 0
2.96 0.7 0
3.085 0.7 0
3.21 0.7 0
3.335 0.7 0
3.46 0.7 0
3.585 0.7 0
3.71 0.7 0
3.835 0.7 0
3.96 0.7 0
4.085 0.7 0
4.21 0.7 0
4.335 0.7 0
4.46 0.7 0
4.585 0.7 0
4.71 0.7 0
4.835 0.7 0
4.96 0.7 0
5.085 0.7 0
5.21 0.7 0
0.24 0.8 0
0.365 0.8 0
0.49 0.8 0
0.615 0.8 0
0.74 0.8 0
0.865 0.8 0
0.99 0.8 0
1.115 0.8 0
1.24 0.8 0
1.365 0.8 0
1.49 0.8 0
1.615 0.8 0
1.74 0.8 0
1.865 0.8 0
1.99 0.8 0
2.115 0.8 0
2.24 0.8 0
2.365 0.8 0
2.49 0.8 0
2.615 0.8 0
2.74 0.8 0
2.865 0.8 0
2.99 0.8 0
3.115 0.8 0
3.24 0.8 0
3.365 0.8 0
3.49 0.8 0
3.615 0.8 0
3.74 0.8 0
3.865 0.8 0
3.99 0.8 0
4.115 0.8 0
4.24 0.8 0
4.365 0.8 0
4.49 0.8 0
4.615 0.8 0
4.74 0.8 0
4.865 0.8 0
4.99 0.8 0
5.115 0.8 0
5.24 0.8 0
0.27 0.9 0
0.395 0.9 0
0.52 0.9 0
0.645 0.9 0
0.77 0.9 0
0.895 0.9 0
1.02 0.9 0
1.145 0.9 0
1.27 0.9 0
1.395 0.9 0
1.52 0.9 0
1.645 0.9 0
1.77 0.9 0
1.895 0.9 0
2.02 0.9 0
2.145 0.9 0
2.27 0.9 0
2.395 0.9 0
2.52 0.9 0
2.645 0.9 0
2.77 0.9 0
2.895 0.9 0
3.02 0.9 0
3.145 0.9 0
3.27 0.9 0
3.395 0.9 0
3.52 0.9 0
3.645 0.9 0
3.77 0.9 0
3.895 0.9 0
4.02 0.9 0
4.145 0.9 0
4.27 0.9 0
4.395 0.9 0
4.52 0.9 0
4.645 0.9 0
4.77 0.9 0
4.895 0.9 0
5.02 0.9 0
5.145 0.9 0
5.27 0.9 0
0.3 1 0
0.425 1 0
0.55 1 0
0.675 1 0
0.8 1 0
0.925 1 0
1.05 1 0
1.175 1 0
1.3 1 0
1.425 1 0
1.55 1 0
1.675 1 0
1.8 1 0
1.925 1 0
2.05 1 0
2.175 1 0
2.3 1 0
2.425 1 0
2.55 1 0
2.675 1 0
2.8 1 0
2.925 1 0
3.05 1 0
3.175 1 0
3.3 1 0
3.425 1 0
3.55 1 0
3.675 1 0
3.8 1 0
3.925 1 0
4.05 1 0
4.175 1 0
4.3 1 0
4.425 1 0
4.55 1 0
4.675 1 0
4.8 1 0
4.925 1 0
5.05 1 0
5.175 1 0
5.3 1 0
0.33 1.1 0
0.455 1.1 0
0.58 1.1 0
0.705 1.1 0
0.83 1.1 0
0.955 1.1 0
1.08 1.1 0
1.205 1.1 0
1.33 1.1 0
1.455 1.1 0
1.58 1.1 0
1.705 1.1 0
1.83 1.1 0
1.955 1.1 0
2.08 1.1 0
2.205 1.1 0
2.33 1.1 0
2.455 1.1 0
2.58 1.1 0
2.705 1.1 0
2.83 1.1 0
2.955 1.1 0
3.08 1.1 0
3.205 1.1 0
3.33 1.1 0
3.455 1.1 0
3.58 1.1 0
3.705 1.1 0
3.83 1.1 0
3.955 1.1 0
4.08 1.1 0
4.205 1.1 0
4.33 1.1 0
4.455 1.1 0
4.58 1.1 0
4.705 1.1 0
4.83 1.1 0
4.955 1.1 0
5.08 1.1 0
5.205 1.1 0
5.33 1.1 0
0.36 1.2 0
0.485 1.2 0
0.61 1.2 0
0.735 1.2 0
0.86 1.2 0
0.985 1.2 0
1.11 1.2 0
1.235 1.2 0
1.36 1.2 0
1.485 1.2 0
1.61 1.2 0
1.735 1.2 0
1.86 1.2 0
1.985 1.2 0
2.11 1.2 0
2.235 1.2 0
2.36 1.2 0
2.485 1.2 0
2.61 1.2 0
2.735 1.2 0
2.86 1.2 0
2.985 1.2 0
3.11 1.2 0
3.235 1.2 0
3.36 1.2 0
3.485 1.2 0
3.61 1.2 0
3.735 1.2 0
3.86 1.2 0
3.985 1.2 0
4.11 1.2 0
4.235 1.2 0
4.36 1.2 0
4.485 1.2 0
4.61 1.2 0
4.735 1.2 0
4.86 1.2 0
4.985 1.2 0
5.11 1.2 0
5.235 1.2 0
5.36 1.2 0
0.39 1.3 0
0.515 1.3 0
0.64 1.3 0
0.765 1.3 0
0.89 1.3 0
1.015 1.3 0
1.14 1.3 0
1.265 1.3 0
1.39 1.3 0
1.515 1.3 0
1.64 1.3 0
1.765 1.3 0
1.89 1.3 0
2.015 1.3 0
2.14 1.3 0
2.265 1.3 0
2.39 1.3 0
2.515 1.3 0
2.64 1.3 0
2.765 1.3 0
2.89 1.3 0
3.015 1.3 0
3.14 1.3 0
3.265 1.3 0
3.39 1.3 0
3.515 1.3 0
3.64 1.3 0
3.765 1.3 0
3.89 1.3 0
4.015 1.3 0
4.14 1.3 0
4.265 1.3 0
4.39 1.3 0
4.515 1.3 0
4.64 1.3 0
4.765 1.3 0
4.89 1.3 0
5.015 1.3 0
5.14 1.3 0
5.265 1.3 0
5.39 1.3 0
0.42 1.4 0
0.545 1.4 0
0.67 1.4 0
0.795 1.4 0
0.92 1.4 0
1.045 1.4 0
1.17 1.4 0
1.295 1.4 0
1.42 1.4 0
1.545 1.4 0
1.67 1.4 0
1.795 1.4 0
1.92 1.4 0
2.045 1.4 0
2.17 1.4 0
2.295 1.4 0
2.42 1.4 0
2.545 1.4 0
2.67 1.4 0
2.795 1.4 0
2.92 1.4 0
3.045 1.4 0
3.17 1.4 0
3.295 1.4 0
3.42 1.4 0
3.545 1.4 0
3.67 1.4 0
3.795 1.4 0
3.92 1.4 0
4.045 1.4 0
4.17 1.4 0
4.295 1.4 0
4.42 1.4 0
4.545 1.4 0
4.67 1.4 0
4.795 1.4 0
4.92 1.4 0
5.045 1.4 0
5.17 1.4 0
5.295 1.4 0
5.42 1.4 0
0.45 1.5 0
0.575 1.5 0
0.7 1.5 0
0.825 1.5 0
0.95 1.5 0
1.075 1.5 0
1.2 1.5 0
1.325 1.5 0
1.45 1.5 0
1.575 1.5 0
1.7 1.5 0
1.825 1.5 0
1.95 1.5 0
2.075 1.5 0
2.2 1.5 0
2.325 1.5 0
2.45 1.5 0
2.575 1.5 0
2.7 1.5 0
2.825 1.5 0
2.95 1.5 0
3.075 1.5 0
3.2 1.5 0
3.325 1.5 0
3.45 1.5 0
3.575 1.5 0
3.7 1.5 0
3.825 1.5 0
3.95 1.5 0
4.075 1.5 0
4.2 1.5 0
4.325 1.5 0
4.45 1.5 0
4.575 1.5 0
4.7 1.5 0
4.825 1.5 0
4.95 1.5 0
5.075 1.5 0
5.2 1.5 0
5.325 1.5 0
5.45 1.5 0
0.48 1.6 0
0.605 1.6 0
0.73 1.6 0
0.855 1.6 0
0.98 1.6 0
1.105 1.6 0
1.23 1.6 0
1.355 1.6 0
1.48 1.6 0
1.605 1.6 0
1.73 1.6 0
1.855 1.6 0
1.98 1.6 0
2.105 1.6 0
2.23 1.6 0
2.355 1.6 0
2.48 1.6 0
2.605 1.6 0
2.73 1.6 0
2.855 1.6 0
2.98 1.6 0
3.105 1.6 0
3.23 1.6 0
3.355 1.6 0
3.48 1.6 0
3.605 1.6 0
3.73 1.6 0
3.855 1.6 0
3.98 1.6 0
4.105 1.6 0
4.23 1.6 0
4.355 1.6 0
4.48 1.6 0
4.605 1.6 0
4.73 1.6 0
4.855 1.6 0
4.98 1.6 0
5.105 1.6 0
5.23 1.6 0
5.355 1.6 0
5.48 1.6 0
0.51 1.7 0
0.635 1.7 0
0.76 1.7 0
0.885 1.7 0
1.01 1.7 0
1.135 1.7 0
1.26 1.7 0
1.385 1.7 0
1.51 1.7 0
1.635 1.7 0
1.76 1.7 0
1.885 1.7 0
2.01 1.7 0
2.135 1.7 0
2.26 1.7 0
2.385 1.7 0
2.51 1.7 0
2.635 1.7 0
2.76 1.7 0
2.885 1.7 0
3.01 1.7 0
3.135 1.7 0
3.26 1.7 0
3.385 1.7 0
3.51 1.7 0
3.635 1.7 0
3.76 1.7 0
3.885 1.7 0
4.01 1.7 0
4.135 1.7 0
4.26 1.7 0
4.385 1.7 0
4.51 1.7 0
4.635 1.7 0
4.76 1.7 0
4.885 1.7 0
5.01 1.7 0
5.135 1.7 0
5.26 1.7 0
5.385 1.7 0
5.51 1.7 0
0.54 1.8 0
0.665 1.8 0
0.79 1.8 0
0.915 1.8 0
1.04 1.8 0
1.165 1.8 0
1.29 1.8 0
1.415 1.8 0
1.54 1.8 0
1.665 1.8 0
1.79 1.8 0
1.915 1.8 0
2.04 1.8 0
2.165 1.8 0
2.29 1.8 0
2.415 1.8 0
2.54 1.8 0
2.665 1.8 0
2.79 1.8 0
2.915 1.8 0
3.04 1.8 0
3.165 1.8 0
3.29 1.8 0
3.415 1.8 0
3.54 1.8 0
3.665 1.8 0
3.79 1.8 0
3.915 1.8 0
4.04 1.8 0
4.165 1.8 0
4.29 1.8 0
4.415 1.8 0
4.54 1.8 0
4.665 1.8 0
4.79 1.8 0
4.915 1.8 0
5.04 1.8 0
5.165 1.8 0
5.29 1.8 0
5.415 1.8 0
5.54 1.8 0
0.57 1.9 0
0.695 1.9 0
0.82 1.9 0
0.945 1.9 0
1.07 1.9 0
1.195 1.9 0
1.32 1.9 0
1.445 1.9 0
1.57 1.9 0
1.695 1.9 0
1.82 1.9 0
1.945 1.9 0
2.07 1.9 0
2.195 1.9 0
2.32 1.9 0
2.445 1.9 0
2.57 1.9 0
2.695 1.9 0
2.82 1.9 0
2.945 1.9 0
3.07 1.9 0
3.195 1.9 0
3.32 1.9 0
3.445 1.9 0
3.57 1.9 0
3.695 1.9 0
3.82 1.9 0
3.945 1.9 0
4.07 1.9 0
4.195 1.9 0
4.32 1.9 0
4.445 1.9 0
4.57 1.9 0
4.695 1.9 0
4.82 1.9 0
4.945 1.9 0
5.07 1.9 0
5.195 1.9 0
5.32 1.9 0
5.445 1.9 0
5.57 1.9 0
0.6 2 0
0.725 2 0
0.85 2 0
0.975 2 0
1.1 2 0
1.225 2 0
1.35 2 0
1.475 2 0
1.6 2 0
1.725 2 0
1.85 2 0
1.975 2 0
2.1 2 0
2.225 2 0
2.35 2 0
2.475 2 0
2.6 2 0
2.725 2 0
2.85 2 0
2.975 2 0
3.1 2 0
3.225 2 0
3.35 2 0
3.475 2 0
3.6 2 0
3.725 2 0
3.85 2 0
3.975 2 0
4.1 2 0
4.225 2 0
4.35 2 0
4.475 2 0
4.6 2 0
4.725 2 0
4.85 2 0
4.975 2 0
5.1 2 0
5.225 2 0
5.35 2 0
5.475 2 0
5.6 2 0

CELLS 800 4000
4 0 1 42 41 
4 1 2 43 42 
4 2 3 44 43 
4 3 4 45 44 
4 4 5 46 45 
4 5 6 47 46 
4 6 7 48 47 
4 7 8 49 48 
4 8 9 50 49 
4 9 10 51 50 
4 10 11 52 51 
4 11 12 53 52 
4 12 13 54 53 
4 13 14 55 54 
4 14 15 56 55 
4 15 16 57 56 
4 16 17 58 57 
4 17 18 59 58 
4 18 19 60 59 
4 19 20 61 60 
4 20 21 62 61 
4 21 22 63 62 
4 22 23 64 63 
4 23 24 65 64 
4 24 25 66 65 
4 25 26 67 66 
4 26 27 68 67 
4 27 28 69 68 
4 28 29 70 69 
4 29 30 71 70 
4 30 31 72 71 
4 31 32 73 72 
4 32 33 74 73 
4 33 34 75 74 
4 34 35 76 75 
4 35 36 77 76 
4 36 37 78 77 
4 37 38 79 78 
4 38 39 80 79 
4 39 40 81 80 
4 41 42 83 82 
4 42 43 84 83 
4 43 44 85 84 
4 44 45 86 85 
4 45 46 87 86 
4 46 47 88 87 
4 47 48 89 88 
4 48 49 90 89 
4 49 50 91 90 
4 50 51 92 91 
4 51 52 93 92 
4 52 53 94 93 
4 53 54 95 94 
4 54 55 96 95 
4 55 56 97 96 
4 56 57 98 97 
4 57 58 99 98 
4 58 59 100 99 
4 59 60 101 100 
4 60 61 102 101 
4 61 62 103 102 
4 62 63 104 103 
4 63 64 105 104 
4 64 65 106 105 
4 65 66 107 106 
4 66 67 108 107 
4 67 68 109 108 
4 68 69 110 109 
4 69 70 111 110 
4 70 71 112 111 
4 71 72 113 112 
4 72 73 114 113 
4 73 74 115 114 
4 74 75 116 115 
4 75 76 117 116 
4 76 77 118 117 
4 77 78 119 118 
4 78 79 120 119 
4 79 80 121 120 
4 80 81 122 121 
4 82 83 124 123 
4 83 84 125 124 
4 84 85 126 125 
4 85 86 127 126 
4 86 87 128 127 
4 87 88 129 128 
4 88 89 130 129 
4 89 90 131 130 
4 90 91 132 131 
4 91 92 133 132 
4 92 93 134 133 
4 93 94 135 134 
4 94 95 136 135 
4 95 96 137 136 
4 96 97 138 137 
4 97 98 139 138 
4 98 99 140 139 
4 99 100 141 140 
4 100 101 142 141 
4 101 102 143 142 
4 102 103 144 143 
4 103 104 145 144 
4 104 105 146 145 
4 105 106 147 146 
4 106 107 148 147 
4 107 108 149 148 
4 108 109 150 149 
4 109 110 151 150 
4 110 111 152 151 
4 111 112 153 152 
4 112 113 154 153 
4 113 114 155 154 
4 114 115 156 155 
4 115 116 157 156 
4 116 117 158 157 
4 117 118 159 158 
4 118 119 160 159 
4 119 120 161 160 
4 120 121 162 161 
4 121 122 163 162 
4 123 124 165 164 
4 124 125 166 165 
4 125 126 167 166 
4 126 127 168 167 
4 127 128 169 168 
4 128 129 170 169 
4 129 130 171 170 
4 130 131 172 171 
4 131 132 173 172 
4 132 133 174 173 
4 133 134 175 174 
4 134 135 176 175 
4 135 136 177 176 
4 136 137 178 177 
4 137 138 179 178 
4 138 139 180 179 
4 139 140 181 180 
4 140 141 182 181 
4 141 142 183 182 
4 142 143 184 183 
4 143 144 185 184 
4 144 145 186 185 
4 145 146 187 186 
4 146 147 188 187 
4 147 148 189 188 
4 148 149 190 189 
4 149 150 191 190 
4 150 151 192 191 
4 151 152 193 192 
4 152 153 194 193 
4 153 154 195 194 
4 154 155 196 195 
4 155 156 197 196 
4 156 157 198 197 
4 157 158 199 198 
4 158 159 200 199 
4 159 160 201 200 
4 160 161 202 201 
4 161 162 203 202 
4 162 163 204 203 
4 164 165 206 205 
4 165 166 207 206 
4 166 167 208 207 
4 167 168 209 208 
4 168 169 210 209 
4 169 170 211 210 
4 170 171 212 211 
4 171 172 213 212 
4 172 173 214 213 
4 173 174 215 214 
4 174 175 216 215 
4 175 176 217 216 
4 176 177 218 217 
4 177 178 219 218 
4 178 179 220 219 
4 179 180 221 220 
4 180 181 222 221 
4 181 182 223 222 
4 182 183 224 223 
4 183 184 225 224 
4 184 185 226 225 
4 185 186 227 226 
4 186 187 228 227 
4 187 188 229 228 
4 188 189 230 229 
4 189 190 231 230 
4 190 191 232 231 
4 191 192 233 232 
4 192 193 234 233 
4 193 194 235 234 
4 194 195 236 235 
4 195 196 237 236 
4 196 197 238 237 
4 197 198 239 238 
4 198 199 240 239 
4 199 200 241 240 
4 200 201 242 241 
4 201 202 243 242 
4 202 203 244 243 
4 203 204 245 244 
4 205 206 247 246 
4 206 207 248 247 
4 207 208 249 248 
4 208 209 250 249 
4 209 210 251 250 
4 210 211 252 251 
4 211 212 253 252 
4 212 213 254 253 
4 213 214 255 254 
4 214 215 256 255 
4 215 216 257 256 
4 216 217 258 257 
4 217 218 259 258 
4 218 219 260 259 
4 219 220 261 260 
4 220 221 262 261 
4 221 222 263 262 
4 222 223 264 263 
4 223 224 265 264 
4 224 225 266 265 
4 225 226 267 266 
4 226 227 268 267 
4 227 228 269 268 
4 228 229 270 269 
4 229 230 271 270 
4 230 231 272 271 
4 231 232 273 272 
4 232 233 274 273 
4 233 234 275 274 
4 234 235 276 275 
4 235 236 277 276 
4 236 237 278 277 
4 237 238 279 278 
4 238 239 280 279 
4 239 240 281 280 
4 240 241 282 281 
4 241 242 283 282 
4 242 243 284 283 
4 243 244 285 284 
4 244 245 286 285 
4 246 247 288 287 
4 247 248 289 288 
4 248 249 290 289 
4 249 250 291 290 
4 250 251 292 291 
4 251 252 293 292 
4 252 253 294 293 
4 253 254 295 294 
4 254 255 296 295 
4 255 256 297 296 
4 256 257 298 297 
4 257 258 299 298 
4 258 259 300 299 
4 259 260 301 300 
4 260 261 302 301 
4 261 262 303 302 
4 262 263 304 303 
4 263 264 305 304 
4 264 265 306 305 
4 265 266 307 306 
4 266 267 308 307 
4 267 268 309 308 
4 268 269 310 309 
4 269 270 311 310 
4 270 271 312 311 
4 271 272 313 312 
4 272 273 314 313 
4 273 274 315 314 
4 274 275 316 315 
4 275 276 317 316 
4 276 277 318 317 
4 277 278 319 318 
4 278 279 320 319 
4 279 280 321 320 
4 280 281 322 321 
4 281 282 323 322 
4 282 283 324 323 
4 283 284 325 324 
4 284 285 326 325 
4 285 286 327 326 
4 287 288 329 328 
4 288 289 330 329 
4 289 290 331 330 
4 290 291 332 331 
4 291 292 333 332 
4 292 293 334 333 
4 293 294 335 334 
4 294 295 336 335 
4 295 296 337 336 
4 296 297 338 337 
4 297 298 339 338 
4 298 299 340 339 
4 299 300 341 340 
4 300 301 342 341 
4 301 302 343 342 
4 302 303 344 343 
4 303 304 345 344 
4 304 305 346 345 
4 305 306 347 346 
4 306 307 348 347 
4 307 308 349 348 
4 308 309 350 349 
4 309 310 351 350 
4 310 311 352 351 
4 311 312 353 352 
4 312 313 354 353 
4 313 314 355 354 
4 314 315 356 355 
4 315 316 357 356 
4 316 317 358 357 
4 317 318 359 358 
4 318 319 360 359 
4 319 320 361 360 
4 320 321 362 361 
4 321 322 363 362 
4 322 323 364 363 
4 323 324 365 364 
4 324 325 366 365 
4 325 326 367 366 
4 326 327 368 367 
4 328 329 370 369 
4 329 330 371 370 
4 330 331 372 371 
4 331 332 373 372 
4 332 333 374 373 
4 333 334 375 374 
4 334 335 376 375 
4 335 336 377 376 
4 336 337 378 377 
4 337 338 379 378 
4 338 339 380 379 
4 339 340 381 380 
4 340 341 382 381 
4 341 342 383 382 
4 342 343 384 383 
4 343 344 385 384 
4 344 345 386 385 
4 345 346 387 386 
4 346 347 388 387 
4 347 348 389 388 
4 348 349 390 389 
4 349 350 391 390 
4 350 351 392 391 
4 351 352 393 392 
4 352 353 394 393 
4 353 354 395 394 
4 354 355 396 395 
4 355 356 397 396 
4 356 357 398 397 
4 357 358 399 398 
4 358 359 400 399 
4 359 360 401 400 
4 360 361 402 401 
4 361 362 403 402 
4 362 363 404 403 
4 363 364 405 404 
4 364 365 406 405 
4 365 366 407 406 
4 366 367 408 407 
4 367 368 409 408 
4 369 370 411 410 
4 370 371 412 411 
4 371 372 413 412 
4 372 373 414 413 
4 373 374 415 414 
4 374 375 416 415 
4 375 376 417 416 
4 376 377 418 417 
4 377 378 419 418 
4 378 379 420 419 
4 379 380 421 420 
4 380 381 422 421 
4 381 382 423 422 
4 382 383 424 423 
4 383 384 425 424 
4 384 385 426 425 
4 385 386 427 426 
4 386 387 428 427 
4 387 388 429 428 
4 388 389 430 429 
4 389 390 431 430 
4 390 391 432 431 
4 391 392 433 432 
4 392 393 434 433 
4 393 394 435 434 
4 394 395 436 435 
4 395 396 437 436 
4 396 397 438 437 
4 397 398 439 438 
4 398 399 440 439 
4 399 400 441 440 
4 400 401 442 441 
4 401 402 443 442 
4 402 403 444 443 
4 403 404 445 444 
4 404 405 446 445 
4 405 406 447 446 
4 406 407 448 447 
4 407 408 449 448 
4 408 409 450 449 
4 410 411 452 451 
4 411 412 453 452 
4 412 413 454 453 
4 413 414 455 454 
4 414 415 456 455 
4 415 416 457 456 
4 416 417 458 457 
4 417 418 459 458 
4 418 419 460 459 
4 419 420 461 460 
4 420 421 462 461 
4 421 422 463 462 
4 422 423 464 463 
4 423 424 465 464 
4 424 425 466 465 
4 425 426 467 466 
4 426 427 468 467 
4 427 428 469 468 
4 428 429 470 469 
4 429 430 471 470 
4 430 431 472 471 
4 431 432 473 472 
4 432 433 474 473 
4 433 434 475 474 
4 434 435 476 475 
4 435 436 477 476 
4 436 437 478 477 
4 437 438 479 478 
4 438 439 480 479 
4 439 440 481 480 
4 440 441 482 481 
4 441 442 483 482 
4 442 443 484 483 
4 443 444 485 484 
4 444 445 486 485 
4 445 446 487 486 
4 446 447 488 487 
4 447 448 489 488 
4 448 449 490 489 
4 449 450 491 490 
4 451 452 493 492 
4 452 453 494 493 
4 453 454 495 494 
4 454 455 496 495 
4 455 456 497 496 
4 456 457 498 497 
4 457 458 499 498 
4 458 459 500 499 
4 459 460 501 500 
4 460 461 502 501 
4 461 462 503 502 
4 462 463 504 503 
4 463 464 505 504 
4 464 465 506 505 
4 465 466 507 506 
4 466 467 508 507 
4 467 468 509 508 
4 468 469 510 509 
4 469 470 511 510 
4 470 471 512 511 
4 471 472 513 512 
4 472 473 514 513 
4 473 474 515 514 
4 474 475 516 515 
4 475 476 517 516 
4 476 477 518 517 
4 477 478 519 518 
4 478 479 520 519 
4 479 480 521 520 
4 480 481 522 521 
4 481 482 523 522 
4 482 483 524 523 
4 483 484 525 524 
4 484 485 526 525 
4 485 486 527 526 
4 486 487 528 527 
4 487 488 529 528 
4 488 489 530 529 
4 489 490 531 530 
4 490 491 532 531 
4 492 493 534 533 
4 493 494 535 534 
4 494 495 536 535 
4 495 496 537 536 
4 496 497 538 537 
4 497 498 539 538 
4 498 499 540 539 
4 499 500 541 540 
4 500 501 542 541 
4 501 502 543 542 
4 502 503 544 543 
4 503 504 545 544 
4 504 505 546 545 
4 505 506 547 546 
4 506 507 548 547 
4 507 508 549 548 
4 508 509 550 549 
4 509 510 551 550 
4 510 511 552 551 
4 511 512 553 552 
4 512 513 554 553 
4 513 514 555 554 
4 514 515 556 555 
4 515 516 557 556 
4 516 517 558 557 
4 517 518 559 558 
4 518 519 560 559 
4 519 520 561 560 
4 520 521 562 561 
4 521 522 563 562 
4 522 523 564 563 
4 523 524 565 564 
4 524 525 566 565 
4 525 526 567 566 
4 526 527 568 567 
4 527 528 569 568 
4 528 529 570 569 
4 529 530 571 570 
4 530 531 572 571 
4 531 532 573 572 
4 533 534 575 574 
4 534 535 576 575 
4 535 536 577 576 
4 536 537 578 577 
4 537 538 579 578 
4 538 539 580 579 
4 539 540 581 580 
4 540 541 582 581 
4 541 542 583 582 
4 542 543 584 583 
4 543 544 585 584 
4 544 545 586 585 
4 545 546 587 586 
4 546 547 588 587 
4 547 548 589 588 
4 548 549 590 589 
4 549 550 591 590 
4 550 551 592 591 
4 551 552 593 592 
4 552 553 594 593 
4 553 554 595 594 
4 554 555 596 595 
4 555 556 597 596 
4 556 557 598 597 
4 557 558 599 598 
4 558 559 600 599 
4 559 560 601 600 
4 560 561 602 601 
4 561 562 603 602 
4 562 563 604 603 
4 563 564 605 604 
4 564 565 606 605 
4 565 566 607 606 
4 566 567 608 607 
4 567 568 609 608 
4 568 569 610 609 
4 569 570 611 610 
4 570 571 612 611 
4 571 572 613 612 
4 572 573 614 613 
4 574 575 616 615 
4 575 576 617 616 
4 576 577 618 617 
4 577 578 619 618 
4 578 579 620 619 
4 579 580 621 620 
4 580 581 622 621 
4 581 582 623 622 
4 582 583 624 623 
4 583 584 625 624 
4 584 585 626 625 
4 585 586 627 626 
4 586 587 628 627 
4 587 588 629 628 
4 588 589 630 629 
4 589 590 631 630 
4 590 591 632 631 
4 591 592 633 632 
4 592 593 634 633 
4 593 594 635 634 
4 594 595 636 635 
4 595 596 637 636 
4 596 597 638 637 
4 597 598 639 638 
4 598 599 640 639 
4 599 600 641 640 
4 600 601 642 641 
4 601 602 643 642 
4 602 603 644 643 
4 603 604 645 644 
4 604 605 646 645 
4 605 606 647 646 
4 606 607 648 647 
4 607 608 649 648 
4 608 609 650 649 
4 609 610 651 650 
4 610 611 652 651 
4 611 612 653 652 
4 612 613 654 653 
4 613 614 655 654 
4 615 616 657 656 
4 616 617 658 657 
4 617 618 659 658 
4 618 619 660 659 
4 619 620 661 660 
4 620 621 662 661 
4 621 622 663 662 
4 622 623 664 663 
4 623 624 665 664 
4 624 625 666 665 
4 625 626 667 666 
4 626 627 668 667 
4 627 628 669 668 
4 628 629 670 669 
4 629 630 671 670 
4 630 631 672 671 
4 631 632 673 672 
4 632 633 674 673 
4 633 634 675 674 
4 634 635 676 675 
4 635 636 677 676 
4 636 637 678 677 
4 637 638 679 678 
4 638 639 680 679 
4 639 640 681 680 
4 640 641 682 681 
4 641 642 683 682 
4 642 643 684 683 
4 643 644 685 684 
4 644 645 686 685 
4 645 646 687 686 
4 646 647 688 687 
4 647 648 689 688 
4 648 649 690 689 
4 649 650 691 690 
4 650 651 692 691 
4 651 652 693 692 
4 652 653 694 693 
4 653 654 695 694 
4 654 655 696 695 
4 656 657 698 697 
4 657 658 699 698 
4 658 659 700 699 
4 659 660 701 700 
4 660 661 702 701 
4 661 662 703 702 
4 662 663 704 703 
4 663 664 705 704 
4 664 665 706 705 
4 665 666 707 706 
4 666 667 708 707 
4 667 668 709 708 
4 668 669 710 709 
4 669 670 711 710 
4 670 671 712 711 
4 671 672 713 712 
4 672 673 714 713 
4 673 674 715 714 
4 674 675 716 715 
4 675 676 717 716 
4 676 677 718 717 
4 677 678 719 718 
4 678 679 720 719 
4 679 680 721 720 
4 680 681 722 721 
4 681 682 723 722 
4 682 683 724 723 
4 683 684 725 724 
4 684 685 726 725 
4 685 686 727 726 
4 686 687 728 727 
4 687 688 729 728 
4 688 689 730 729 
4 689 690 731 730 
4 690 691 732 731 
4 691 692 733 732 
4 692 693 734 733 
4 693 694 735 734 
4 694 695 736 735 
4 695 696 737 736 
4 697 698 739 738 
4 698 699 740 739 
4 699 700 741 740 
4 700 701 742 741 
4 701 702 743 742 
4 702 703 744 743 
4 703 704 745 744 
4 704 705 746 745 
4 705 706 747 746 
4 706 707 748 747 
4 707 708 749 748 
4 708 709 750 749 
4 709 710 751 750 
4 710 711 752 751 
4 711 712 753 752 
4 712 713 754 753 
4 713 714 755 754 
4 714 715 756 755 
4 715 716 757 756 
4 716 717 758 757 
4 717 718 759 758 
4 718 719 760 759 
4 719 720 761 760 
4 720 721 762 761 
4 721 722 763 762 
4 722 723 764 763 
4 723 724 765 764 
4 724 725 766 765 
4 725 726 767 766 
4 726 727 768 767 
4 727 728 769 768 
4 728 729 770 769 
4 729 730 771 770 
4 730 731 772 771 
4 731 732 773 772 
4 732 733 774 773 
4 733 734 775 774 
4 734 735 776 775 
4 735 736 777 776 
4 736 737 778 777 
4 738 739 780 779 
4 739 740 781 780 
4 740 741 782 781 
4 741 742 783 782 
4 742 743 784 783 
4 743 744 785 784 
4 744 745 786 785 
4 745 746 787 786 
4 746 747 788 787 
4 747 748 789 788 
4 748 749 790 789 
4 749 750 791 790 
4 750 751 792 791 
4 751 752 793 792 
4 752 753 794 793 
4 753 754 795 794 
4 754 755 796 795 
4 755 756 797 796 
4 756 757 798 797 
4 757 758 799 798 
4 758 759 800 799 
4 759 760 801 800 
4 760 761 802 801 
4 761 762 803 802 
4 762 763 804 803 
4 763 764 805 804 
4 764 765 806 805 
4 765 766 807 806 
4 766 767 808 807 
4 767 768 809 808 
4 768 769 810 809 
4 769 770 811 810 
4 770 771 812 811 
4 771 772 813 812 
4 772 773 814 813 
4 773 774 815 814 
4 774 775 816 815 
4 775 776 817 816 
4 776 777 818 817 
4 777 778 819 818 
4 779 780 821 820 
4 780 781 822 821 
4 781 782 823 822 
4 782 783 824 823 
4 783 784 825 824 
4 784 785 826 825 
4 785 786 827 826 
4 786 787 828 827 
4 787 788 829 828 
4 788 789 830 829 
4 789 790 831 830 
4 790 791 832 831 
4 791 792 833 832 
4 792 793 834 833 
4 793 794 835 834 
4 794 795 836 835 
4 795 796 837 836 
4 796 797 838 837 
4 797 798 839 838 
4 798 799 840 839 
4 799 800 841 840 
4 800 801 842 841 
4 801 802 843 842 
4 802 803 844 843 
4 803 804 845 844 
4 804 805 846 845 
4 805 806 847 846 
4 806 807 848 847 
4 807 808 849 848 
4 808 809 850 849 
4 809 810 851 850 
4 810 811 852 851 
4 811 812 853 852 
4 812 813 854 853 
4 813 814 855 854 
4 814 815 856 855 
4 815 816 857 856 
4 816 817 858 857 
4 817 818 859 858 
4 818 819 860 859 

CELL_TYPES 800
9
9
9
9
9
9
9
9
9
9
9
9
9
9
9
9
9
9
9
9
9
9
9
9
9
9
9
9
9
9
9
9
9
9
9
9
9
9
9
9
9
9
9
9
9
9
9
9
9
9
9
9
9
9
9
9
9
9
9
9
9
9
9
9
9
9
9
9
9
9
9
9
9
9
9
9
9
9
9
9
9
9
9
9
9
9
9
9
9
9
9
9
9
9
9
9
9
9
9
9
9
9
9
9
9
9
9
9
9
9
9
9
9
9
9
9
9
9
9
9
9
9
9
9
9
9
9
9
9
9
9
9
9
9
9
9
9
9
9
9
9
9
9
9
9
9
9
9
9
9
9
9
9
9
9
9
9
9
9
9
9
9
9
9
9
9
9
9
9
9
9
9
9
9
9
9
9
9
9
9
9
9
9
9
9
9
9
9
9
9
9
9
9
9
9
9
9
9
9
9
9
9
9
9
9
9
9
9
9
9
9
9
9
9
9
9
9
9
9
9
9
9
9
9
9
9
9
9
9
9
9
9
9
9
9
9
9
9
9
9
9
9
9
9
9
9
9
9
9
9
9
9
9
9
9
9
9
9
9
9
9
9
9
9
9
9
9
9
9
9
9
9
9
9
9
9
9
9
9
9
9
9
9
9
9
9
9
9
9
9
9
9
9
9
9
9
9
9
9
9
9
9
9
9
9
9
9
9
9
9
9
9
9
9
9
9
9
9
9
9
9
9
9
9
9
9
9
9
9
9
9
9
9
9
9
9
9
9
9
9
9
9
9
9
9
9
9
9
9
9
9
9
9
9
9
9
9
9
9
9
9
9
9
9
9
9
9
9
9
9
9
9
9
9
9
9
9
9
9
9
9
9
9
9
9
9
9
9
9
9
9
9
9
9
9
9
9
9
9
9
9
9
9
9
9
9
9
9
9
9
9
9
9
9
9
9
9
9
9
9
9
9
9
9
9
9
9
9
9
9
9
9
9
9
9
9
9
9
9
9
9
9
9
9
9
9
9
9
9
9
9
9
9
9
9
9
9
9
9
9
9
9
9
9
9
9
9
9
9
9
9
9
9
9
9
9
9
9
9
9
9
9
9
9
9
9
9
9
9
9
9
9
9
9
9
9
9
9
9
9
9
9
9
9
9
9
9
9
9
9
9
9
9
9
9
9
9
9
9
9
9
9
9
9
9
9
9
9
9
9
9
9
9
9
9
9
9
9
9
9
9
9
9
9
9
9
9
9
9
9
9
9
9
9
9
9
9
9
9
9
9
9
9
9
9
9
9
9
9
9
9
9
9
9
9
9
9
9
9
9
9
9
9
9
9
9
9
9
9
9
9
9
9
9
9
9
9
9
9
9
9
9
9
9
9
9
9
9
9
9
9
9
9
9
9
9
9
9
9
9
9
9
9
9
9
9
9
9
9
9
9
9
9
9
9
9
9
9
9
9
9
9
9
9
9
9
9
9
9
9
9
9
9
9
9
9
9
9
9
9
9
9
9
9
9
9
9
9
9
9
9
9
9
9
9
9
9
9
9
9
9
9
9
9
9
9
9
9
9
9
9
9
9
9
9
9
9
9
9
9
9
9
9
9
9
9
9
9
9
9
9
9
9
9
9
9
9
9
9
9
9
9
9
9
9
9
9
9
9
9
9
9
9
9
9
9
9
9
9
9
9
9
9
9
9
9
9
9
9
9
9
9
9
9
9
9
9
9
9
9
9
9
9
9
9
9
9
9
9
9
9
9
9
9
9
9
9
9
9
9
9
9
9
9
9
9
9
9
9
9
9
9
9
9
9
9
9
9
9
9
