# vtk DataFile Version 3.0
Cartesian Mesh
ASCII
DATASET UNSTRUCTURED_GRID

POINTS 861 float
0 0 0
0.108253 0.0625 0
0.216506 0.125 0
0.32476 0.1875 0
0.433013 0.25 0
0.541266 0.3125 0
0.649519 0.375 0
0.757772 0.4375 0
0.866025 0.5 0
0.974279 0.5625 0
1.08253 0.625 0
1.19078 0.6875 0
1.29904 0.75 0
1.40729 0.8125 0
1.51554 0.875 0
1.6238 0.9375 0
1.73205 1 0
1.8403 1.0625 0
1.94856 1.125 0
2.05681 1.1875 0
2.16506 1.25 0
2.27332 1.3125 0
2.38157 1.375 0
2.48982 1.4375 0
2.59808 1.5 0
2.70633 1.5625 0
2.81458 1.625 0
2.92284 1.6875 0
3.03109 1.75 0
3.13934 1.8125 0
3.2476 1.875 0
3.35585 1.9375 0
3.4641 2 0
3.57235 2.0625 0
3.68061 2.125 0
3.78886 2.1875 0
3.89711 2.25 0
4.00537 2.3125 0
4.11362 2.375 0
4.22187 2.4375 0
4.33013 2.5 0
-0.05 0.0866025 0
0.0582532 0.149103 0
0.166506 0.211603 0
0.27476 0.274103 0
0.383013 0.336603 0
0.491266 0.399103 0
0.599519 0.461603 0
0.707772 0.524103 0
0.816025 0.586603 0
0.924279 0.649103 0
1.03253 0.711603 0
1.14078 0.774103 0
1.24904 0.836603 0
1.35729 0.899103 0
1.46554 0.961603 0
1.5738 1.0241 0
1.68205 1.0866 0
1.7903 1.1491 0
1.89856 1.2116 0
2.00681 1.2741 0
2.11506 1.3366 0
2.22332 1.3991 0
2.33157 1.4616 0
2.43982 1.5241 0
2.54808 1.5866 0
2.65633 1.6491 0
2.76458 1.7116 0
2.87284 1.7741 0
2.98109 1.8366 0
3.08934 1.8991 0
3.1976 1.9616 0
3.30585 2.0241 0
3.4141 2.0866 0
3.52235 2.1491 0
3.63061 2.2116 0
3.73886 2.2741 0
3.84711 2.3366 0
3.95537 2.3991 0
4.06362 2.4616 0
4.17187 2.5241 0
4.28013 2.5866 0
-0.1 0.173205 0
0.00825318 0.235705 0
0.116506 0.298205 0
0.22476 0.360705 0
0.333013 0.423205 0
0.441266 0.485705 0
0.549519 0.548205 0
0.657772 0.610705 0
0.766025 0.673205 0
0.874279 0.735705 0
0.982532 0.798205 0
1.09078 0.860705 0
1.19904 0.923205 0
1.30729 0.985705 0
1.41554 1.04821 0
1.5238 1.11071 0
1.63205 1.17321 0
1.7403 1.23571 0
1.84856 1.29821 0
1.95681 1.36071 0
2.06506 1.42321 0
2.17332 1.48571 0
2.28157 1.54821 0
2.38982 1.61071 0
2.49808 1.67321 0
2.60633 1.73571 0
2.71458 1.79821 0
2.82284 1.86071 0
2.93109 1.92321 0
3.03934 1.98571 0
3.1476 2.04821 0
3.25585 2.11071 0
3.3641 2.17321 0
3.47235 2.23571 0
3.58061 2.29821 0
3.68886 2.36071 0
3.79711 2.42321 0
3.90537 2.48571 0
4.01362 2.54821 0
4.12187 2.61071 0
4.23013 2.67321 0
-0.15 0.259808 0
-0.0417468 0.322308 0
0.0665064 0.384808 0
0.17476 0.447308 0
0.283013 0.509808 0
0.391266 0.572308 0
0.499519 0.634808 0
0.607772 0.697308 0
0.716025 0.759808 0
0.824279 0.822308 0
0.932532 0.884808 0
1.04078 0.947308 0
1.14904 1.00981 0
1.25729 1.07231 0
1.36554 1.13481 0
1.4738 1.19731 0
1.58205 1.25981 0
1.6903 1.32231 0
1.79856 1.38481 0
1.90681 1.44731 0
2.01506 1.50981 0
2.12332 1.57231 0
2.23157 1.63481 0
2.33982 1.69731 0
2.44808 1.75981 0
2.55633 1.82231 0
2.66458 1.88481 0
2.77284 1.94731 0
2.88109 2.00981 0
2.98934 2.07231 0
3.0976 2.13481 0
3.20585 2.19731 0
3.3141 2.25981 0
3.42235 2.32231 0
3.53061 2.38481 0
3.63886 2.44731 0
3.74711 2.50981 0
3.85537 2.57231 0
3.96362 2.63481 0
4.07187 2.69731 0
4.18013 2.75981 0
-0.2 0.34641 0
-0.0917468 0.40891 0
0.0165064 0.47141 0
0.12476 0.53391 0
0.233013 0.59641 0
0.341266 0.65891 0
0.449519 0.72141 0
0.557772 0.78391 0
0.666025 0.84641 0
0.774279 0.90891 0
0.882532 0.97141 0
0.990785 1.03391 0
1.09904 1.09641 0
1.20729 1.15891 0
1.31554 1.22141 0
1.4238 1.28391 0
1.53205 1.34641 0
1.6403 1.40891 0
1.74856 1.47141 0
1.85681 1.53391 0
1.96506 1.59641 0
2.07332 1.65891 0
2.18157 1.72141 0
2.28982 1.78391 0
2.39808 1.84641 0
2.50633 1.90891 0
2.61458 1.97141 0
2.72284 2.03391 0
2.83109 2.09641 0
2.93934 2.15891 0
3.0476 2.22141 0
3.15585 2.28391 0
3.2641 2.34641 0
3.37235 2.40891 0
3.48061 2.47141 0
3.58886 2.53391 0
3.69711 2.59641 0
3.80537 2.65891 0
3.91362 2.72141 0
4.02187 2.78391 0
4.13013 2.84641 0
-0.25 0.433013 0
-0.141747 0.495513 0
-0.0334936 0.558013 0
0.0747595 0.620513 0
0.183013 0.683013 0
0.291266 0.745513 0
0.399519 0.808013 0
0.507772 0.870513 0
0.616025 0.933013 0
0.724279 0.995513 0
0.832532 1.05801 0
0.940785 1.12051 0
1.04904 1.18301 0
1.15729 1.24551 0
1.26554 1.30801 0
1.3738 1.37051 0
1.48205 1.43301 0
1.5903 1.49551 0
1.69856 1.55801 0
1.80681 1.62051 0
1.91506 1.68301 0
2.02332 1.74551 0
2.13157 1.80801 0
2.23982 1.87051 0
2.34808 1.93301 0
2.45633 1.99551 0
2.56458 2.05801 0
2.67284 2.12051 0
2.78109 2.18301 0
2.88934 2.24551 0
2.9976 2.30801 0
3.10585 2.37051 0
3.2141 2.43301 0
3.32235 2.49551 0
3.43061 2.55801 0
3.53886 2.62051 0
3.64711 2.68301 0
3.75537 2.74551 0
3.86362 2.80801 0
3.97187 2.87051 0
4.08013 2.93301 0
-0.3 0.519615 0
-0.191747 0.582115 0
-0.0834936 0.644615 0
0.0247595 0.707115 0
0.133013 0.769615 0
0.241266 0.832115 0
0.349519 0.894615 0
0.457772 0.957115 0
0.566025 1.01962 0
0.674279 1.08212 0
0.782532 1.14462 0
0.890785 1.20712 0
0.999038 1.26962 0
1.10729 1.33212 0
1.21554 1.39462 0
1.3238 1.45712 0
1.43205 1.51962 0
1.5403 1.58212 0
1.64856 1.64462 0
1.75681 1.70712 0
1.86506 1.76962 0
1.97332 1.83212 0
2.08157 1.89462 0
2.18982 1.95712 0
2.29808 2.01962 0
2.40633 2.08212 0
2.51458 2.14462 0
2.62284 2.20712 0
2.73109 2.26962 0
2.83934 2.33212 0
2.9476 2.39462 0
3.05585 2.45712 0
3.1641 2.51962 0
3.27235 2.58212 0
3.38061 2.64462 0
3.48886 2.70712 0
3.59711 2.76962 0
3.70537 2.83212 0
3.81362 2.89462 0
3.92187 2.95712 0
4.03013 3.01962 0
-0.35 0.606218 0
-0.241747 0.668718 0
-0.133494 0.731218 0
-0.0252405 0.793718 0
0.0830127 0.856218 0
0.191266 0.918718 0
0.299519 0.981218 0
0.407772 1.04372 0
0.516025 1.10622 0
0.624279 1.16872 0
0.732532 1.23122 0
0.840785 1.29372 0
0.949038 1.35622 0
1.05729 1.41872 0
1.16554 1.48122 0
1.2738 1.54372 0
1.38205 1.60622 0
1.4903 1.66872 0
1.59856 1.73122 0
1.70681 1.79372 0
1.81506 1.85622 0
1.92332 1.91872 0
2.03157 1.98122 0
2.13982 2.04372 0
2.24808 2.10622 0
2.35633 2.16872 0
2.46458 2.23122 0
2.57284 2.29372 0
2.68109 2.35622 0
2.78934 2.41872 0
2.8976 2.48122 0
3.00585 2.54372 0
3.1141 2.60622 0
3.22235 2.66872 0
3.33061 2.73122 0
3.43886 2.79372 0
3.54711 2.85622 0
3.65537 2.91872 0
3.76362 2.98122 0
3.87187 3.04372 0
3.98013 3.10622 0
-0.4 0.69282 0
-0.291747 0.75532 0
-0.183494 0.81782 0
-0.0752405 0.88032 0
0.0330127 0.94282 0
0.141266 1.00532 0
0.249519 1.06782 0
0.357772 1.13032 0
0.466025 1.19282 0
0.574279 1.25532 0
0.682532 1.31782 0
0.790785 1.38032 0
0.899038 1.44282 0
1.00729 1.50532 0
1.11554 1.56782 0
1.2238 1.63032 0
1.33205 1.69282 0
1.4403 1.75532 0
1.54856 1.81782 0
1.65681 1.88032 0
1.76506 1.94282 0
1.87332 2.00532 0
1.98157 2.06782 0
2.08982 2.13032 0
2.19808 2.19282 0
2.30633 2.25532 0
2.41458 2.31782 0
2.52284 2.38032 0
2.63109 2.44282 0
2.73934 2.50532 0
2.8476 2.56782 0
2.95585 2.63032 0
3.0641 2.69282 0
3.17235 2.75532 0
3.28061 2.81782 0
3.38886 2.88032 0
3.49711 2.94282 0
3.60537 3.00532 0
3.71362 3.06782 0
3.82187 3.13032 0
3.93013 3.19282 0
-0.45 0.779423 0
-0.341747 0.841923 0
-0.233494 0.904423 0
-0.12524 0.966923 0
-0.0169873 1.02942 0
0.0912659 1.09192 0
0.199519 1.15442 0
0.307772 1.21692 0
0.416025 1.27942 0
0.524279 1.34192 0
0.632532 1.40442 0
0.740785 1.46692 0
0.849038 1.52942 0
0.957291 1.59192 0
1.06554 1.65442 0
1.1738 1.71692 0
1.28205 1.77942 0
1.3903 1.84192 0
1.49856 1.90442 0
1.60681 1.96692 0
1.71506 2.02942 0
1.82332 2.09192 0
1.93157 2.15442 0
2.03982 2.21692 0
2.14808 2.27942 0
2.25633 2.34192 0
2.36458 2.40442 0
2.47284 2.46692 0
2.58109 2.52942 0
2.68934 2.59192 0
2.7976 2.65442 0
2.90585 2.71692 0
3.0141 2.77942 0
3.12235 2.84192 0
3.23061 2.90442 0
3.33886 2.96692 0
3.44711 3.02942 0
3.55537 3.09192 0
3.66362 3.15442 0
3.77187 3.21692 0
3.88013 3.27942 0
-0.5 0.866025 0
-0.391747 0.928525 0
-0.283494 0.991025 0
-0.17524 1.05353 0
-0.0669873 1.11603 0
0.0412659 1.17853 0
0.149519 1.24103 0
0.257772 1.30353 0
0.366025 1.36603 0
0.474279 1.42853 0
0.582532 1.49103 0
0.690785 1.55353 0
0.799038 1.61603 0
0.907291 1.67853 0
1.01554 1.74103 0
1.1238 1.80353 0
1.23205 1.86603 0
1.3403 1.92853 0
1.44856 1.99103 0
1.55681 2.05353 0
1.66506 2.11603 0
1.77332 2.17853 0
1.88157 2.24103 0
1.98982 2.30353 0
2.09808 2.36603 0
2.20633 2.42853 0
2.31458 2.49103 0
2.42284 2.55353 0
2.53109 2.61603 0
2.63934 2.67853 0
2.7476 2.74103 0
2.85585 2.80353 0
2.9641 2.86603 0
3.07235 2.92853 0
3.18061 2.99103 0
3.28886 3.05353 0
3.39711 3.11603 0
3.50537 3.17853 0
3.61362 3.24103 0
3.72187 3.30353 0
3.83013 3.36603 0
-0.55 0.952628 0
-0.441747 1.01513 0
-0.333494 1.07763 0
-0.22524 1.14013 0
-0.116987 1.20263 0
-0.00873412 1.26513 0
0.0995191 1.32763 0
0.207772 1.39013 0
0.316025 1.45263 0
0.424279 1.51513 0
0.532532 1.57763 0
0.640785 1.64013 0
0.749038 1.70263 0
0.857291 1.76513 0
0.965544 1.82763 0
1.0738 1.89013 0
1.18205 1.95263 0
1.2903 2.01513 0
1.39856 2.07763 0
1.50681 2.14013 0
1.61506 2.20263 0
1.72332 2.26513 0
1.83157 2.32763 0
1.93982 2.39013 0
2.04808 2.45263 0
2.15633 2.51513 0
2.26458 2.57763 0
2.37284 2.64013 0
2.48109 2.70263 0
2.58934 2.76513 0
2.6976 2.82763 0
2.80585 2.89013 0
2.9141 2.95263 0
3.02235 3.01513 0
3.13061 3.07763 0
3.23886 3.14013 0
3.34711 3.20263 0
3.45537 3.26513 0
3.56362 3.32763 0
3.67187 3.39013 0
3.78013 3.45263 0
-0.6 1.03923 0
-0.491747 1.10173 0
-0.383494 1.16423 0
-0.27524 1.22673 0
-0.166987 1.28923 0
-0.0587341 1.35173 0
0.0495191 1.41423 0
0.157772 1.47673 0
0.266025 1.53923 0
0.374279 1.60173 0
0.482532 1.66423 0
0.590785 1.72673 0
0.699038 1.78923 0
0.807291 1.85173 0
0.915544 1.91423 0
1.0238 1.97673 0
1.13205 2.03923 0
1.2403 2.10173 0
1.34856 2.16423 0
1.45681 2.22673 0
1.56506 2.28923 0
1.67332 2.35173 0
1.78157 2.41423 0
1.88982 2.47673 0
1.99808 2.53923 0
2.10633 2.60173 0
2.21458 2.66423 0
2.32284 2.72673 0
2.43109 2.78923 0
2.53934 2.85173 0
2.6476 2.91423 0
2.75585 2.97673 0
2.8641 3.03923 0
2.97235 3.10173 0
3.08061 3.16423 0
3.18886 3.22673 0
3.29711 3.28923 0
3.40537 3.35173 0
3.51362 3.41423 0
3.62187 3.47673 0
3.73013 3.53923 0
-0.65 1.12583 0
-0.541747 1.18833 0
-0.433494 1.25083 0
-0.32524 1.31333 0
-0.216987 1.37583 0
-0.108734 1.43833 0
-0.000480947 1.50083 0
0.107772 1.56333 0
0.216025 1.62583 0
0.324279 1.68833 0
0.432532 1.75083 0
0.540785 1.81333 0
0.649038 1.87583 0
0.757291 1.93833 0
0.865544 2.00083 0
0.973798 2.06333 0
1.08205 2.12583 0
1.1903 2.18833 0
1.29856 2.25083 0
1.40681 2.31333 0
1.51506 2.37583 0
1.62332 2.43833 0
1.73157 2.50083 0
1.83982 2.56333 0
1.94808 2.62583 0
2.05633 2.68833 0
2.16458 2.75083 0
2.27284 2.81333 0
2.38109 2.87583 0
2.48934 2.93833 0
2.5976 3.00083 0
2.70585 3.06333 0
2.8141 3.12583 0
2.92235 3.18833 0
3.03061 3.25083 0
3.13886 3.31333 0
3.24711 3.37583 0
3.35537 3.43833 0
3.46362 3.50083 0
3.57187 3.56333 0
3.68013 3.62583 0
-0.7 1.21244 0
-0.591747 1.27494 0
-0.483494 1.33744 0
-0.37524 1.39994 0
-0.266987 1.46244 0
-0.158734 1.52494 0
-0.0504809 1.58744 0
0.0577722 1.64994 0
0.166025 1.71244 0
0.274279 1.77494 0
0.382532 1.83744 0
0.490785 1.89994 0
0.599038 1.96244 0
0.707291 2.02494 0
0.815544 2.08744 0
0.923798 2.14994 0
1.03205 2.21244 0
1.1403 2.27494 0
1.24856 2.33744 0
1.35681 2.39994 0
1.46506 2.46244 0
1.57332 2.52494 0
1.68157 2.58744 0
1.78982 2.64994 0
1.89808 2.71244 0
2.00633 2.77494 0
2.11458 2.83744 0
2.22284 2.89994 0
2.33109 2.96244 0
2.43934 3.02494 0
2.5476 3.08744 0
2.65585 3.14994 0
2.7641 3.21244 0
2.87235 3.27494 0
2.98061 3.33744 0
3.08886 3.39994 0
3.19711 3.46244 0
3.30537 3.52494 0
3.41362 3.58744 0
3.52187 3.64994 0
3.63013 3.71244 0
-0.75 1.29904 0
-0.641747 1.36154 0
-0.533494 1.42404 0
-0.42524 1.48654 0
-0.316987 1.54904 0
-0.208734 1.61154 0
-0.100481 1.67404 0
0.00777223 1.73654 0
0.116025 1.79904 0
0.224279 1.86154 0
0.332532 1.92404 0
0.440785 1.98654 0
0.549038 2.04904 0
0.657291 2.11154 0
0.765544 2.17404 0
0.873798 2.23654 0
0.982051 2.29904 0
1.0903 2.36154 0
1.19856 2.42404 0
1.30681 2.48654 0
1.41506 2.54904 0
1.52332 2.61154 0
1.63157 2.67404 0
1.73982 2.73654 0
1.84808 2.79904 0
1.95633 2.86154 0
2.06458 2.92404 0
2.17284 2.98654 0
2.28109 3.04904 0
2.38934 3.11154 0
2.4976 3.17404 0
2.60585 3.23654 0
2.7141 3.29904 0
2.82235 3.36154 0
2.93061 3.42404 0
3.03886 3.48654 0
3.14711 3.54904 0
3.25537 3.61154 0
3.36362 3.67404 0
3.47187 3.73654 0
3.58013 3.79904 0
-0.8 1.38564 0
-0.691747 1.44814 0
-0.583494 1.51064 0
-0.47524 1.57314 0
-0.366987 1.63564 0
-0.258734 1.69814 0
-0.150481 1.76064 0
-0.0422278 1.82314 0
0.0660254 1.88564 0
0.174279 1.94814 0
0.282532 2.01064 0
0.390785 2.07314 0
0.499038 2.13564 0
0.607291 2.19814 0
0.715544 2.26064 0
0.823798 2.32314 0
0.932051 2.38564 0
1.0403 2.44814 0
1.14856 2.51064 0
1.25681 2.57314 0
1.36506 2.63564 0
1.47332 2.69814 0
1.58157 2.76064 0
1.68982 2.82314 0
1.79808 2.88564 0
1.90633 2.94814 0
2.01458 3.01064 0
2.12284 3.07314 0
2.23109 3.13564 0
2.33934 3.19814 0
2.4476 3.26064 0
2.55585 3.32314 0
2.6641 3.38564 0
2.77235 3.44814 0
2.88061 3.51064 0
2.98886 3.57314 0
3.09711 3.63564 0
3.20537 3.69814 0
3.31362 3.76064 0
3.42187 3.82314 0
3.53013 3.88564 0
-0.85 1.47224 0
-0.741747 1.53474 0
-0.633494 1.59724 0
-0.52524 1.65974 0
-0.416987 1.72224 0
-0.308734 1.78474 0
-0.200481 1.84724 0
-0.0922278 1.90974 0
0.0160254 1.97224 0
0.124279 2.03474 0
0.232532 2.09724 0
0.340785 2.15974 0
0.449038 2.22224 0
0.557291 2.28474 0
0.665544 2.34724 0
0.773798 2.40974 0
0.882051 2.47224 0
0.990304 2.53474 0
1.09856 2.59724 0
1.20681 2.65974 0
1.31506 2.72224 0
1.42332 2.78474 0
1.53157 2.84724 0
1.63982 2.90974 0
1.74808 2.97224 0
1.85633 3.03474 0
1.96458 3.09724 0
2.07284 3.15974 0
2.18109 3.22224 0
2.28934 3.28474 0
2.3976 3.34724 0
2.50585 3.40974 0
2.6141 3.47224 0
2.72235 3.53474 0
2.83061 3.59724 0
2.93886 3.65974 0
3.04711 3.72224 0
3.15537 3.78474 0
3.26362 3.84724 0
3.37187 3.90974 0
3.48013 3.97224 0
-0.9 1.55885 0
-0.791747 1.62135 0
-0.683494 1.68385 0
-0.57524 1.74635 0
-0.466987 1.80885 0
-0.358734 1.87135 0
-0.250481 1.93385 0
-0.142228 1.99635 0
-0.0339746 2.05885 0
0.0742786 2.12135 0
0.182532 2.18385 0
0.290785 2.24635 0
0.399038 2.30885 0
0.507291 2.37135 0
0.615544 2.43385 0
0.723798 2.49635 0
0.832051 2.55885 0
0.940304 2.62135 0
1.04856 2.68385 0
1.15681 2.74635 0
1.26506 2.80885 0
1.37332 2.87135 0
1.48157 2.93385 0
1.58982 2.99635 0
1.69808 3.05885 0
1.80633 3.12135 0
1.91458 3.18385 0
2.02284 3.24635 0
2.13109 3.30885 0
2.23934 3.37135 0
2.3476 3.43385 0
2.45585 3.49635 0
2.5641 3.55885 0
2.67235 3.62135 0
2.78061 3.68385 0
2.88886 3.74635 0
2.99711 3.80885 0
3.10537 3.87135 0
3.21362 3.93385 0
3.32187 3.99635 0
3.43013 4.05885 0
-0.95 1.64545 0
-0.841747 1.70795 0
-0.733494 1.77045 0
-0.62524 1.83295 0
-0.516987 1.89545 0
-0.408734 1.95795 0
-0.300481 2.02045 0
-0.192228 2.08295 0
-0.0839746 2.14545 0
0.0242786 2.20795 0
0.132532 2.27045 0
0.240785 2.33295 0
0.349038 2.39545 0
0.457291 2.45795 0
0.565544 2.52045 0
0.673798 2.58295 0
0.782051 2.64545 0
0.890304 2.70795 0
0.998557 2.77045 0
1.10681 2.83295 0
1.21506 2.89545 0
1.32332 2.95795 0
1.43157 3.02045 0
1.53982 3.08295 0
1.64808 3.14545 0
1.75633 3.20795 0
1.86458 3.27045 0
1.97284 3.33295 0
2.08109 3.39545 0
2.18934 3.45795 0
2.2976 3.52045 0
2.40585 3.58295 0
2.5141 3.64545 0
2.62235 3.70795 0
2.73061 3.77045 0
2.83886 3.83295 0
2.94711 3.89545 0
3.05537 3.95795 0
3.16362 4.02045 0
3.27187 4.08295 0
3.38013 4.14545 0
-1 1.73205 0
-0.891747 1.79455 0
-0.783494 1.85705 0
-0.67524 1.91955 0
-0.566987 1.98205 0
-0.458734 2.04455 0
-0.350481 2.10705 0
-0.242228 2.16955 0
-0.133975 2.23205 0
-0.0257214 2.29455 0
0.0825318 2.35705 0
0.190785 2.41955 0
0.299038 2.48205 0
0.407291 2.54455 0
0.515544 2.60705 0
0.623798 2.66955 0
0.732051 2.73205 0
0.840304 2.79455 0
0.948557 2.85705 0
1.05681 2.91955 0
1.16506 2.98205 0
1.27332 3.04455 0
1.38157 3.10705 0
1.48982 3.16955 0
1.59808 3.23205 0
1.70633 3.29455 0
1.81458 3.35705 0
1.92284 3.41955 0
2.03109 3.48205 0
2.13934 3.54455 0
2.2476 3.60705 0
2.35585 3.66955 0
2.4641 3.73205 0
2.57235 3.79455 0
2.68061 3.85705 0
2.78886 3.91955 0
2.89711 3.98205 0
3.00537 4.04455 0
3.11362 4.10705 0
3.22187 4.16955 0
3.33013 4.23205 0

CELLS 800 4000
4 0 1 42 41 
4 1 2 43 42 
4 2 3 44 43 
4 3 4 45 44 
4 4 5 46 45 
4 5 6 47 46 
4 6 7 48 47 
4 7 8 49 48 
4 8 9 50 49 
4 9 10 51 50 
4 10 11 52 51 
4 11 12 53 52 
4 12 13 54 53 
4 13 14 55 54 
4 14 15 56 55 
4 15 16 57 56 
4 16 17 58 57 
4 17 18 59 58 
4 18 19 60 59 
4 19 20 61 60 
4 20 21 62 61 
4 21 22 63 62 
4 22 23 64 63 
4 23 24 65 64 
4 24 25 66 65 
4 25 26 67 66 
4 26 27 68 67 
4 27 28 69 68 
4 28 29 70 69 
4 29 30 71 70 
4 30 31 72 71 
4 31 32 73 72 
4 32 33 74 73 
4 33 34 75 74 
4 34 35 76 75 
4 35 36 77 76 
4 36 37 78 77 
4 37 38 79 78 
4 38 39 80 79 
4 39 40 81 80 
4 41 42 83 82 
4 42 43 84 83 
4 43 44 85 84 
4 44 45 86 85 
4 45 46 87 86 
4 46 47 88 87 
4 47 48 89 88 
4 48 49 90 89 
4 49 50 91 90 
4 50 51 92 91 
4 51 52 93 92 
4 52 53 94 93 
4 53 54 95 94 
4 54 55 96 95 
4 55 56 97 96 
4 56 57 98 97 
4 57 58 99 98 
4 58 59 100 99 
4 59 60 101 100 
4 60 61 102 101 
4 61 62 103 102 
4 62 63 104 103 
4 63 64 105 104 
4 64 65 106 105 
4 65 66 107 106 
4 66 67 108 107 
4 67 68 109 108 
4 68 69 110 109 
4 69 70 111 110 
4 70 71 112 111 
4 71 72 113 112 
4 72 73 114 113 
4 73 74 115 114 
4 74 75 116 115 
4 75 76 117 116 
4 76 77 118 117 
4 77 78 119 118 
4 78 79 120 119 
4 79 80 121 120 
4 80 81 122 121 
4 82 83 124 123 
4 83 84 125 124 
4 84 85 126 125 
4 85 86 127 126 
4 86 87 128 127 
4 87 88 129 128 
4 88 89 130 129 
4 89 90 131 130 
4 90 91 132 131 
4 91 92 133 132 
4 92 93 134 133 
4 93 94 135 134 
4 94 95 136 135 
4 95 96 137 136 
4 96 97 138 137 
4 97 98 139 138 
4 98 99 140 139 
4 99 100 141 140 
4 100 101 142 141 
4 101 102 143 142 
4 102 103 144 143 
4 103 104 145 144 
4 104 105 146 145 
4 105 106 147 146 
4 106 107 148 147 
4 107 108 149 148 
4 108 109 150 149 
4 109 110 151 150 
4 110 111 152 151 
4 111 112 153 152 
4 112 113 154 153 
4 113 114 155 154 
4 114 115 156 155 
4 115 116 157 156 
4 116 117 158 157 
4 117 118 159 158 
4 118 119 160 159 
4 119 120 161 160 
4 120 121 162 161 
4 121 122 163 162 
4 123 124 165 164 
4 124 125 166 165 
4 125 126 167 166 
4 126 127 168 167 
4 127 128 169 168 
4 128 129 170 169 
4 129 130 171 170 
4 130 131 172 171 
4 131 132 173 172 
4 132 133 174 173 
4 133 134 175 174 
4 134 135 176 175 
4 135 136 177 176 
4 136 137 178 177 
4 137 138 179 178 
4 138 139 180 179 
4 139 140 181 180 
4 140 141 182 181 
4 141 142 183 182 
4 142 143 184 183 
4 143 144 185 184 
4 144 145 186 185 
4 145 146 187 186 
4 146 147 188 187 
4 147 148 189 188 
4 148 149 190 189 
4 149 150 191 190 
4 150 151 192 191 
4 151 152 193 192 
4 152 153 194 193 
4 153 154 195 194 
4 154 155 196 195 
4 155 156 197 196 
4 156 157 198 197 
4 157 158 199 198 
4 158 159 200 199 
4 159 160 201 200 
4 160 161 202 201 
4 161 162 203 202 
4 162 163 204 203 
4 164 165 206 205 
4 165 166 207 206 
4 166 167 208 207 
4 167 168 209 208 
4 168 169 210 209 
4 169 170 211 210 
4 170 171 212 211 
4 171 172 213 212 
4 172 173 214 213 
4 173 174 215 214 
4 174 175 216 215 
4 175 176 217 216 
4 176 177 218 217 
4 177 178 219 218 
4 178 179 220 219 
4 179 180 221 220 
4 180 181 222 221 
4 181 182 223 222 
4 182 183 224 223 
4 183 184 225 224 
4 184 185 226 225 
4 185 186 227 226 
4 186 187 228 227 
4 187 188 229 228 
4 188 189 230 229 
4 189 190 231 230 
4 190 191 232 231 
4 191 192 233 232 
4 192 193 234 233 
4 193 194 235 234 
4 194 195 236 235 
4 195 196 237 236 
4 196 197 238 237 
4 197 198 239 238 
4 198 199 240 239 
4 199 200 241 240 
4 200 201 242 241 
4 201 202 243 242 
4 202 203 244 243 
4 203 204 245 244 
4 205 206 247 246 
4 206 207 248 247 
4 207 208 249 248 
4 208 209 250 249 
4 209 210 251 250 
4 210 211 252 251 
4 211 212 253 252 
4 212 213 254 253 
4 213 214 255 254 
4 214 215 256 255 
4 215 216 257 256 
4 216 217 258 257 
4 217 218 259 258 
4 218 219 260 259 
4 219 220 261 260 
4 220 221 262 261 
4 221 222 263 262 
4 222 223 264 263 
4 223 224 265 264 
4 224 225 266 265 
4 225 226 267 266 
4 226 227 268 267 
4 227 228 269 268 
4 228 229 270 269 
4 229 230 271 270 
4 230 231 272 271 
4 231 232 273 272 
4 232 233 274 273 
4 233 234 275 274 
4 234 235 276 275 
4 235 236 277 276 
4 236 237 278 277 
4 237 238 279 278 
4 238 239 280 279 
4 239 240 281 280 
4 240 241 282 281 
4 241 242 283 282 
4 242 243 284 283 
4 243 244 285 284 
4 244 245 286 285 
4 246 247 288 287 
4 247 248 289 288 
4 248 249 290 289 
4 249 250 291 290 
4 250 251 292 291 
4 251 252 293 292 
4 252 253 294 293 
4 253 254 295 294 
4 254 255 296 295 
4 255 256 297 296 
4 256 257 298 297 
4 257 258 299 298 
4 258 259 300 299 
4 259 260 301 300 
4 260 261 302 301 
4 261 262 303 302 
4 262 263 304 303 
4 263 264 305 304 
4 264 265 306 305 
4 265 266 307 306 
4 266 267 308 307 
4 267 268 309 308 
4 268 269 310 309 
4 269 270 311 310 
4 270 271 312 311 
4 271 272 313 312 
4 272 273 314 313 
4 273 274 315 314 
4 274 275 316 315 
4 275 276 317 316 
4 276 277 318 317 
4 277 278 319 318 
4 278 279 320 319 
4 279 280 321 320 
4 280 281 322 321 
4 281 282 323 322 
4 282 283 324 323 
4 283 284 325 324 
4 284 285 326 325 
4 285 286 327 326 
4 287 288 329 328 
4 288 289 330 329 
4 289 290 331 330 
4 290 291 332 331 
4 291 292 333 332 
4 292 293 334 333 
4 293 294 335 334 
4 294 295 336 335 
4 295 296 337 336 
4 296 297 338 337 
4 297 298 339 338 
4 298 299 340 339 
4 299 300 341 340 
4 300 301 342 341 
4 301 302 343 342 
4 302 303 344 343 
4 303 304 345 344 
4 304 305 346 345 
4 305 306 347 346 
4 306 307 348 347 
4 307 308 349 348 
4 308 309 350 349 
4 309 310 351 350 
4 310 311 352 351 
4 311 312 353 352 
4 312 313 354 353 
4 313 314 355 354 
4 314 315 356 355 
4 315 316 357 356 
4 316 317 358 357 
4 317 318 359 358 
4 318 319 360 359 
4 319 320 361 360 
4 320 321 362 361 
4 321 322 363 362 
4 322 323 364 363 
4 323 324 365 364 
4 324 325 366 365 
4 325 326 367 366 
4 326 327 368 367 
4 328 329 370 369 
4 329 330 371 370 
4 330 331 372 371 
4 331 332 373 372 
4 332 333 374 373 
4 333 334 375 374 
4 334 335 376 375 
4 335 336 377 376 
4 336 337 378 377 
4 337 338 379 378 
4 338 339 380 379 
4 339 340 381 380 
4 340 341 382 381 
4 341 342 383 382 
4 342 343 384 383 
4 343 344 385 384 
4 344 345 386 385 
4 345 346 387 386 
4 346 347 388 387 
4 347 348 389 388 
4 348 349 390 389 
4 349 350 391 390 
4 350 351 392 391 
4 351 352 393 392 
4 352 353 394 393 
4 353 354 395 394 
4 354 355 396 395 
4 355 356 397 396 
4 356 357 398 397 
4 357 358 399 398 
4 358 359 400 399 
4 359 360 401 400 
4 360 361 402 401 
4 361 362 403 402 
4 362 363 404 403 
4 363 364 405 404 
4 364 365 406 405 
4 365 366 407 406 
4 366 367 408 407 
4 367 368 409 408 
4 369 370 411 410 
4 370 371 412 411 
4 371 372 413 412 
4 372 373 414 413 
4 373 374 415 414 
4 374 375 416 415 
4 375 376 417 416 
4 376 377 418 417 
4 377 378 419 418 
4 378 379 420 419 
4 379 380 421 420 
4 380 381 422 421 
4 381 382 423 422 
4 382 383 424 423 
4 383 384 425 424 
4 384 385 426 425 
4 385 386 427 426 
4 386 387 428 427 
4 387 388 429 428 
4 388 389 430 429 
4 389 390 431 430 
4 390 391 432 431 
4 391 392 433 432 
4 392 393 434 433 
4 393 394 435 434 
4 394 395 436 435 
4 395 396 437 436 
4 396 397 438 437 
4 397 398 439 438 
4 398 399 440 439 
4 399 400 441 440 
4 400 401 442 441 
4 401 402 443 442 
4 402 403 444 443 
4 403 404 445 444 
4 404 405 446 445 
4 405 406 447 446 
4 406 407 448 447 
4 407 408 449 448 
4 408 409 450 449 
4 410 411 452 451 
4 411 412 453 452 
4 412 413 454 453 
4 413 414 455 454 
4 414 415 456 455 
4 415 416 457 456 
4 416 417 458 457 
4 417 418 459 458 
4 418 419 460 459 
4 419 420 461 460 
4 420 421 462 461 
4 421 422 463 462 
4 422 423 464 463 
4 423 424 465 464 
4 424 425 466 465 
4 425 426 467 466 
4 426 427 468 467 
4 427 428 469 468 
4 428 429 470 469 
4 429 430 471 470 
4 430 431 472 471 
4 431 432 473 472 
4 432 433 474 473 
4 433 434 475 474 
4 434 435 476 475 
4 435 436 477 476 
4 436 437 478 477 
4 437 438 479 478 
4 438 439 480 479 
4 439 440 481 480 
4 440 441 482 481 
4 441 442 483 482 
4 442 443 484 483 
4 443 444 485 484 
4 444 445 486 485 
4 445 446 487 486 
4 446 447 488 487 
4 447 448 489 488 
4 448 449 490 489 
4 449 450 491 490 
4 451 452 493 492 
4 452 453 494 493 
4 453 454 495 494 
4 454 455 496 495 
4 455 456 497 496 
4 456 457 498 497 
4 457 458 499 498 
4 458 459 500 499 
4 459 460 501 500 
4 460 461 502 501 
4 461 462 503 502 
4 462 463 504 503 
4 463 464 505 504 
4 464 465 506 505 
4 465 466 507 506 
4 466 467 508 507 
4 467 468 509 508 
4 468 469 510 509 
4 469 470 511 510 
4 470 471 512 511 
4 471 472 513 512 
4 472 473 514 513 
4 473 474 515 514 
4 474 475 516 515 
4 475 476 517 516 
4 476 477 518 517 
4 477 478 519 518 
4 478 479 520 519 
4 479 480 521 520 
4 480 481 522 521 
4 481 482 523 522 
4 482 483 524 523 
4 483 484 525 524 
4 484 485 526 525 
4 485 486 527 526 
4 486 487 528 527 
4 487 488 529 528 
4 488 489 530 529 
4 489 490 531 530 
4 490 491 532 531 
4 492 493 534 533 
4 493 494 535 534 
4 494 495 536 535 
4 495 496 537 536 
4 496 497 538 537 
4 497 498 539 538 
4 498 499 540 539 
4 499 500 541 540 
4 500 501 542 541 
4 501 502 543 542 
4 502 503 544 543 
4 503 504 545 544 
4 504 505 546 545 
4 505 506 547 546 
4 506 507 548 547 
4 507 508 549 548 
4 508 509 550 549 
4 509 510 551 550 
4 510 511 552 551 
4 511 512 553 552 
4 512 513 554 553 
4 513 514 555 554 
4 514 515 556 555 
4 515 516 557 556 
4 516 517 558 557 
4 517 518 559 558 
4 518 519 560 559 
4 519 520 561 560 
4 520 521 562 561 
4 521 522 563 562 
4 522 523 564 563 
4 523 524 565 564 
4 524 525 566 565 
4 525 526 567 566 
4 526 527 568 567 
4 527 528 569 568 
4 528 529 570 569 
4 529 530 571 570 
4 530 531 572 571 
4 531 532 573 572 
4 533 534 575 574 
4 534 535 576 575 
4 535 536 577 576 
4 536 537 578 577 
4 537 538 579 578 
4 538 539 580 579 
4 539 540 581 580 
4 540 541 582 581 
4 541 542 583 582 
4 542 543 584 583 
4 543 544 585 584 
4 544 545 586 585 
4 545 546 587 586 
4 546 547 588 587 
4 547 548 589 588 
4 548 549 590 589 
4 549 550 591 590 
4 550 551 592 591 
4 551 552 593 592 
4 552 553 594 593 
4 553 554 595 594 
4 554 555 596 595 
4 555 556 597 596 
4 556 557 598 597 
4 557 558 599 598 
4 558 559 600 599 
4 559 560 601 600 
4 560 561 602 601 
4 561 562 603 602 
4 562 563 604 603 
4 563 564 605 604 
4 564 565 606 605 
4 565 566 607 606 
4 566 567 608 607 
4 567 568 609 608 
4 568 569 610 609 
4 569 570 611 610 
4 570 571 612 611 
4 571 572 613 612 
4 572 573 614 613 
4 574 575 616 615 
4 575 576 617 616 
4 576 577 618 617 
4 577 578 619 618 
4 578 579 620 619 
4 579 580 621 620 
4 580 581 622 621 
4 581 582 623 622 
4 582 583 624 623 
4 583 584 625 624 
4 584 585 626 625 
4 585 586 627 626 
4 586 587 628 627 
4 587 588 629 628 
4 588 589 630 629 
4 589 590 631 630 
4 590 591 632 631 
4 591 592 633 632 
4 592 593 634 633 
4 593 594 635 634 
4 594 595 636 635 
4 595 596 637 636 
4 596 597 638 637 
4 597 598 639 638 
4 598 599 640 639 
4 599 600 641 640 
4 600 601 642 641 
4 601 602 643 642 
4 602 603 644 643 
4 603 604 645 644 
4 604 605 646 645 
4 605 606 647 646 
4 606 607 648 647 
4 607 608 649 648 
4 608 609 650 649 
4 609 610 651 650 
4 610 611 652 651 
4 611 612 653 652 
4 612 613 654 653 
4 613 614 655 654 
4 615 616 657 656 
4 616 617 658 657 
4 617 618 659 658 
4 618 619 660 659 
4 619 620 661 660 
4 620 621 662 661 
4 621 622 663 662 
4 622 623 664 663 
4 623 624 665 664 
4 624 625 666 665 
4 625 626 667 666 
4 626 627 668 667 
4 627 628 669 668 
4 628 629 670 669 
4 629 630 671 670 
4 630 631 672 671 
4 631 632 673 672 
4 632 633 674 673 
4 633 634 675 674 
4 634 635 676 675 
4 635 636 677 676 
4 636 637 678 677 
4 637 638 679 678 
4 638 639 680 679 
4 639 640 681 680 
4 640 641 682 681 
4 641 642 683 682 
4 642 643 684 683 
4 643 644 685 684 
4 644 645 686 685 
4 645 646 687 686 
4 646 647 688 687 
4 647 648 689 688 
4 648 649 690 689 
4 649 650 691 690 
4 650 651 692 691 
4 651 652 693 692 
4 652 653 694 693 
4 653 654 695 694 
4 654 655 696 695 
4 656 657 698 697 
4 657 658 699 698 
4 658 659 700 699 
4 659 660 701 700 
4 660 661 702 701 
4 661 662 703 702 
4 662 663 704 703 
4 663 664 705 704 
4 664 665 706 705 
4 665 666 707 706 
4 666 667 708 707 
4 667 668 709 708 
4 668 669 710 709 
4 669 670 711 710 
4 670 671 712 711 
4 671 672 713 712 
4 672 673 714 713 
4 673 674 715 714 
4 674 675 716 715 
4 675 676 717 716 
4 676 677 718 717 
4 677 678 719 718 
4 678 679 720 719 
4 679 680 721 720 
4 680 681 722 721 
4 681 682 723 722 
4 682 683 724 723 
4 683 684 725 724 
4 684 685 726 725 
4 685 686 727 726 
4 686 687 728 727 
4 687 688 729 728 
4 688 689 730 729 
4 689 690 731 730 
4 690 691 732 731 
4 691 692 733 732 
4 692 693 734 733 
4 693 694 735 734 
4 694 695 736 735 
4 695 696 737 736 
4 697 698 739 738 
4 698 699 740 739 
4 699 700 741 740 
4 700 701 742 741 
4 701 702 743 742 
4 702 703 744 743 
4 703 704 745 744 
4 704 705 746 745 
4 705 706 747 746 
4 706 707 748 747 
4 707 708 749 748 
4 708 709 750 749 
4 709 710 751 750 
4 710 711 752 751 
4 711 712 753 752 
4 712 713 754 753 
4 713 714 755 754 
4 714 715 756 755 
4 715 716 757 756 
4 716 717 758 757 
4 717 718 759 758 
4 718 719 760 759 
4 719 720 761 760 
4 720 721 762 761 
4 721 722 763 762 
4 722 723 764 763 
4 723 724 765 764 
4 724 725 766 765 
4 725 726 767 766 
4 726 727 768 767 
4 727 728 769 768 
4 728 729 770 769 
4 729 730 771 770 
4 730 731 772 771 
4 731 732 773 772 
4 732 733 774 773 
4 733 734 775 774 
4 734 735 776 775 
4 735 736 777 776 
4 736 737 778 777 
4 738 739 780 779 
4 739 740 781 780 
4 740 741 782 781 
4 741 742 783 782 
4 742 743 784 783 
4 743 744 785 784 
4 744 745 786 785 
4 745 746 787 786 
4 746 747 788 787 
4 747 748 789 788 
4 748 749 790 789 
4 749 750 791 790 
4 750 751 792 791 
4 751 752 793 792 
4 752 753 794 793 
4 753 754 795 794 
4 754 755 796 795 
4 755 756 797 796 
4 756 757 798 797 
4 757 758 799 798 
4 758 759 800 799 
4 759 760 801 800 
4 760 761 802 801 
4 761 762 803 802 
4 762 763 804 803 
4 763 764 805 804 
4 764 765 806 805 
4 765 766 807 806 
4 766 767 808 807 
4 767 768 809 808 
4 768 769 810 809 
4 769 770 811 810 
4 770 771 812 811 
4 771 772 813 812 
4 772 773 814 813 
4 773 774 815 814 
4 774 775 816 815 
4 775 776 817 816 
4 776 777 818 817 
4 777 778 819 818 
4 779 780 821 820 
4 780 781 822 821 
4 781 782 823 822 
4 782 783 824 823 
4 783 784 825 824 
4 784 785 826 825 
4 785 786 827 826 
4 786 787 828 827 
4 787 788 829 828 
4 788 789 830 829 
4 789 790 831 830 
4 790 791 832 831 
4 791 792 833 832 
4 792 793 834 833 
4 793 794 835 834 
4 794 795 836 835 
4 795 796 837 836 
4 796 797 838 837 
4 797 798 839 838 
4 798 799 840 839 
4 799 800 841 840 
4 800 801 842 841 
4 801 802 843 842 
4 802 803 844 843 
4 803 804 845 844 
4 804 805 846 845 
4 805 806 847 846 
4 806 807 848 847 
4 807 808 849 848 
4 808 809 850 849 
4 809 810 851 850 
4 810 811 852 851 
4 811 812 853 852 
4 812 813 854 853 
4 813 814 855 854 
4 814 815 856 855 
4 815 816 857 856 
4 816 817 858 857 
4 817 818 859 858 
4 818 819 860 859 

CELL_TYPES 800
9
9
9
9
9
9
9
9
9
9
9
9
9
9
9
9
9
9
9
9
9
9
9
9
9
9
9
9
9
9
9
9
9
9
9
9
9
9
9
9
9
9
9
9
9
9
9
9
9
9
9
9
9
9
9
9
9
9
9
9
9
9
9
9
9
9
9
9
9
9
9
9
9
9
9
9
9
9
9
9
9
9
9
9
9
9
9
9
9
9
9
9
9
9
9
9
9
9
9
9
9
9
9
9
9
9
9
9
9
9
9
9
9
9
9
9
9
9
9
9
9
9
9
9
9
9
9
9
9
9
9
9
9
9
9
9
9
9
9
9
9
9
9
9
9
9
9
9
9
9
9
9
9
9
9
9
9
9
9
9
9
9
9
9
9
9
9
9
9
9
9
9
9
9
9
9
9
9
9
9
9
9
9
9
9
9
9
9
9
9
9
9
9
9
9
9
9
9
9
9
9
9
9
9
9
9
9
9
9
9
9
9
9
9
9
9
9
9
9
9
9
9
9
9
9
9
9
9
9
9
9
9
9
9
9
9
9
9
9
9
9
9
9
9
9
9
9
9
9
9
9
9
9
9
9
9
9
9
9
9
9
9
9
9
9
9
9
9
9
9
9
9
9
9
9
9
9
9
9
9
9
9
9
9
9
9
9
9
9
9
9
9
9
9
9
9
9
9
9
9
9
9
9
9
9
9
9
9
9
9
9
9
9
9
9
9
9
9
9
9
9
9
9
9
9
9
9
9
9
9
9
9
9
9
9
9
9
9
9
9
9
9
9
9
9
9
9
9
9
9
9
9
9
9
9
9
9
9
9
9
9
9
9
9
9
9
9
9
9
9
9
9
9
9
9
9
9
9
9
9
9
9
9
9
9
9
9
9
9
9
9
9
9
9
9
9
9
9
9
9
9
9
9
9
9
9
9
9
9
9
9
9
9
9
9
9
9
9
9
9
9
9
9
9
9
9
9
9
9
9
9
9
9
9
9
9
9
9
9
9
9
9
9
9
9
9
9
9
9
9
9
9
9
9
9
9
9
9
9
9
9
9
9
9
9
9
9
9
9
9
9
9
9
9
9
9
9
9
9
9
9
9
9
9
9
9
9
9
9
9
9
9
9
9
9
9
9
9
9
9
9
9
9
9
9
9
9
9
9
9
9
9
9
9
9
9
9
9
9
9
9
9
9
9
9
9
9
9
9
9
9
9
9
9
9
9
9
9
9
9
9
9
9
9
9
9
9
9
9
9
9
9
9
9
9
9
9
9
9
9
9
9
9
9
9
9
9
9
9
9
9
9
9
9
9
9
9
9
9
9
9
9
9
9
9
9
9
9
9
9
9
9
9
9
9
9
9
9
9
9
9
9
9
9
9
9
9
9
9
9
9
9
9
9
9
9
9
9
9
9
9
9
9
9
9
9
9
9
9
9
9
9
9
9
9
9
9
9
9
9
9
9
9
9
9
9
9
9
9
9
9
9
9
9
9
9
9
9
9
9
9
9
9
9
9
9
9
9
9
9
9
9
9
9
9
9
9
9
9
9
9
9
9
9
9
9
9
9
9
9
9
9
9
9
9
9
9
9
9
9
9
9
9
9
9
9
9
9
9
9
9
9
9
9
9
9
9
9
9
9
9
9
9
9
9
9
9
9
9
9
9
9
9
9
9
9
9
9
9
9
9
9
9
9
9
9
9
9
9
9
9
9
9
9
9
9
9
9
9
9
9
9
9
9
9
9
9
9
9
9
9
9
9
9
9
9
9
9
9
9
9
9
9
9
9
9
9
9
9
9
9
9
9
9
9
9
9
9
9
9
